<ttFont>
<head>
    <!-- Most of this table will be recalculated by the compiler -->
    <tableVersion value="1.0"/>
    <fontRevision value="2.137"/>
    <checkSumAdjustment value="0x584f4868"/>
    <magicNumber value="0x5f0f3cf5"/>
    <flags value="00000000 00011001"/>
    <unitsPerEm value="2048"/>
    <created value="Fri Sep 12 12:29:34 2008"/>
    <modified value="Wed Dec 11 22:26:38 2019"/>
    <xMin value="-1509"/>
    <yMin value="-555"/>
    <xMax value="2352"/>
    <yMax value="2163"/>
    <macStyle value="00000000 00000000"/>
    <lowestRecPPEM value="9"/>
    <fontDirectionHint value="2"/>
    <indexToLocFormat value="0"/>
    <glyphDataFormat value="0"/>
  </head>
          <CharString index="0">
            rmoveto
            30 9 25 19 21 vhcurveto
            return
          </CharString>
          <CharString index="1">
            21 -59 callsubr
            -21 19 hvcurveto
            -49 callsubr
            endchar
          </CharString>
          <CharString index="2">
            rmoveto
            224 hlineto
            -268 -294 rlineto
            -149 hlineto
            endchar
          </CharString>
          <CharString index="3">
            20 18 7 callsubr
            -49 callsubr
            430 -2 -107 callsubr
            -106 callsubr
          </CharString>
          <CharString index="4">
            -36 callsubr
            endchar
          </CharString>
          <CharString index="5">
            rmoveto
            -159 hlineto
            -258 294 rlineto
            223 hlineto
            endchar
          </CharString>
          <CharString index="6">
            -2 callsubr
            endchar
          </CharString>
          <CharString index="7">
            973 380 rmoveto
            -610 hlineto
            -137 -380 -198 0 556 1456 168 0 557 -1456 rlineto
            -197 hlineto
            -691 538 rmoveto
            495 hlineto
            -248 681 rlineto
            return
          </CharString>
          <CharString index="8">
            rmoveto
            -105 72 48 73 25 78 1 85 rlinecurve
            92 177 -76 vlineto
            -61 -13 -60 -26 -59 vhcurveto
            -27 -60 -35 -48 -45 -36 rrcurveto
            endchar
          </CharString>
          <CharString index="9">
            -17 808 hmoveto
            -11 21 -8 38 -7 55 rrcurveto
            -89 -86 -103 -45 -119 hhcurveto
            -107 -87 30 61 -68 hvcurveto
            -69 60 -34 76 93 vvcurveto
            113 43 87 86 63 vhcurveto
            62 85 121 31 155 hhcurveto
            180 85 hlineto
            65 -19 51 -39 39 vhcurveto
            38 -39 -57 19 -75 hhcurveto
            -66 -55 -17 -33 -45 hvcurveto
            -45 -33 -22 -41 -47 vvcurveto
            -186 hlineto
            54 19 52 39 51 vhcurveto
            38 50 52 40 66 29 rrcurveto
            29 65 72 15 79 hhcurveto
            125 97 -31 -62 71 hvcurveto
            71 -63 36 -86 3 -109 rrcurveto
            -498 vlineto
            -99 13 -79 25 -59 vhcurveto
            -16 vlineto
            -501 141 -98 callgsubr
            return
          </CharString>
          <CharString index="10">
            rmoveto
            -72 -20 -58 -41 -45 vhcurveto
            -45 -41 -52 -22 -61 hhcurveto
            -27 -24 3 7 -20 hvcurveto
            -20 7 -26 13 -32 21 -33 21 -23 12 -14 5 rrcurveto
            4 -15 -16 2 -19 hhcurveto
            -27 -24 -10 -21 -19 hvcurveto
            -19 -21 -10 -27 -33 vvcurveto
            -124 7 rlineto
            71 20 59 41 47 vhcurveto
            47 40 51 23 62 hhcurveto
            23 21 -3 -7 19 hvcurveto
            19 -7 25 -13 32 -19 32 -19 25 -13 17 -6 rrcurveto
            -6 17 18 -3 21 hhcurveto
            29 24 11 23 19 hvcurveto
            19 23 9 26 30 vvcurveto
            endchar
          </CharString>
          <CharString index="11">
            -115 -101 28 57 -89 hvcurveto
            -89 56 -68 80 -49 105 -49 104 -26 121 -1 137 rrcurveto
            105 111 callsubr
            83 89 57 rrcurveto
            57 89 101 28 115 hhcurveto
            117 return
          </CharString>
          <CharString index="12">
            33 992 673 rmoveto
            -631 -516 733 -157 return
          </CharString>
          <CharString index="13">
            103 -28 -56 89 hvcurveto
            89 -57 68 -81 48 -107 rrcurveto
            48 -107 24 -125 -142 vvcurveto
            -191 2 167 callsubr
            -132 71 -95 vhcurveto
            -96 70 97 -48 123 hhcurveto
            124 96 45 91 68 hvcurveto
            68 90 35 129 2 169 rrcurveto
            return
          </CharString>
          <CharString index="14">
            -925 -1 callgsubr
            return
          </CharString>
          <CharString index="15">
            rmoveto
            150 170 rlineto
            160 -10 hlineto
            -254 -274 -113 0 -251 274 rlineto
            10 157 vlineto
            endchar
          </CharString>
          <CharString index="16">
            -46 589 107 callsubr
            129 161 vvcurveto
            34 -96 callgsubr
            113 -88 rcurveline
            -25 callgsubr
            return
          </CharString>
          <CharString index="17">
            rmoveto
            174 hlineto
            -116 -337 rlineto
            -112 hlineto
            endchar
          </CharString>
          <CharString index="18">
            277 1289 -17 callsubr
            return
          </CharString>
          <CharString index="19">
            rmoveto
            -672 143 672 hlineto
            endchar
          </CharString>
          <CharString index="20">
            37 -73 callsubr
            136 callsubr
            return
          </CharString>
          <CharString index="21">
            -574 375 hmoveto
            -6 callsubr
            hlineto
            return
          </CharString>
          <CharString index="22">
            rmoveto
            -1 153 50 3 37 7 23 10 rlinecurve
            23 10 12 18 26 vvcurveto
            26 -15 20 -30 13 vhcurveto
            13 -31 -40 6 -50 hhcurveto
            7 106 rlineto
            99 76 -17 -34 51 hvcurveto
            51 -35 26 -45 -57 vvcurveto
            -41 -13 -33 -26 -27 vhcurveto
            -26 -27 -39 -17 -51 -7 -1 -71 rcurveline
            endchar
          </CharString>
          <CharString index="23">
            rmoveto
            -169 hlineto
            -306 266 rlineto
            225 hlineto
            511 -266 rmoveto
            -150 hlineto
            -246 266 rlineto
            206 hlineto
            endchar
          </CharString>
          <CharString index="24">
            32 10 27 19 21 vhcurveto
            21 19 28 11 38 hhcurveto
            38 29 -11 -21 20 hvcurveto
            19 -21 10 -27 -32 vvcurveto
            -31 -10 return
          </CharString>
          <CharString index="25">
            197 1194 1456 rmoveto
            -990 vlineto
            -1 -137 -43 -113 -85 -87 -86 -87 -116 -49 -147 -11 -51 -2 rcurveline
            165 callsubr
            return
          </CharString>
          <CharString index="26">
            26 838 279 rmoveto
            -520 hlineto
            -110 -279 -189 0 479 1165 166 0 472 -1165 rlineto
            -188 hlineto
            -570 430 rmoveto
            401 hlineto
            -199 509 rlineto
            return
          </CharString>
          <CharString index="27">
            -133 855 526 rmoveto
            -532 -375 619 -151 return
          </CharString>
          <CharString index="28">
            -643 337 hmoveto
            -186 1165 186 hlineto
            return
          </CharString>
          <CharString index="29">
            rmoveto
            -186 512 186 hlineto
            endchar
          </CharString>
          <CharString index="30">
            329 1288 hmoveto
            -193 return
          </CharString>
          <CharString index="31">
            -804 0 callgsubr
            return
          </CharString>
          <CharString index="32">
            -2 808 107 rmoveto
            -85 -72 -106 -42 73 callsubr
            -1082 -176 vlineto
            return
          </CharString>
          <CharString index="33">
            -162 494 271 68 callsubr
            return
          </CharString>
          <CharString index="34">
            91 551 rmoveto
            106 21 95 return
          </CharString>
          <CharString index="35">
            -625 41 callsubr
            return
          </CharString>
          <CharString index="36">
            -25 -19 -21 vhcurveto
            -21 -20 -29 return
          </CharString>
          <CharString index="37">
            80 1114 548 rmoveto
            -14 callgsubr
            -106 callgsubr
            return
          </CharString>
          <CharString index="38">
            41 85 vhcurveto
            41 84 58 65 75 47 rrcurveto
            46 75 85 23 95 hhcurveto
            return
          </CharString>
          <CharString index="39">
            -10 -38 hhcurveto
            -38 -28 10 21 -19 hvcurveto
            -19 21 -10 25 31 vvcurveto
            return
          </CharString>
          <CharString index="40">
            99 613 -77 callgsubr
            return
          </CharString>
          <CharString index="41">
            17 1034 1165 rmoveto
            -780 vlineto
            -121 -42 -97 -83 -73 vhcurveto
            -73 -83 -112 -37 -139 hhcurveto
            -140 -111 35 71 -82 hvcurveto
            -82 70 -42 96 -2 121 rrcurveto
            788 -84 callgsubr
            return
          </CharString>
          <CharString index="42">
            rmoveto
            -105 72 63 87 32 90 3 93 rlinecurve
            167 181 -145 -3 callgsubr
          </CharString>
          <CharString index="43">
            rmoveto
            -61 callsubr
            9 callgsubr
          </CharString>
          <CharString index="44">
            -193 1456 193 return
          </CharString>
          <CharString index="45">
            rmoveto
            207 hlineto
            -269 -303 rlineto
            -169 hlineto
            -109 303 rmoveto
            197 hlineto
            -218 -303 rlineto
            -150 hlineto
            endchar
          </CharString>
          <CharString index="46">
            -58 -45 rlineto
            -75 -61 -38 -59 -57 79 callsubr
            return
          </CharString>
          <CharString index="47">
            rmoveto
            -104 66 711 1138 104 -66 rlineto
            return
          </CharString>
          <CharString index="48">
            18 27 10 36 hhcurveto
            36 27 -10 return
          </CharString>
          <CharString index="49">
            -185 1165 185 return
          </CharString>
          <CharString index="50">
            17 1072 377 rmoveto
            -13 return
          </CharString>
          <CharString index="51">
            84 598 649 rmoveto
            -165 47 -119 59 -75 69 rrcurveto
            -75 69 -38 85 101 vvcurveto
            115 46 95 92 75 vhcurveto
            75 91 119 37 147 hhcurveto
            100 89 -19 -39 79 hvcurveto
            78 -39 61 -53 43 -68 rrcurveto
            43 -68 21 -74 -81 vvcurveto
            -193 hlineto
            88 -28 69 -56 51 vhcurveto
            50 -56 -79 25 -102 hhcurveto
            -95 -73 -21 -41 -53 hvcurveto
            -53 -42 -27 -58 -74 vvcurveto
            -59 25 -50 51 -41 vhcurveto
            50 -41 86 -38 121 -34 121 -34 94 -37 69 -41 68 -41 51 -48 33 -55 rrcurveto
            33 -55 16 -64 -74 vvcurveto
            -118 -46 -94 -92 -71 vhcurveto
            -71 -92 -123 -36 -154 hhcurveto
            -100 -93 19 39 -87 hvcurveto
            -87 38 -66 52 -47 67 rrcurveto
            -47 67 -24 75 85 vvcurveto
            193 hlineto
            -88 33 -69 65 -51 vhcurveto
            -51 65 86 -26 109 hhcurveto
            101 78 21 41 54 hvcurveto
            54 41 27 57 71 vvcurveto
            71 -25 56 -50 39 vhcurveto
            -50 39 -91 38 -131 38 rrcurveto
            return
          </CharString>
          <CharString index="52">
            202 1240 462 rmoveto
            -92 callgsubr
            140 vlineto
            135 24 119 49 103 vhcurveto
            48 103 68 79 89 55 rrcurveto
            55 89 102 27 -42 callgsubr
            -193 hlineto
            -17 116 -36 84 -55 52 rrcurveto
            52 -56 -78 26 -100 hhcurveto
            -123 -96 -45 -91 -69 hvcurveto
            -70 -91 -35 -129 -167 vvcurveto
            -141 vlineto
            -75 callgsubr
            return
          </CharString>
          <CharString index="53">
            -59 574 95 callsubr
            175 hlineto
            -3 -62 -22 -59 -39 -56 -39 -56 -53 -45 -65 -33 rrcurveto
            -33 -66 -70 -17 -73 hhcurveto
            -147 -117 49 99 -87 hvcurveto
            -87 98 -44 134 171 vvcurveto
            31 vlineto
            105 19 94 39 82 vhcurveto
            39 82 55 64 73 45 rrcurveto
            45 72 85 23 99 31 callsubr
            -175 112 callsubr
            -50 callgsubr
            51 -67 vhcurveto
            -67 51 74 -34 95 hhcurveto
            return
          </CharString>
          <CharString index="54">
            -1 315 1082 rmoveto
            6 -136 rlineto
            104 83 108 52 133 hhcurveto
            229 115 -129 -258 2 hvcurveto
            -715 -185 716 vlineto
            -1 78 -17 58 -35 37 rrcurveto
            37 -35 -55 19 -74 93 callsubr
            1082 vlineto
            return
          </CharString>
          <CharString index="55">
            -75 803 298 rmoveto
            53 -20 42 -40 29 vhcurveto
            -41 29 -69 27 -98 25 -98 25 -78 26 -57 29 rrcurveto
            -130 65 -65 93 119 vvcurveto
            return
          </CharString>
          <CharString index="56">
            91 1175 1298 rmoveto
            -468 -1298 -191 1298 -467 158 1126 hlineto
            return
          </CharString>
          <CharString index="57">
            hlineto
            -733 1122 rlineto
            -1122 -63 callsubr
            vlineto
            735 -1127 rlineto
            1127 191 vlineto
            return
          </CharString>
          <CharString index="58">
            19 -21 9 -25 -30 vvcurveto
            -30 -9 -25 -19 -20 105 callsubr
            20 -9 25 30 vvcurveto
            return
          </CharString>
          <CharString index="59">
            673 -734 -673 -6 callsubr
            -626 734 626 193 hlineto
            return
          </CharString>
          <CharString index="60">
            -75 770 287 rmoveto
            72 callsubr
            -21 callgsubr
            return
          </CharString>
          <CharString index="61">
            -186 1082 186 hlineto
            return
          </CharString>
          <CharString index="62">
            95 41 78 81 59 vhcurveto
            59 81 104 30 127 hhcurveto
            131 107 -33 -67 83 hvcurveto
            83 -67 41 -85 -104 vvcurveto
            -185 hlineto
            65 -23 51 -47 36 vhcurveto
            35 -47 -64 18 -81 hhcurveto
            -75 -60 -15 -29 -45 hvcurveto
            -45 -30 -22 -42 -53 vvcurveto
            -43 21 -37 41 -29 vhcurveto
            41 -29 72 -28 104 -27 104 -27 81 -30 59 -33 59 -34 43 -40 29 -45 rrcurveto
            29 -45 14 -53 -61 vvcurveto
            -98 -40 -77 -81 -56 vhcurveto
            -57 -81 -107 -28 -133 hhcurveto
            -138 -114 34 68 -91 hvcurveto
            -91 67 -46 88 108 -71 callgsubr
            return
          </CharString>
          <CharString index="63">
            rmoveto
            -170 hlineto
            -197 158 -197 -158 -169 0 301 244 rlineto
            131 hlineto
            195 229 rmoveto
            -41 -16 -37 -32 -31 vhcurveto
            -31 -32 -38 -16 -43 hhcurveto
            -36 -36 12 24 -37 hvcurveto
            23 -37 -31 12 -27 hhcurveto
            -19 -19 -8 -15 -18 hvcurveto
            -18 -15 -9 -18 -19 vvcurveto
            -77 19 rlineto
            42 16 37 32 33 vhcurveto
            33 32 37 16 43 hhcurveto
            28 35 -12 -23 41 hvcurveto
            -23 41 34 -12 25 hhcurveto
            21 19 8 15 17 hvcurveto
            17 15 9 16 19 vvcurveto
            endchar
          </CharString>
          <CharString index="64">
            rmoveto
            -58 -21 -48 -41 -39 vhcurveto
            -39 -41 -51 -20 -61 hhcurveto
            -61 -51 20 39 -41 hvcurveto
            -41 39 -21 49 57 vvcurveto
            57 21 49 41 41 vhcurveto
            41 41 51 20 61 hhcurveto
            61 52 -20 -41 41 hvcurveto
            41 -41 20 -49 -57 vvcurveto
            -331 hmoveto
            -31 11 -27 23 -23 vhcurveto
            -23 22 27 -11 33 hhcurveto
            32 27 11 22 23 hvcurveto
            23 22 11 27 33 vvcurveto
            33 -11 28 -22 23 vhcurveto
            23 -23 -27 11 -33 hhcurveto
            -33 -28 -12 -23 -22 hvcurveto
            -22 -23 -11 -28 -32 vvcurveto
            endchar
          </CharString>
          <CharString index="65">
            703 589 rmoveto
            -342 -589 -193 1456 482 hlineto
            164 126 -37 -75 89 hvcurveto
            88 -75 44 -108 -143 vvcurveto
            -91 -24 -79 -49 -67 vhcurveto
            -49 -67 -69 -51 -87 -33 342 -618 rcurveline
            -12 -206 vlineto
            -658 746 rmoveto
            295 hlineto
            95 76 25 49 57 hvcurveto
            56 49 28 66 83 vvcurveto
            90 -27 69 -53 48 vhcurveto
            -54 48 -78 24 -101 1 rrcurveto
            -294 hlineto
            return
          </CharString>
          <CharString index="66">
            rmoveto
            -170 hlineto
            -197 186 -197 -186 -169 0 272 262 rlineto
            188 hlineto
            190 -124 rmoveto
            -1 131 43 3 32 5 20 9 rlinecurve
            19 9 10 15 22 vvcurveto
            45 -47 22 -94 vhcurveto
            5 92 rlineto
            85 65 -15 -29 45 hvcurveto
            45 -29 22 -39 -49 vvcurveto
            -39 -12 -31 -25 -22 vhcurveto
            -25 -22 -32 -13 -40 -5 -1 -60 rcurveline
            endchar
          </CharString>
          <CharString index="67">
            rmoveto
            -245 vlineto
            -1 -112 -28 -85 -57 -59 rrcurveto
            -59 -57 -78 -29 -12 callsubr
            157 rlineto
            -9 20 32 -4 45 hhcurveto
            91 46 65 129 hvcurveto
            233 vlineto
            endchar
          </CharString>
          <CharString index="68">
            rmoveto
            152 hlineto
            290 -263 -197 0 -169 159 -170 -159 rlineto
            -198 hlineto
            802 436 rmoveto
            200 hlineto
            -201 -259 rlineto
            -141 hlineto
            endchar
          </CharString>
          <CharString index="69">
            rmoveto
            -197 hlineto
            -170 158 -170 -158 -196 0 290 262 rlineto
            152 hlineto
            -369 -85 rmoveto
            -140 hlineto
            -200 258 rlineto
            199 hlineto
            endchar
          </CharString>
          <CharString index="70">
            -125 -49 -96 -84 -69 rrcurveto
            -69 -84 -112 -34 -139 hhcurveto
            -149 -120 49 99 -90 hvcurveto
            -91 98 -45 135 173 vvcurveto
            94 151 callsubr
            return
          </CharString>
          <CharString index="71">
            rmoveto
            -10 -153 vlineto
            -150 170 -149 -170 rlineto
            -153 12 hlineto
            246 272 rlineto
            112 hlineto
            return
          </CharString>
          <CharString index="72">
            -69 1021 1012 rmoveto
            -399 -1012 -185 1012 -397 153 981 hlineto
            return
          </CharString>
          <CharString index="73">
            rmoveto
            -79 -40 -57 -79 -37 vhcurveto
            93 -39 46 -64 -87 vvcurveto
            -71 -27 -55 -53 -40 vhcurveto
            -41 -53 -72 -20 -91 hhcurveto
            -91 -72 20 41 -53 hvcurveto
            -53 40 -27 55 71 vvcurveto
            44 12 38 25 33 vhcurveto
            25 32 33 25 43 18 rrcurveto
            -79 37 -40 57 79 vvcurveto
            69 25 54 51 39 vhcurveto
            39 50 67 20 83 hhcurveto
            84 67 -20 -39 51 hvcurveto
            50 -39 25 -54 -69 vvcurveto
            -137 -351 rmoveto
            35 -13 27 -26 19 vhcurveto
            19 -26 -34 10 -41 hhcurveto
            -42 -33 -10 -19 -25 hvcurveto
            -25 -19 -13 -27 -35 vvcurveto
            -35 13 -28 25 -19 vhcurveto
            -19 25 34 -10 42 hhcurveto
            42 34 10 19 25 hvcurveto
            25 19 13 28 35 vvcurveto
            -140 443 rmoveto
            -37 -28 -9 -17 -21 hvcurveto
            -21 -18 -11 -25 -32 vvcurveto
            -31 11 -24 21 -19 vhcurveto
            -19 21 29 -9 37 hhcurveto
            37 30 9 19 21 hvcurveto
            21 19 10 24 31 vvcurveto
            31 -11 24 -21 19 vhcurveto
            18 -21 -30 9 -37 hhcurveto
            endchar
          </CharString>
          <CharString index="74">
            275 1272 -17 callsubr
            -114 -101 28 56 -89 hvcurveto
            -89 56 -69 81 -49 106 -50 106 -25 122 -1 138 rrcurveto
            100 111 callsubr
            82 89 57 rrcurveto
            57 89 101 29 115 hhcurveto
            160 132 -52 -103 103 hvcurveto
            64 5 48 24 31 44 rrcurveto
            31 43 15 66 88 vvcurveto
            167 hlineto
            -222 -88 -131 -175 -41 vhcurveto
            65 -115 32 -139 1 -164 rrcurveto
            -190 -4 rmoveto
            172 -34 132 -69 93 vhcurveto
            93 -69 -98 46 -126 hhcurveto
            -121 -96 -31 callgsubr
            -132 71 -95 vhcurveto
            -96 70 97 -48 123 hhcurveto
            127 98 47 94 68 hvcurveto
            67 94 34 133 171 vvcurveto
            return
          </CharString>
          <CharString index="75">
            264 1244 191 rmoveto
            -49 -71 -69 -52 -88 -35 rrcurveto
            -35 -89 -103 -18 -117 hhcurveto
            -119 -105 28 56 -92 hvcurveto
            -92 55 -71 79 -50 103 -51 103 -26 119 -1 135 rrcurveto
            127 vlineto
            219 51 170 103 121 vhcurveto
            121 102 144 60 185 hhcurveto
            152 122 -39 -77 93 hvcurveto
            93 -78 56 -110 21 -143 rrcurveto
            -192 hlineto
            193 -36 -115 96 -193 hhcurveto
            -129 -97 -45 -90 -66 hvcurveto
            -67 -91 -33 -131 -1 -171 rrcurveto
            -119 vlineto
            -163 37 -130 75 -96 vhcurveto
            -97 75 101 -48 127 hhcurveto
            72 63 8 16 54 hvcurveto
            54 16 45 27 35 38 rrcurveto
            327 -337 156 528 vlineto
            return
          </CharString>
          <CharString index="76">
            18 96 550 rmoveto
            169 39 134 78 100 vhcurveto
            99 78 103 50 129 hhcurveto
            132 103 -47 -93 74 hvcurveto
            9 120 rlineto
            169 -1056 hlineto
            -140 -41 -110 -83 -81 vhcurveto
            -81 -83 -112 -40 -140 hhcurveto
            -78 -76 17 33 -75 hvcurveto
            -75 33 -57 46 -39 58 96 111 rcurveline
            -98 79 97 -49 115 hhcurveto
            90 70 25 51 51 hvcurveto
            50 51 25 71 92 vvcurveto
            93 -28 callgsubr
            139 176 vvcurveto
            186 -21 rmoveto
            -122 25 -96 50 -69 vhcurveto
            -70 50 70 -35 90 hhcurveto
            117 85 53 106 55 hvcurveto
            494 vlineto
            103 -57 -85 52 -113 hhcurveto
            -90 -70 -35 -70 -51 hvcurveto
            -51 -70 -25 -104 -137 vvcurveto
            return
          </CharString>
          <CharString index="77">
            293 1194 1456 rmoveto
            -213 vlineto
            77 7 54 27 33 46 rrcurveto
            32 45 16 72 98 vvcurveto
            159 hlineto
            -140 -29 -105 -59 -69 vhcurveto
            -59 -70 -95 -39 -129 -8 rrcurveto
            -642 vlineto
            -1 -133 -41 -109 -81 -87 -81 -87 -111 -50 -141 -15 -73 -4 rcurveline
            165 callsubr
            return
          </CharString>
          <CharString index="78">
            138 114 -46 -92 91 hvcurveto
            47 5 35 20 21 33 rrcurveto
            21 33 11 60 85 vvcurveto
            150 hlineto
            -194 -69 -114 -138 -34 vhcurveto
            49 -92 24 -102 -113 vvcurveto
            -22 vlineto
            92 callsubr
            29 callsubr
            185 -9 110 callsubr
            94 14 callgsubr
            16 vlineto
            121 -28 96 -56 73 vhcurveto
            73 -57 -74 36 -93 16 callgsubr
            return
          </CharString>
          <CharString index="79">
            686 483 459 rmoveto
            28 -192 41 173 288 1016 162 0 281 -1016 40 -176 31 196 226 996 193 0 -353 -1456 -175 0 -300 1061 -23 111 -23 -111 -311 -1061 -175 0 -352 1456 rlineto
            192 hlineto
            return
          </CharString>
          <CharString index="80">
            136 1295 1168 rmoveto
            -120 -24 -84 -49 -49 vhcurveto
            -49 -49 -78 -26 -107 -3 rrcurveto
            -837 -176 vlineto
            -4 107 rlineto
            -85 -72 -106 -42 73 callsubr
            -131 vlineto
            45 1 34 7 23 12 23 11 16 18 10 24 rrcurveto
            9 24 5 48 72 vvcurveto
            return
          </CharString>
          <CharString index="81">
            417 1456 rmoveto
            476 -1188 476 1188 rlineto
            249 -1456 -192 567 hlineto
            18 612 -478 -1179 -147 0 -477 1176 19 -609 rlineto
            -567 -192 1456 vlineto
            return
          </CharString>
          <CharString index="82">
            rmoveto
            -63 -28 -51 -56 -38 vhcurveto
            -38 -56 -73 -19 -90 hhcurveto
            -91 -73 19 38 -56 hvcurveto
            -56 38 -28 51 63 vvcurveto
            152 hlineto
            -37 13 -28 27 -20 vhcurveto
            -21 26 37 -10 49 hhcurveto
            47 37 11 21 27 hvcurveto
            26 21 13 28 35 vvcurveto
            return
          </CharString>
          <CharString index="83">
            408 1098 255 rmoveto
            208 827 185 0 -315 -1082 -150 0 -263 820 -256 -820 -150 0 -314 1082 184 0 213 -810 252 810 rlineto
            149 hlineto
            return
          </CharString>
          <CharString index="84">
            -438 663 916 rmoveto
            5 -28 -30 2 -33 hhcurveto
            -121 -83 -52 -103 -43 hvcurveto
            -768 -185 1082 180 vlineto
            3 -125 rlineto
            97 61 86 48 111 hhcurveto
            36 27 -5 -9 19 hvcurveto
            return
          </CharString>
          <CharString index="85">
            153 539 677 rmoveto
            -178 -185 rlineto
            -492 -6 callsubr
            -720 vlineto
            647 720 232 0 -573 -643 618 -813 rlineto
            -230 hlineto
            return
          </CharString>
          <CharString index="86">
            101 82 107 50 131 hhcurveto
            229 115 -129 -258 2 hvcurveto
            -715 -185 716 vlineto
            -1 78 -17 58 -35 37 rrcurveto
            37 -35 -55 19 -74 93 callsubr
            return
          </CharString>
          <CharString index="87">
            95 550 rmoveto
            -54 callgsubr
            564 185 -1536 -170 vlineto
            -65 callgsubr
            185 -7 171 callsubr
            return
          </CharString>
          <CharString index="88">
            95 313 157 rmoveto
            833 -157 -1060 144 hlineto
            798 1154 rlineto
            -785 158 1015 -141 hlineto
            return
          </CharString>
          <CharString index="89">
            840 1082 rmoveto
            185 -1082 -185 789 hlineto
            -499 -789 rlineto
            -185 1082 185 -790 hlineto
            return
          </CharString>
          <CharString index="90">
            681 rmoveto
            -143 -24 -124 -48 -106 vhcurveto
            -48 -107 -68 -81 -88 -56 rrcurveto
            -56 -88 -103 -28 -117 hhcurveto
            return
          </CharString>
          <CharString index="91">
            -29 362 157 rmoveto
            690 -157 -883 1456 193 hlineto
            return
          </CharString>
          <CharString index="92">
            147 rlineto
            -9 20 32 -4 45 hhcurveto
            43 34 17 35 24 hvcurveto
            return
          </CharString>
          <CharString index="93">
            -1171 vlineto
            -113 -28 -87 -57 -59 vhcurveto
            -59 -57 return
          </CharString>
          <CharString index="94">
            120 1112 hmoveto
            -69 callgsubr
            return
          </CharString>
          <CharString index="95">
            -101 hhcurveto
            -39 -37 6 12 -35 hvcurveto
            14 return
          </CharString>
          <CharString index="96">
            hmoveto
            939 -171 143 171 return
          </CharString>
          <CharString index="97">
            rmoveto
            -636 151 636 hlineto
            endchar
          </CharString>
          <CharString index="98">
            -1441 -78 callsubr
          </CharString>
          <CharString index="99">
            -1815 -78 callsubr
          </CharString>
          <CharString index="100">
            hmoveto
            -185 1082 185 hlineto
            return
          </CharString>
          <CharString index="101">
            -192 1456 192 return
          </CharString>
          <CharString index="102">
            65 1077 150 rmoveto
            -44 -55 -61 -42 -77 -27 rrcurveto
            -28 -78 -89 -14 -101 hhcurveto
            -159 -127 50 99 -96 hvcurveto
            -96 99 -49 134 -1 168 rrcurveto
            90 vlineto
            175 45 136 89 99 vhcurveto
            98 89 125 49 161 hhcurveto
            133 107 -31 -63 81 hvcurveto
            81 -63 49 -91 18 -121 rrcurveto
            -184 hlineto
            145 -25 -95 72 -163 hhcurveto
            -106 -81 -34 -69 -55 hvcurveto
            -55 -69 -28 -100 -133 vvcurveto
            -84 vlineto
            -127 31 -99 62 -71 vhcurveto
            -72 61 84 -36 107 hhcurveto
            121 88 25 49 54 hvcurveto
            238 -281 144 465 vlineto
            return
          </CharString>
          <CharString index="103">
            156 669 611 rmoveto
            335 845 223 0 -515 -1213 rlineto
            -35 -77 -32 -55 -30 -32 -30 -33 -35 -24 -40 -17 rrcurveto
            -17 -41 -50 -9 -61 hhcurveto
            -53 -33 3 6 -15 hvcurveto
            6 152 91 -4 rlineto
            70 52 34 67 34 hvcurveto
            25 52 38 89 -496 1078 rlineto
            215 hlineto
            return
          </CharString>
          <CharString index="104">
            426 431 294 rmoveto
            11 -80 15 64 248 887 165 0 244 -890 13 -59 12 80 198 869 184 0 -298 -1165 -174 0 -260 917 -1 5 -1 -5 -268 -917 -173 0 -297 1165 rlineto
            183 hlineto
            return
          </CharString>
          <CharString index="105">
            rmoveto
            -81 -27 -64 -55 -49 vhcurveto
            -49 -55 -73 -25 -89 hhcurveto
            -89 -73 25 49 -55 hvcurveto
            -55 49 -28 65 80 vvcurveto
            151 hlineto
            -47 13 -36 25 -26 vhcurveto
            -27 25 37 -13 49 hhcurveto
            47 36 13 26 27 hvcurveto
            26 26 13 37 47 vvcurveto
            return
          </CharString>
          <CharString index="106">
            111 vlineto
            116 31 90 62 63 vhcurveto
            63 62 88 32 113 hhcurveto
            43 42 -6 -11 42 hvcurveto
            -10 -150 rlineto
            6 -31 -34 3 -35 hhcurveto
            -60 -46 -17 -35 -33 hvcurveto
            -33 -35 -16 -51 -65 vvcurveto
            -114 return
          </CharString>
          <CharString index="107">
            362 hlineto
            152 -2 119 -39 85 -76 rrcurveto
            85 -76 43 -103 -131 vvcurveto
            -131 -43 -105 -86 -78 vhcurveto
            -86 -78 -117 -40 -149 -3 rrcurveto
            -557 return
          </CharString>
          <CharString index="108">
            -116 314 151 rmoveto
            633 -151 -859 136 hlineto
            597 793 rlineto
            -588 153 820 -131 hlineto
            return
          </CharString>
          <CharString index="109">
            -72 303 151 rmoveto
            689 -151 -921 124 hlineto
            664 888 rlineto
            -655 153 888 -121 hlineto
            return
          </CharString>
          <CharString index="110">
            -183 323 151 rmoveto
            584 -151 -769 1165 185 hlineto
            return
          </CharString>
          <CharString index="111">
            -671 -99 callgsubr
            671 -197 143 197 262 vlineto
            return
          </CharString>
          <CharString index="112">
            -20 19 hvcurveto
            19 -21 9 -25 -30 vvcurveto
            -30 -9 -25 -19 return
          </CharString>
          <CharString index="113">
            -1298 -193 1456 895 hlineto
            return
          </CharString>
          <CharString index="114">
            27 10 36 hhcurveto
            36 27 -10 -20 19 hvcurveto
            return
          </CharString>
          <CharString index="115">
            1072 1298 rmoveto
            -702 return
          </CharString>
          <CharString index="116">
            rmoveto
            56 19 45 39 35 vhcurveto
            35 return
          </CharString>
          <CharString index="117">
            rmoveto
            189 hlineto
            -220 -184 rlineto
            -114 hlineto
            -130 -215 39 callsubr
            41 16 48 hhcurveto
            45 40 -16 -31 33 hvcurveto
            33 -31 16 -40 -49 vvcurveto
            -47 -16 -39 -32 -31 vhcurveto
            -31 -33 -39 -15 -47 hhcurveto
            -48 -41 16 31 -33 hvcurveto
            -33 31 -17 39 46 vvcurveto
            85 hmoveto
            -23 9 -20 17 -17 vhcurveto
            -17 17 20 -8 24 hhcurveto
            23 20 8 17 16 hvcurveto
            16 16 8 20 24 vvcurveto
            25 -8 21 -16 17 vhcurveto
            17 -16 -20 8 -23 hhcurveto
            -25 -20 -9 -17 -17 hvcurveto
            -17 -17 -8 -21 -24 vvcurveto
            endchar
          </CharString>
          <CharString index="118">
            21 138 hmoveto
            1165 361 vlineto
            108 96 -22 -44 84 hvcurveto
            83 -45 65 -63 47 -82 47 -82 24 -94 2 -106 rrcurveto
            -77 vlineto
            -168 -52 -134 -103 -99 vhcurveto
            -99 -104 -140 -50 -175 hhcurveto
            -158 1012 rmoveto
            -861 164 vlineto
            124 95 35 69 66 hvcurveto
            66 69 33 99 128 vvcurveto
            64 vlineto
            128 -31 98 -63 69 vhcurveto
            68 -63 -93 34 -122 hhcurveto
            return
          </CharString>
          <CharString index="119">
            -14 329 1082 rmoveto
            -647 vlineto
            -203 67 -102 134 86 71 42 83 57 vhcurveto
            57 83 28 103 121 vvcurveto
            -3 154 -41 173 -79 193 rrcurveto
            195 hlineto
            75 -161 38 -173 -186 vvcurveto
            -175 -43 -141 -85 -106 vhcurveto
            -107 -86 -116 -53 -145 hhcurveto
            -129 -98 37 75 -67 hvcurveto
            -67 75 -34 109 -1 143 rrcurveto
            663 vlineto
            return
          </CharString>
          <CharString index="120">
            -33 602 449 rmoveto
            -279 -449 -185 1165 426 hlineto
            142 110 -31 -62 77 hvcurveto
            77 -62 38 -88 -113 vvcurveto
            -152 -78 -106 -157 -59 vhcurveto
            288 -482 rlineto
            -10 -198 vlineto
            -540 600 rmoveto
            246 hlineto
            78 62 18 37 46 hvcurveto
            45 36 23 49 62 vvcurveto
            67 -22 51 -45 37 vhcurveto
            37 -45 -64 18 -84 hhcurveto
            -240 hlineto
            return
          </CharString>
          <CharString index="121">
            1224 1456 rmoveto
            -1456 -193 603 vlineto
            -70 -20 -64 -14 -57 -7 rrcurveto
            -8 -57 -66 -4 -73 hhcurveto
            -166 -123 36 72 -81 hvcurveto
            -81 72 -41 110 -2 149 rrcurveto
            467 193 -462 vlineto
            1 -101 23 -73 46 -45 rrcurveto
            -45 45 77 -22 109 hhcurveto
            127 129 18 36 131 hvcurveto
            694 vlineto
            return
          </CharString>
          <CharString index="122">
            1192 664 rmoveto
            -156 -664 -192 664 -165 hlineto
            -412 -664 -240 0 490 768 -452 688 227 0 387 -632 rlineto
            165 632 192 -632 158 hlineto
            387 632 226 0 -452 -687 490 -769 rlineto
            -239 hlineto
            return
          </CharString>
          <CharString index="123">
            1003 470 rmoveto
            -130 -470 -185 470 -130 hlineto
            -303 -470 -234 0 387 560 -350 522 224 0 279 -448 rlineto
            127 448 185 -448 126 hlineto
            281 448 224 0 -351 -523 387 -559 rlineto
            -234 hlineto
            return
          </CharString>
          <CharString index="124">
            957 hmoveto
            -186 392 hlineto
            -21 -81 -84 -11 -85 hhcurveto
            -135 -103 35 69 -71 hvcurveto
            -71 69 -37 99 -1 128 rrcurveto
            323 185 -329 vlineto
            -161 3 78 -81 152 hhcurveto
            85 84 11 21 81 hvcurveto
            538 186 vlineto
            return
          </CharString>
          <CharString index="125">
            rmoveto
            -142 -24 -124 -47 -106 vhcurveto
            -48 -106 -68 -81 -88 -57 rrcurveto
            -57 -88 -103 -28 -118 hhcurveto
            -96 callsubr
            102 -28 -56 88 hvcurveto
            88 -56 68 -80 49 -105 48 -105 25 -122 1 -138 rrcurveto
            return
          </CharString>
          <CharString index="126">
            212 169 hmoveto
            1456 70 callsubr
            -211 1298 rmoveto
            -1141 202 vlineto
            148 115 46 92 83 hvcurveto
            82 92 41 131 170 vvcurveto
            85 -29 callgsubr
            return
          </CharString>
          <CharString index="127">
            -93 442 501 rmoveto
            -116 -121 rlineto
            -380 -185 1536 185 -929 vlineto
            99 119 337 356 225 0 -421 -452 470 -630 rlineto
            -217 hlineto
            return
          </CharString>
          <CharString index="128">
            -23 470 519 rmoveto
            -147 -142 rlineto
            -377 -58 callsubr
            -555 vlineto
            130 144 397 411 227 0 -479 -519 513 -646 rlineto
            -225 hlineto
            return
          </CharString>
          <CharString index="129">
            rmoveto
            107 -130 -107 -169 -157 169 -375 hlineto
            -6 102 377 518 rlineto
            161 hlineto
            -380 -490 rmoveto
            223 289 hlineto
            -17 -28 rlineto
            endchar
          </CharString>
          <CharString index="130">
            503 687 rmoveto
            240 395 216 0 -354 -535 365 -547 3 callgsubr
            365 547 -354 535 rlineto
            214 hlineto
            return
          </CharString>
          <CharString index="131">
            -468 380 1082 rmoveto
            -809 vlineto
            -42 9 -32 19 -21 vhcurveto
            -21 18 30 -11 43 hhcurveto
            -57 callgsubr
            800 vlineto
            return
          </CharString>
          <CharString index="132">
            -139 497 251 rmoveto
            268 831 189 0 -388 -1082 -141 0 -392 1082 rlineto
            189 hlineto
            return
          </CharString>
          <CharString index="133">
            529 rmoveto
            -165 -38 -132 -75 -101 vhcurveto
            -101 -75 -102 -50 -129 hhcurveto
            -131 -104 42 83 -75 hvcurveto
            -521 -185 return
          </CharString>
          <CharString index="134">
            141 116 -48 -95 90 hvcurveto
            90 -95 49 -124 7 -153 1 -58 rcurveline
            92 callsubr
            return
          </CharString>
          <CharString index="135">
            1498 169 vlineto
            9 -120 rlineto
            93 75 105 47 134 -97 callgsubr
            return
          </CharString>
          <CharString index="136">
            -148 -119 51 103 -90 hvcurveto
            -91 102 -45 135 167 vvcurveto
            return
          </CharString>
          <CharString index="137">
            552 730 rmoveto
            287 435 220 0 -395 -578 return
          </CharString>
          <CharString index="138">
            hhcurveto
            121 101 -36 -73 81 hvcurveto
            80 -73 43 -94 5 -116 rrcurveto
            return
          </CharString>
          <CharString index="139">
            525 543 rmoveto
            -488 151 488 hlineto
            endchar
          </CharString>
          <CharString index="140">
            rmoveto
            -49 -16 -42 -32 -35 vhcurveto
            -35 -32 -39 -18 -47 hhcurveto
            return
          </CharString>
          <CharString index="141">
            33 -9 25 -17 17 vhcurveto
            17 -18 -24 9 -31 hhcurveto
            return
          </CharString>
          <CharString index="142">
            -461 -186 1082 186 -458 return
          </CharString>
          <CharString index="143">
            -185 498 -604 -498 -185 return
          </CharString>
          <CharString index="144">
            654 rmoveto
            -177 -654 -192 return
          </CharString>
          <CharString index="145">
            -17 -17 hvcurveto
            -17 -18 -9 -25 -32 vvcurveto
            return
          </CharString>
          <CharString index="146">
            rmoveto
            47 17 39 33 33 vhcurveto
            32 33 return
          </CharString>
          <CharString index="147">
            rmoveto
            -53 15 -43 29 -33 vhcurveto
            -34 29 return
          </CharString>
          <CharString index="148">
            341 hmoveto
            -46 callsubr
            return
          </CharString>
          <CharString index="149">
            598 1262 -20 rmoveto
            -174 -132 60 120 -91 hvcurveto
            -43 -57 -60 -45 -75 -31 rrcurveto
            -31 -75 -85 -16 -94 hhcurveto
            -111 -87 29 58 -63 hvcurveto
            -63 57 -31 79 101 vvcurveto
            105 38 81 76 58 vhcurveto
            58 75 112 29 147 hhcurveto
            223 85 hlineto
            71 -18 57 -37 41 vhcurveto
            41 -37 -53 20 -69 hhcurveto
            -70 -58 -18 -37 -47 hvcurveto
            -47 -37 -23 -45 -54 vvcurveto
            -184 19 rlineto
            95 40 78 81 61 vhcurveto
            60 81 102 30 125 hhcurveto
            77 67 -14 -27 59 hvcurveto
            59 -28 46 -42 33 -55 42 53 50 41 58 29 rrcurveto
            29 58 64 14 70 hhcurveto
            140 109 -43 -85 77 hvcurveto
            77 -86 39 -121 -155 vvcurveto
            -115 -728 vlineto
            5 -117 31 -91 58 -63 rrcurveto
            -64 58 79 -32 99 hhcurveto
            99 89 25 51 81 hvcurveto
            47 31 64 -136 rlineto
            -81 -105 -127 -40 -148 hhcurveto
            -793 150 rmoveto
            48 50 12 25 53 hvcurveto
            53 25 43 30 33 36 rrcurveto
            237 -228 vlineto
            -78 -1 -62 -19 -47 -37 rrcurveto
            -47 -37 -23 -46 -55 vvcurveto
            -51 18 -41 35 -31 vhcurveto
            -31 35 51 -16 66 hhcurveto
            749 820 rmoveto
            -77 -63 -28 -57 -49 hvcurveto
            -50 -57 -31 -75 -11 -93 rrcurveto
            538 31 hlineto
            88 -22 69 -45 49 vhcurveto
            49 -45 -63 24 -82 hhcurveto
            return
          </CharString>
          <CharString index="150">
            1076 rmoveto
            -73 -19 -64 -38 -57 vhcurveto
            -39 -57 -52 -44 -65 -32 76 -33 60 -47 45 -63 rrcurveto
            44 -63 22 -71 -79 vvcurveto
            -126 -42 -100 -85 -75 vhcurveto
            -75 -85 -112 -37 -139 hhcurveto
            -140 -112 38 75 -84 hvcurveto
            -85 75 -42 100 125 vvcurveto
            79 22 71 43 63 vhcurveto
            43 63 59 48 76 33 -65 32 -51 44 -37 57 rrcurveto
            -37 57 -19 64 72 vvcurveto
            123 39 97 79 72 vhcurveto
            72 79 103 36 129 hhcurveto
            128 104 -36 -72 79 hvcurveto
            79 -72 39 -97 -123 vvcurveto
            -151 -679 rmoveto
            81 -26 67 -51 51 vhcurveto
            51 -52 -68 26 -83 hhcurveto
            -83 -67 -25 -51 -50 hvcurveto
            -51 -51 -25 -66 -83 vvcurveto
            -83 25 -65 49 -47 vhcurveto
            -47 49 68 -24 87 hhcurveto
            87 68 24 48 49 hvcurveto
            49 47 25 65 82 vvcurveto
            -278 927 rmoveto
            -73 -58 -22 -45 -45 hvcurveto
            -45 -45 -23 -62 -77 vvcurveto
            -74 22 -60 45 -45 vhcurveto
            -46 44 59 -23 74 hhcurveto
            74 59 23 46 45 hvcurveto
            44 45 22 60 74 vvcurveto
            74 -23 60 -46 47 vhcurveto
            47 -46 -58 23 -71 hhcurveto
            endchar
          </CharString>
          <CharString index="151">
            84 916 1065 rmoveto
            77 -28 62 -56 46 vhcurveto
            45 -57 -79 23 -102 hhcurveto
            -85 -72 -23 -47 -57 hvcurveto
            -58 -47 -29 -59 -69 vvcurveto
            -192 hlineto
            77 21 70 43 61 vhcurveto
            42 61 59 48 76 35 rrcurveto
            34 76 84 17 92 hhcurveto
            163 126 -36 -73 90 hvcurveto
            90 -73 45 -102 -130 vvcurveto
            -67 -21 -62 -41 -55 vhcurveto
            -41 -55 -58 -44 -74 -32 rrcurveto
            171 -57 86 -114 -170 vvcurveto
            -131 -49 -103 -97 -77 vhcurveto
            -77 -97 -130 -38 -163 hhcurveto
            -97 -87 17 35 -79 hvcurveto
            -79 34 -62 49 -44 63 rrcurveto
            -44 63 -22 76 87 vvcurveto
            192 hlineto
            -77 30 -63 61 -51 vhcurveto
            -51 61 77 -26 93 hhcurveto
            105 83 24 49 63 hvcurveto
            62 49 31 64 80 vvcurveto
            171 -106 87 -211 3 vhcurveto
            -180 158 179 hlineto
            97 2 74 22 50 42 rrcurveto
            50 42 25 59 77 vvcurveto
            return
          </CharString>
          <CharString index="152">
            1457 rmoveto
            -157 -34 vlineto
            -144 -3 -115 -42 -85 -83 -85 -83 -50 -116 -13 -150 rrcurveto
            88 77 104 44 133 hhcurveto
            127 101 -45 -89 76 hvcurveto
            75 -89 38 -116 -141 vvcurveto
            -150 -41 -120 -81 -90 vhcurveto
            -90 -82 -110 -45 -137 hhcurveto
            -139 -113 54 107 -87 hvcurveto
            -87 107 -43 137 169 vvcurveto
            71 vlineto
            268 57 205 115 142 vhcurveto
            114 141 170 73 226 3 rrcurveto
            -210 -656 rmoveto
            -63 -59 -19 -38 -53 hvcurveto
            -53 -38 -37 -48 -21 -57 rrcurveto
            -68 vlineto
            -120 27 -97 54 -73 vhcurveto
            -73 54 67 -37 81 hhcurveto
            83 66 31 61 48 hvcurveto
            47 61 24 81 99 vvcurveto
            100 -24 81 -48 62 vhcurveto
            61 -49 -64 31 -80 hhcurveto
            endchar
          </CharString>
          <CharString index="153">
            -91 735 786 rmoveto
            51 -19 40 -39 30 vhcurveto
            29 -39 -53 15 -67 hhcurveto
            -65 -55 -17 -34 -43 hvcurveto
            -44 -34 -22 -40 -46 vvcurveto
            -184 hlineto
            94 39 77 79 60 vhcurveto
            60 79 98 30 118 hhcurveto
            127 98 -27 -54 71 hvcurveto
            71 -55 35 -77 -101 vvcurveto
            -49 -15 -44 -29 -41 vhcurveto
            -29 -41 -42 -32 -54 -24 rrcurveto
            126 -43 63 -84 -125 vvcurveto
            -99 -38 -79 -77 -58 vhcurveto
            -58 -77 -102 -29 -128 hhcurveto
            -125 -102 31 61 -81 hvcurveto
            -81 61 -41 82 104 vvcurveto
            184 hlineto
            -53 24 -45 47 -37 vhcurveto
            -38 47 58 -19 70 hhcurveto
            71 57 16 33 43 hvcurveto
            43 33 22 42 52 vvcurveto
            61 -18 43 -36 27 vhcurveto
            26 -37 -56 13 -77 hhcurveto
            -185 156 201 hlineto
            126 3 63 52 101 vvcurveto
            return
          </CharString>
          <CharString index="154">
            rmoveto
            84 hlineto
            49 37 10 21 24 hvcurveto
            24 20 12 26 32 vvcurveto
            30 -10 25 -21 19 vhcurveto
            19 -21 -34 10 -47 hhcurveto
            -38 -31 -8 -17 -25 hvcurveto
            -25 -17 -13 -23 -27 vvcurveto
            -157 hlineto
            65 27 54 55 41 vhcurveto
            41 54 68 20 83 hhcurveto
            91 72 -20 -40 52 hvcurveto
            52 -41 26 -55 -69 vvcurveto
            -37 -12 -33 -23 -30 vhcurveto
            -23 -31 -34 -23 -44 -17 rrcurveto
            99 -27 50 -62 -95 vvcurveto
            -71 -28 -56 -57 -41 vhcurveto
            -42 -57 -73 -21 -91 hhcurveto
            -88 -72 21 42 -55 hvcurveto
            -55 42 -28 57 71 vvcurveto
            158 hlineto
            -30 13 -25 27 -20 vhcurveto
            -20 26 35 -10 45 hhcurveto
            47 35 10 20 25 hvcurveto
            24 20 12 27 34 vvcurveto
            75 -52 39 -104 1 vhcurveto
            -88 hlineto
            endchar
          </CharString>
          <CharString index="155">
            169 hmoveto
            1456 476 vlineto
            158 119 -33 -65 80 hvcurveto
            79 -65 40 -97 -128 vvcurveto
            -68 -19 -60 -39 -52 vhcurveto
            -39 -53 -52 -40 -67 -29 79 -22 62 -42 46 -61 rrcurveto
            45 -62 23 -74 -85 vvcurveto
            -131 -42 -102 -85 -75 vhcurveto
            -75 -85 -119 -37 -155 hhcurveto
            -313 681 rmoveto
            -524 317 vlineto
            89 71 23 47 52 hvcurveto
            51 46 26 64 81 vvcurveto
            175 -95 88 -191 vhcurveto
            -320 154 rmoveto
            290 hlineto
            84 67 21 42 51 hvcurveto
            50 42 25 57 72 vvcurveto
            80 -23 58 -47 37 vhcurveto
            36 -47 -71 18 -95 hhcurveto
            -284 hlineto
            endchar
          </CharString>
          <CharString index="156">
            138 hmoveto
            1165 406 vlineto
            139 107 -27 -54 74 hvcurveto
            74 -55 37 -79 -103 vvcurveto
            -54 -16 -48 -31 -42 vhcurveto
            -32 -42 -45 -32 -59 -22 66 -16 52 -33 39 -49 rrcurveto
            39 -50 19 -59 -67 vvcurveto
            -105 -36 -82 -73 -58 vhcurveto
            -73 -58 -103 -29 -134 -1 rrcurveto
            -265 530 rmoveto
            -379 262 vlineto
            77 58 16 33 41 hvcurveto
            41 33 20 44 57 vvcurveto
            131 -78 65 -157 vhcurveto
            -264 141 rmoveto
            234 hlineto
            72 57 14 29 41 hvcurveto
            41 28 21 42 55 vvcurveto
            112 -76 58 -153 3 vhcurveto
            -237 hlineto
            endchar
          </CharString>
          <CharString index="157">
            664 314 1082 rmoveto
            5 -120 rlineto
            93 79 107 47 135 hhcurveto
            151 103 -58 -116 55 hvcurveto
            36 52 47 42 58 32 rrcurveto
            32 57 68 16 79 hhcurveto
            237 121 -126 -251 4 hvcurveto
            -725 -185 714 vlineto
            77 -18 58 -35 39 vhcurveto
            38 -35 -60 19 -83 hhcurveto
            -69 -57 -20 -41 -45 hvcurveto
            -45 -41 -27 -56 -7 -69 rrcurveto
            -718 -186 709 vlineto
            157 -77 79 -154 -121 -83 -52 -103 -45 vhcurveto
            -790 -185 1082 vlineto
            return
          </CharString>
          <CharString index="158">
            rmoveto
            -63 -27 -50 -53 -38 vhcurveto
            -38 -54 -71 -19 -87 hhcurveto
            -88 -71 19 39 -53 hvcurveto
            -54 38 -27 50 62 vvcurveto
            146 hlineto
            -35 12 -28 25 -21 vhcurveto
            -21 25 36 -10 49 hhcurveto
            46 36 10 21 25 hvcurveto
            25 20 13 28 36 vvcurveto
            -201 17 rmoveto
            -1 124 49 3 36 5 22 8 rlinecurve
            22 8 11 14 19 vvcurveto
            39 -53 20 -107 vhcurveto
            7 82 rlineto
            96 73 -13 -26 49 hvcurveto
            49 -26 25 -35 -44 vvcurveto
            -33 -13 -27 -27 -19 vhcurveto
            -27 -20 -37 -12 -45 -5 -1 -62 rcurveline
            endchar
          </CharString>
          <CharString index="159">
            rmoveto
            -63 -27 -52 -53 -39 vhcurveto
            -39 -54 -72 -20 -89 hhcurveto
            -90 -72 20 39 -53 hvcurveto
            -54 39 -27 52 63 vvcurveto
            150 hlineto
            -36 12 -29 25 -21 vhcurveto
            -21 25 36 -11 48 hhcurveto
            47 36 11 21 25 hvcurveto
            25 21 12 29 36 vvcurveto
            141 266 33 callsubr
            -39 -39 13 25 -39 hvcurveto
            25 -40 -35 12 -29 hhcurveto
            -23 -19 -8 -17 -16 hvcurveto
            -16 -17 -8 -22 -25 vvcurveto
            -83 21 rlineto
            50 16 43 32 36 vhcurveto
            35 32 39 18 46 hhcurveto
            32 -58 callgsubr
            endchar
          </CharString>
          <CharString index="160">
            42 16 49 hhcurveto
            47 40 -16 -32 33 hvcurveto
            33 -32 16 -40 -47 vvcurveto
            -47 -16 -38 -32 -31 vhcurveto
            -31 -32 -40 -16 -49 hhcurveto
            -51 -41 16 31 -33 hvcurveto
            -33 31 -16 39 46 vvcurveto
            87 hmoveto
            -23 9 -20 17 -16 vhcurveto
            -16 17 21 -8 23 hhcurveto
            23 20 8 16 16 hvcurveto
            16 16 8 20 23 vvcurveto
            24 -8 20 -16 17 vhcurveto
            17 -16 -20 8 -23 hhcurveto
            -25 -20 -9 -17 -17 hvcurveto
            -17 -17 -8 -20 -23 vvcurveto
            endchar
          </CharString>
          <CharString index="161">
            rmoveto
            -1207 vlineto
            -208 -94 -104 -189 -41 -37 6 12 -35 vhcurveto
            148 vlineto
            -5 21 28 -3 35 hhcurveto
            41 32 11 23 22 hvcurveto
            21 22 11 39 55 vvcurveto
            1211 vlineto
            -19 287 rmoveto
            29 9 26 19 21 vhcurveto
            21 18 27 10 35 hhcurveto
            36 27 -10 -21 19 hvcurveto
            19 -21 9 -25 -30 vvcurveto
            -30 -9 -25 -19 13 callgsubr
            -18 20 -9 25 30 vvcurveto
            endchar
          </CharString>
          <CharString index="162">
            -599 108 hlineto
            300 282 rlineto
            73 68 36 57 46 vvcurveto
            33 -11 26 -21 21 vhcurveto
            20 -21 -31 10 -40 hhcurveto
            -50 -37 -13 -25 -23 hvcurveto
            -24 -25 -12 -32 -38 vvcurveto
            -157 hlineto
            76 28 63 56 49 vhcurveto
            49 55 72 25 88 hhcurveto
            88 70 -21 -42 51 hvcurveto
            51 -43 26 -58 -73 vvcurveto
            -69 -36 -71 -71 -71 vhcurveto
            -84 -79 -176 -145 rlineto
            399 hlineto
            endchar
          </CharString>
          <CharString index="163">
            361 570 rmoveto
            -570 -192 1456 537 vlineto
            159 125 -41 -81 91 hvcurveto
            90 -81 45 -108 -134 vvcurveto
            -141 -44 -109 -88 -76 vhcurveto
            -77 -89 -126 -38 -165 hhcurveto
            -343 157 rmoveto
            345 hlineto
            103 78 24 49 55 hvcurveto
            55 48 27 70 91 vvcurveto
            87 -27 69 -55 52 vhcurveto
            -55 52 -75 27 -95 2 rrcurveto
            -356 hlineto
            endchar
          </CharString>
          <CharString index="164">
            323 438 rmoveto
            -438 -185 1165 467 vlineto
            136 108 -33 -66 81 hvcurveto
            81 -67 40 -89 -112 vvcurveto
            -113 -39 -89 -78 -63 vhcurveto
            -63 -78 -110 -32 -143 hhcurveto
            -280 152 rmoveto
            282 hlineto
            83 64 18 35 45 hvcurveto
            45 35 23 51 67 vvcurveto
            64 -23 52 -45 40 vhcurveto
            -45 39 -63 20 -79 1 rrcurveto
            -287 hlineto
            endchar
          </CharString>
          <CharString index="165">
            -586 525 rmoveto
            -121 -96 -46 -91 -69 hvcurveto
            -69 -92 -36 -127 -3 -161 rrcurveto
            788 hlineto
            -3 165 -35 128 -69 90 rrcurveto
            89 -69 -95 45 -123 hhcurveto
            2 -1168 rmoveto
            121 95 43 85 67 hvcurveto
            67 85 37 124 5 163 rrcurveto
            -788 hlineto
            5 -157 38 -123 71 -88 rrcurveto
            -88 70 94 -44 118 hhcurveto
            return
          </CharString>
          <CharString index="166">
            -35 -37 11 22 -37 hvcurveto
            -38 22 -25 13 -11 3 rrcurveto
            3 -11 -13 1 -13 hhcurveto
            -23 -20 -8 -17 -15 hvcurveto
            -16 -17 -8 -22 -25 vvcurveto
            -84 21 rlineto
            50 16 43 32 36 vhcurveto
            35 32 39 18 47 hhcurveto
            31 -58 callgsubr
            -141 254 rmoveto
            171 hlineto
            -182 -225 rlineto
            -120 hlineto
            endchar
          </CharString>
          <CharString index="167">
            796 -68 rmoveto
            -609 hlineto
            9 -103 31 -83 55 -61 rrcurveto
            -61 55 70 -31 86 hhcurveto
            86 70 31 62 54 hvcurveto
            53 62 31 82 9 102 rrcurveto
            -305 480 rmoveto
            -83 -69 -30 -60 -54 hvcurveto
            -54 -61 -32 -79 -10 -98 rrcurveto
            606 hlineto
            -12 101 -33 80 -54 59 rrcurveto
            59 -55 -68 29 -82 hhcurveto
            return
          </CharString>
          <CharString index="168">
            783 1879 hmoveto
            -883 hlineto
            -15 353 -564 0 -205 -353 -226 0 880 1456 rlineto
            951 -152 -691 hlineto
            20 -471 rlineto
            590 -151 -584 hlineto
            22 -531 rlineto
            705 hlineto
            -1361 376 rmoveto
            456 hlineto
            -31 733 rlineto
            return
          </CharString>
          <CharString index="169">
            193 -1031 hlineto
            -139 -42 -109 -83 -79 vhcurveto
            -79 -84 -112 -39 -139 hhcurveto
            -145 -112 37 74 -81 hvcurveto
            -81 74 -40 104 133 vvcurveto
            192 hlineto
            -83 23 -65 46 -47 vhcurveto
            -47 45 66 -23 87 hhcurveto
            79 65 25 50 49 hvcurveto
            49 50 24 70 1 90 rrcurveto
            endchar
          </CharString>
          <CharString index="170">
            -76 501 560 rmoveto
            45 -120 276 725 213 0 -418 -955 -37 -73 rlineto
            -53 -97 -84 -52 -113 -7 -38 -1 rcurveline
            -53 -34 3 5 -13 hvcurveto
            6 147 92 -5 rlineto
            33 28 8 17 25 hvcurveto
            24 16 23 28 21 39 -410 927 rcurveline
            214 hlineto
            return
          </CharString>
          <CharString index="171">
            -190 -148 58 115 -106 hvcurveto
            -107 115 -53 165 217 vvcurveto
            117 1012 7 vlineto
            172 -41 133 -81 95 vhcurveto
            95 -81 -115 47 -147 hhcurveto
            -110 -101 -19 -39 -93 hvcurveto
            -61 -26 -47 143 22 13 rlineto
            59 105 130 29 155 hhcurveto
            return
          </CharString>
          <CharString index="172">
            187 -827 hlineto
            -105 -35 -85 -71 -65 vhcurveto
            -66 -71 -94 -33 -118 hhcurveto
            -129 -101 31 61 -73 hvcurveto
            -73 61 -37 85 109 vvcurveto
            186 hlineto
            -63 19 -48 38 -34 vhcurveto
            -34 37 57 -17 76 hhcurveto
            61 49 18 37 37 hvcurveto
            37 36 18 50 63 vvcurveto
            endchar
          </CharString>
          <CharString index="173">
            1027 1082 rmoveto
            -1082 -186 929 -368 vlineto
            -22 -405 rlineto
            -12 -186 -31 -133 -50 -80 -51 -80 -80 -42 -109 -3 rrcurveto
            -74 163 hlineto
            53 4 rlineto
            60 7 43 34 26 63 26 63 17 116 7 169 20 463 rcurveline
            return
          </CharString>
          <CharString index="174">
            -26 -577 rlineto
            -10 -193 -20 -146 -29 -97 -30 -97 -44 -72 -57 -45 -57 -46 -77 -24 -96 -1 rrcurveto
            -63 157 hlineto
            40 2 rlineto
            62 5 48 20 33 36 33 35 26 57 17 78 17 78 13 120 7 162 30 706 rcurveline
            return
          </CharString>
          <CharString index="175">
            rmoveto
            252 811 198 0 -435 -1249 rlineto
            -180 -67 -107 -90 -147 hhcurveto
            -35 3 -69 13 0 150 50 -4 rlineto
            63 49 13 25 35 hvcurveto
            35 25 28 47 23 67 rrcurveto
            41 110 -386 1070 rlineto
            202 hlineto
            return
          </CharString>
          <CharString index="176">
            378 1165 rmoveto
            391 -911 389 911 rlineto
            241 -1165 -184 401 hlineto
            19 533 -398 -934 -136 0 -397 930 19 -529 rlineto
            -401 -184 1165 vlineto
            endchar
          </CharString>
          <CharString index="177">
            411 vlineto
            127 112 -28 -56 97 hvcurveto
            97 -56 76 -80 53 -103 53 -103 26 -119 1 -134 rrcurveto
            -93 vlineto
            -137 -26 -121 -53 -103 vhcurveto
            -53 -103 -76 -80 -98 -55 -99 -55 -114 -29 -131 -1 rrcurveto
            return
          </CharString>
          <CharString index="178">
            201 160 -63 -125 119 hvcurveto
            119 -126 59 -175 -223 vvcurveto
            -84 vlineto
            -131 -26 -119 -52 -107 vhcurveto
            -52 -107 -72 -84 -93 -61 rrcurveto
            -61 -93 -102 -30 -111 hhcurveto
            return
          </CharString>
          <CharString index="179">
            50 -19 39 -37 28 vhcurveto
            -38 27 -66 24 -93 20 -94 20 -74 24 -55 28 -55 28 -41 33 -26 39 rrcurveto
            -27 39 -13 46 53 vvcurveto
            89 38 75 75 61 vhcurveto
            61 75 95 31 117 hhcurveto
            return
          </CharString>
          <CharString index="180">
            -139 hhcurveto
            -115 -88 34 67 -60 hvcurveto
            -61 67 -30 99 -1 131 rrcurveto
            704 185 -699 vlineto
            -164 67 -82 133 141 94 53 105 47 vhcurveto
            787 185 return
          </CharString>
          <CharString index="181">
            51 17 63 hhcurveto
            63 103 callsubr
            31 -8 24 -17 19 vhcurveto
            18 -17 -25 9 -32 hhcurveto
            -31 -23 -9 return
          </CharString>
          <CharString index="182">
            644 898 rmoveto
            349 558 226 0 -460 -722 471 -734 2 callgsubr
            472 734 -461 722 rlineto
            225 hlineto
            return
          </CharString>
          <CharString index="183">
            477 461 rmoveto
            -135 35 callsubr
            121 hlineto
            364 458 224 0 -428 -520 464 -562 rlineto
            -235 hlineto
            return
          </CharString>
          <CharString index="184">
            -752 vmoveto
            -547 351 vlineto
            95 75 25 51 53 hvcurveto
            53 51 26 68 85 vvcurveto
            82 -25 65 -51 47 vhcurveto
            -51 47 -73 25 -94 1 rrcurveto
            return
          </CharString>
          <CharString index="185">
            40 -17 49 hhcurveto
            48 38 17 33 29 hvcurveto
            29 33 14 44 57 vvcurveto
            6 callgsubr
            -47 -39 -16 -33 -29 hvcurveto
            -30 -33 -15 -45 -56 vvcurveto
            return
          </CharString>
          <CharString index="186">
            vvcurveto
            -48 26 -24 52 32 33 9 17 35 vhcurveto
            13 -121 rlineto
            -29 -47 -53 -15 -60 hhcurveto
            -59 -47 17 35 -34 hvcurveto
            -35 35 -17 46 57 vvcurveto
            return
          </CharString>
          <CharString index="187">
            172 651 255 rmoveto
            416 1201 210 0 -540 -1456 -170 0 -539 1456 rlineto
            209 hlineto
            return
          </CharString>
          <CharString index="188">
            -407 275 vlineto
            69 54 18 36 38 hvcurveto
            38 35 19 49 62 vvcurveto
            60 -18 49 -37 39 vhcurveto
            -37 38 -52 20 -67 1 rrcurveto
            endchar
          </CharString>
          <CharString index="189">
            129 936 1165 rmoveto
            185 -1165 -185 884 hlineto
            -613 -884 rlineto
            -58 callsubr
            -884 hlineto
            return
          </CharString>
          <CharString index="190">
            -105 72 62 87 32 91 2 96 rlinecurve
            144 183 -130 vlineto
            -1 -67 -16 -66 -32 -66 -33 -67 -41 -53 -51 -41 rrcurveto
            endchar
          </CharString>
          <CharString index="191">
            hhcurveto
            87 72 -28 -56 56 hvcurveto
            56 -56 28 -74 -93 vvcurveto
            -71 vlineto
            -87 -28 -72 -55 -56 vhcurveto
            -57 -56 -71 -28 -87 hhcurveto
            return
          </CharString>
          <CharString index="192">
            1024 hmoveto
            -185 462 -497 -462 -186 1082 186 -469 497 469 185 hlineto
            return
          </CharString>
          <CharString index="193">
            77 60 20 40 44 hvcurveto
            44 39 22 52 65 vvcurveto
            61 -21 49 -41 38 vhcurveto
            -42 37 -58 20 -73 2 rrcurveto
            return
          </CharString>
          <CharString index="194">
            1270 1456 rmoveto
            -1456 -192 1298 -522 vlineto
            67 callsubr
            return
          </CharString>
          <CharString index="195">
            -153 -123 51 102 -93 hvcurveto
            -94 102 -47 139 175 vvcurveto
            62 -18 callgsubr
            return
          </CharString>
          <CharString index="196">
            176 hlineto
            -3 -63 -22 -59 -40 -56 -40 -56 -53 -44 -65 -33 rrcurveto
            -33 -65 -70 -17 -73 hhcurveto
            return
          </CharString>
          <CharString index="197">
            -193 1298 -718 -1298 -192 1456 1103 hlineto
            endchar
          </CharString>
          <CharString index="198">
            -188 901 1012 rmoveto
            -578 -1012 -185 1165 763 hlineto
            return
          </CharString>
          <CharString index="199">
            -105 -21 -95 -41 -85 vhcurveto
            -41 -85 -58 -65 -75 -45 rrcurveto
            -46 -75 -85 -23 -96 hhcurveto
            return
          </CharString>
          <CharString index="200">
            hhcurveto
            -60 -53 -16 -32 -45 hvcurveto
            -45 -32 -36 -42 -25 -52 rrcurveto
            -771 -185 return
          </CharString>
          <CharString index="201">
            -346 218 rmoveto
            154 hlineto
            112 -198 rlineto
            -101 hlineto
            endchar
          </CharString>
          <CharString index="202">
            131 rmoveto
            66 58 20 40 49 hvcurveto
            49 40 28 50 5 60 rrcurveto
            return
          </CharString>
          <CharString index="203">
            hhcurveto
            -128 -102 47 95 -76 hvcurveto
            -76 94 -38 128 163 vvcurveto
            return
          </CharString>
          <CharString index="204">
            342 709 rmoveto
            -85 callgsubr
            1082 185 hlineto
            return
          </CharString>
          <CharString index="205">
            176 38 141 75 106 vhcurveto
            105 75 103 53 131 hhcurveto
            return
          </CharString>
          <CharString index="206">
            -96 218 rmoveto
            153 hlineto
            -164 -198 rlineto
            -102 hlineto
            endchar
          </CharString>
          <CharString index="207">
            1165 185 -515 604 515 185 hlineto
            return
          </CharString>
          <CharString index="208">
            1112 hmoveto
            36 callsubr
            100 callsubr
            endchar
          </CharString>
          <CharString index="209">
            89 70 35 71 53 hvcurveto
            52 70 26 104 139 vvcurveto
            endchar
          </CharString>
          <CharString index="210">
            51 -17 -35 39 hvcurveto
            39 -35 19 -45 -56 vvcurveto
            -112 hlineto
            return
          </CharString>
          <CharString index="211">
            -87 -71 28 56 -57 hvcurveto
            -57 55 -28 74 93 vvcurveto
            138 return
          </CharString>
          <CharString index="212">
            vhcurveto
            -20 -19 -27 -10 -36 hhcurveto
            -36 -27 10 20 -18 hvcurveto
            -19 return
          </CharString>
          <CharString index="213">
            rmoveto
            57 20 45 39 35 vhcurveto
            34 39 50 17 62 hhcurveto
            63 return
          </CharString>
          <CharString index="214">
            -20 rmoveto
            -147 -119 48 97 -92 hvcurveto
            -92 96 -46 return
          </CharString>
          <CharString index="215">
            409 -587 -220 0 -62 callgsubr
          </CharString>
          <CharString index="216">
            -19 105 callsubr
            19 -9 25 30 vvcurveto
            endchar
          </CharString>
          <CharString index="217">
            rmoveto
            -120 28 -96 56 -73 vhcurveto
            -73 55 75 -36 return
          </CharString>
          <CharString index="218">
            vlineto
            140 24 124 49 107 vhcurveto
            49 107 69 return
          </CharString>
          <CharString index="219">
            hlineto
            -5 70 -27 58 -47 45 rrcurveto
            45 -48 -59 22 return
          </CharString>
          <CharString index="220">
            341 hmoveto
            -185 1536 185 hlineto
            return
          </CharString>
          <CharString index="221">
            -114 -101 27 55 -87 hvcurveto
            -97 -155 -142 0 144 231 rlineto
            -127 128 -63 184 240 vvcurveto
            83 111 callsubr
            83 89 57 rrcurveto
            57 89 101 28 115 hhcurveto
            143 120 -42 -83 99 hvcurveto
            103 165 141 0 -159 -255 91 -125 47 -160 1 -196 rlinecurve
            -980 -99 rmoveto
            -163 33 -128 65 -94 vhcurveto
            564 904 rlineto
            74 -68 -89 37 -111 hhcurveto
            -121 -96 -46 -92 -69 hvcurveto
            -70 -93 -36 -128 -2 -164 rrcurveto
            789 -13 rmoveto
            121 -19 105 -37 87 vhcurveto
            -549 -881 rlineto
            -43 61 70 -21 81 hhcurveto
            124 96 45 91 68 hvcurveto
            68 90 35 129 2 169 rrcurveto
            return
          </CharString>
          <CharString index="222">
            -191 rmoveto
            118 96 41 81 73 hvcurveto
            73 81 44 113 14 145 rrcurveto
            -70 -79 -101 -35 -122 hhcurveto
            -140 -112 46 92 -85 hvcurveto
            -85 92 -43 121 151 vvcurveto
            104 20 91 39 79 vhcurveto
            39 79 54 60 70 42 rrcurveto
            42 70 79 21 88 hhcurveto
            157 122 -49 -97 87 hvcurveto
            87 -97 44 -138 1 -177 rrcurveto
            -250 vlineto
            -147 -24 -127 -49 -109 vhcurveto
            -49 -109 -69 -83 -89 -58 rrcurveto
            -58 -90 -103 -29 -117 hhcurveto
            -106 -92 20 40 -79 hvcurveto
            38 142 rlineto
            -33 81 74 -17 66 hhcurveto
            125 508 rmoveto
            70 62 15 31 53 hvcurveto
            53 31 37 42 23 55 rrcurveto
            148 vlineto
            131 -27 99 -53 66 vhcurveto
            65 -54 -76 33 -97 hhcurveto
            -85 -67 -32 -65 -51 hvcurveto
            -51 -65 -25 -90 -114 vvcurveto
            -99 27 -83 55 -67 vhcurveto
            -67 54 69 -34 83 hhcurveto
            endchar
          </CharString>
          <CharString index="223">
            452 1001 -22 rmoveto
            -191 -150 56 113 -111 hvcurveto
            -111 112 -56 155 198 vvcurveto
            91 vlineto
            -102 13 -79 39 -55 66 rrcurveto
            -55 65 -28 87 108 vvcurveto
            152 hlineto
            -60 13 -51 27 -41 vhcurveto
            27 -42 42 -28 58 -13 0 120 24 108 47 96 47 95 66 75 85 54 rrcurveto
            54 84 92 27 100 hhcurveto
            172 133 -58 -116 95 hvcurveto
            95 -117 47 -165 -215 vvcurveto
            -108 -894 -93 vlineto
            -147 37 -114 74 -82 vhcurveto
            -83 74 105 -41 136 hhcurveto
            119 115 28 55 111 hvcurveto
            47 -143 -43 -30 -56 -24 -70 -17 rlinecurve
            -18 -70 -74 -9 -79 hhcurveto
            -426 858 rmoveto
            702 33 hlineto
            145 -30 110 -59 77 vhcurveto
            76 -60 -87 38 -114 hhcurveto
            -105 -85 -43 -86 -65 hvcurveto
            -65 -87 -32 -116 -147 vvcurveto
            return
          </CharString>
          <CharString index="224">
            830 640 rmoveto
            -39 -46 -46 -37 -53 -28 rrcurveto
            -28 -54 -59 -14 -64 hhcurveto
            -84 -73 21 41 -62 hvcurveto
            -63 41 -48 59 -34 75 rrcurveto
            -34 75 -17 82 91 vvcurveto
            97 19 88 37 78 vhcurveto
            37 78 52 60 68 41 rrcurveto
            41 68 79 21 91 hhcurveto
            144 114 -54 -107 83 hvcurveto
            83 -108 41 -147 -186 vvcurveto
            -54 vlineto
            -283 -56 -207 -112 -130 vhcurveto
            -112 -131 -169 -67 -226 -3 rrcurveto
            -36 156 39 hlineto
            153 3 117 40 82 77 82 77 45 121 7 167 rrcurveto
            -285 hmoveto
            62 57 19 38 53 hvcurveto
            52 38 38 47 24 56 rrcurveto
            74 vlineto
            121 -26 99 -53 76 vhcurveto
            76 -53 -66 38 -81 hhcurveto
            -81 -66 -31 -62 -49 hvcurveto
            -49 -63 -25 -82 -102 vvcurveto
            -99 24 -82 48 -64 vhcurveto
            -65 47 64 -32 80 hhcurveto
            endchar
          </CharString>
          <CharString index="225">
            390 818 rmoveto
            139 hlineto
            87 1 69 23 50 45 rrcurveto
            50 45 25 60 76 vvcurveto
            171 -85 85 -170 -80 -64 -23 -45 -47 vhcurveto
            -48 -46 -24 -61 -75 vvcurveto
            -185 hlineto
            115 42 96 85 77 vhcurveto
            76 84 107 38 130 hhcurveto
            137 108 -36 -73 78 hvcurveto
            78 -73 39 -101 -129 vvcurveto
            -63 -20 -62 -41 -59 vhcurveto
            -41 -59 -56 -45 -71 -29 80 -25 62 -42 44 -59 rrcurveto
            43 -59 22 -71 -85 vvcurveto
            -131 -43 -103 -85 -77 vhcurveto
            -77 -85 -111 -38 -137 hhcurveto
            -137 -111 37 74 -85 hvcurveto
            -86 74 -43 98 121 vvcurveto
            186 hlineto
            -77 25 -61 50 -46 vhcurveto
            -46 50 67 -23 84 hhcurveto
            89 69 23 47 47 hvcurveto
            47 47 24 67 87 vvcurveto
            85 -26 65 -52 45 vhcurveto
            -52 45 -75 24 -98 1 rrcurveto
            -139 hlineto
            endchar
          </CharString>
          <CharString index="226">
            344 913 -16 rmoveto
            -170 -136 48 97 -102 hvcurveto
            -102 97 -51 129 162 vvcurveto
            -111 7 -86 37 -61 66 rrcurveto
            -61 66 -31 89 112 vvcurveto
            153 hlineto
            -63 16 -51 32 -39 vhcurveto
            31 -40 50 -24 68 -8 3 98 25 88 45 79 45 79 61 61 78 43 rrcurveto
            43 77 86 21 95 hhcurveto
            165 128 -46 -92 91 hvcurveto
            91 -93 45 -132 -173 vvcurveto
            -130 -850 vlineto
            -118 32 -91 65 -64 vhcurveto
            -64 64 93 -32 122 hhcurveto
            51 48 5 11 45 hvcurveto
            45 10 49 18 53 27 rrcurveto
            57 -146 -40 -27 -51 -21 -61 -15 rlinecurve
            -16 -61 -66 -8 -69 hhcurveto
            -46 1041 rmoveto
            -95 -78 -32 -65 -60 hvcurveto
            -61 -65 -32 -87 -4 -109 rrcurveto
            665 27 hlineto
            107 -29 82 -58 57 vhcurveto
            57 -58 -83 28 -107 hhcurveto
            return
          </CharString>
          <CharString index="227">
            556 452 1082 rmoveto
            -92 -189 -48 -174 -5 -159 rrcurveto
            -135 19 -106 38 -75 vhcurveto
            -76 38 54 -38 71 hhcurveto
            72 55 29 58 38 hvcurveto
            37 57 19 84 111 vvcurveto
            301 187 -306 vlineto
            1 -109 19 -83 38 -57 rrcurveto
            -57 37 55 -28 71 hhcurveto
            71 54 38 75 38 hvcurveto
            38 75 19 106 136 vvcurveto
            -5 159 -48 174 -92 189 rrcurveto
            195 hlineto
            90 -163 45 -174 -185 vvcurveto
            -183 -34 -143 -69 -101 vhcurveto
            -102 -69 -98 -51 -125 hhcurveto
            -160 -108 79 159 -57 hvcurveto
            -27 -78 -41 -59 -55 -40 rrcurveto
            -41 -55 -67 -20 -79 hhcurveto
            -125 -97 51 102 -69 hvcurveto
            -69 101 -35 143 183 vvcurveto
            191 45 174 90 157 vhcurveto
            return
          </CharString>
          <CharString index="228">
            162 rmoveto
            92 18 72 56 51 95 51 95 27 125 2 156 rrcurveto
            134 vlineto
            154 -32 118 -65 82 vhcurveto
            82 -65 -88 41 -113 hhcurveto
            -113 -88 -42 -83 -64 hvcurveto
            -64 -83 -32 -118 -153 vvcurveto
            -113 vlineto
            -160 26 -129 53 -99 vhcurveto
            52 -99 74 -58 97 -19 rrcurveto
            -162 -492 157 221 vlineto
            -71 68 -55 85 -40 103 rrcurveto
            -40 102 -20 105 108 vvcurveto
            111 vlineto
            124 24 111 47 97 vhcurveto
            47 97 65 76 85 53 rrcurveto
            53 85 96 26 107 hhcurveto
            107 95 -26 -52 85 hvcurveto
            84 -52 66 -73 47 -95 47 -95 25 -107 2 -120 rrcurveto
            -130 vlineto
            -107 -20 -104 -40 -102 vhcurveto
            -40 -103 -55 -85 -71 -68 rrcurveto
            220 -157 -484 hlineto
            return
          </CharString>
          <CharString index="229">
            249 340 462 rmoveto
            19 -120 38 -84 57 -48 rrcurveto
            -49 57 81 -24 107 hhcurveto
            115 92 45 90 67 hvcurveto
            67 90 34 125 1 160 rrcurveto
            -573 158 573 hlineto
            158 -34 125 -69 92 vhcurveto
            92 -69 -97 46 -124 hhcurveto
            -100 -78 -26 -52 -55 hvcurveto
            -56 -52 -36 -84 -17 -116 rrcurveto
            -193 hlineto
            15 153 55 119 93 87 rrcurveto
            86 93 124 43 155 hhcurveto
            117 104 -28 -55 89 hvcurveto
            89 -56 68 -79 48 -103 rrcurveto
            47 -103 24 -119 -134 vvcurveto
            -145 vlineto
            -134 -24 -118 -47 -103 vhcurveto
            -47 -103 -67 -78 -86 -55 rrcurveto
            -55 -87 -99 -28 -112 hhcurveto
            -159 -127 42 84 -95 hvcurveto
            -96 83 -57 119 -18 154 rrcurveto
            return
          </CharString>
          <CharString index="230">
            286 304 rmoveto
            -51 25 -42 49 -33 vhcurveto
            -33 49 63 -16 79 hhcurveto
            75 64 18 37 52 hvcurveto
            51 37 26 45 54 vvcurveto
            185 hlineto
            -103 -42 -83 -85 -61 vhcurveto
            -62 -85 -109 -31 -132 hhcurveto
            -136 -109 30 59 -83 hvcurveto
            -83 59 -41 78 98 vvcurveto
            124 68 84 137 44 vhcurveto
            -59 24 -45 32 -33 41 rrcurveto
            -33 41 -16 44 49 vvcurveto
            99 39 77 77 55 vhcurveto
            55 77 105 28 135 hhcurveto
            124 104 -30 -59 83 hvcurveto
            83 -60 41 -77 -95 vvcurveto
            -185 hlineto
            47 -24 40 -47 34 vhcurveto
            33 -48 -60 17 -71 hhcurveto
            -75 -59 -15 -30 -45 hvcurveto
            -45 -31 -23 -40 -49 vvcurveto
            -107 81 -53 163 vhcurveto
            196 -148 -224 hlineto
            -156 -4 -78 -58 -112 vvcurveto
            return
          </CharString>
          <CharString index="231">
            784 1046 rmoveto
            153 -9 122 -46 91 -83 rrcurveto
            91 -83 45 -110 -135 vvcurveto
            -137 -46 -110 -91 -84 vhcurveto
            -92 -84 -122 -46 -151 -9 rrcurveto
            -110 -185 110 vlineto
            -156 9 -123 46 -89 85 rrcurveto
            -90 84 -45 109 135 vvcurveto
            136 45 110 91 84 vhcurveto
            91 84 122 46 154 9 rrcurveto
            118 185 vlineto
            -504 -587 rmoveto
            -197 106 -105 213 -11 vhcurveto
            626 vlineto
            -103 -6 -78 -28 -55 -50 rrcurveto
            -55 -50 -28 -76 -103 vvcurveto
            822 2 rmoveto
            102 -28 76 -55 50 vhcurveto
            -55 49 -79 28 -101 6 rrcurveto
            -626 vlineto
            101 7 79 28 55 50 rrcurveto
            55 50 28 77 103 vvcurveto
            endchar
          </CharString>
          <CharString index="232">
            -30 520 950 rmoveto
            -66 -57 -21 -42 -48 hvcurveto
            -49 -42 -24 -50 -57 vvcurveto
            -176 hlineto
            62 20 59 39 57 vhcurveto
            39 57 53 45 65 34 rrcurveto
            33 65 68 17 71 hhcurveto
            141 114 -51 -101 87 hvcurveto
            87 -102 43 -133 -164 vvcurveto
            -31 vlineto
            -101 -20 -93 -39 -83 vhcurveto
            -40 -84 -56 -65 -71 -45 rrcurveto
            -46 -72 -82 -23 -92 hhcurveto
            -120 -100 37 75 -80 hvcurveto
            -80 75 -40 93 111 vvcurveto
            176 hlineto
            -68 24 -57 47 -46 vhcurveto
            -47 47 58 -23 68 hhcurveto
            79 66 31 61 51 hvcurveto
            51 61 30 85 8 107 rrcurveto
            -406 152 404 hlineto
            -9 97 -30 79 -50 59 rrcurveto
            59 -50 -65 29 -79 hhcurveto
            return
          </CharString>
          <CharString index="233">
            621 rmoveto
            -217 -37 -161 -74 -105 vhcurveto
            -105 -74 -116 -53 -157 hhcurveto
            -155 -115 52 103 -75 hvcurveto
            -75 103 -38 153 -3 205 rrcurveto
            247 vlineto
            214 37 159 74 104 vhcurveto
            104 74 116 52 158 hhcurveto
            157 115 -50 -100 74 hvcurveto
            74 -101 38 -155 2 -209 rrcurveto
            -185 13 rmoveto
            157 -22 114 -44 72 vhcurveto
            71 -44 -70 36 -95 hhcurveto
            -95 -69 -36 -71 -43 hvcurveto
            -43 -71 -23 -110 -1 -148 rrcurveto
            -296 vlineto
            -157 23 -116 46 -75 vhcurveto
            -75 45 69 -38 93 hhcurveto
            91 68 35 71 45 hvcurveto
            44 71 23 111 2 152 rrcurveto
            endchar
          </CharString>
          <CharString index="234">
            80 982 1020 rmoveto
            88 -102 44 -137 -171 vvcurveto
            -62 vlineto
            -14 callgsubr
            -103 -90 24 47 -77 hvcurveto
            -75 -112 -149 0 127 190 rlineto
            -95 103 -48 139 177 vvcurveto
            63 -18 callgsubr
            107 95 -26 -52 82 hvcurveto
            69 103 rlineto
            149 hlineto
            -827 -658 rmoveto
            -106 20 -88 41 -70 vhcurveto
            457 682 rlineto
            39 -53 -64 20 -76 hhcurveto
            -100 -79 -36 -71 -58 hvcurveto
            -59 -71 -29 -102 -131 vvcurveto
            652 3 rmoveto
            101 -17 83 -35 65 vhcurveto
            -453 -676 rlineto
            -35 49 60 -17 71 hhcurveto
            104 80 35 71 57 hvcurveto
            56 70 28 101 133 vvcurveto
            return
          </CharString>
          <CharString index="235">
            572 rmoveto
            -185 -47 -145 -93 -105 vhcurveto
            -105 -93 -127 -53 -159 hhcurveto
            -159 -127 53 105 -94 hvcurveto
            -94 105 -47 145 -1 184 rrcurveto
            20 vlineto
            184 47 145 94 106 vhcurveto
            106 93 127 53 159 hhcurveto
            159 127 -53 -105 94 hvcurveto
            93 -105 47 -145 1 -185 rrcurveto
            -186 13 rmoveto
            135 -30 105 -59 75 vhcurveto
            75 -59 -82 38 -105 hhcurveto
            -103 -82 -37 -75 -59 hvcurveto
            -59 -75 -31 -103 -1 -131 rrcurveto
            -52 vlineto
            -134 30 -105 61 -76 vhcurveto
            -77 61 82 -38 103 hhcurveto
            103 81 37 74 59 hvcurveto
            59 73 30 104 1 135 rrcurveto
            endchar
          </CharString>
          <CharString index="236">
            157 rmoveto
            91 21 66 47 43 75 rrcurveto
            42 74 21 105 137 vvcurveto
            38 vlineto
            119 -29 92 -58 64 vhcurveto
            64 -58 -81 32 -105 hhcurveto
            -104 -81 -32 -64 -57 hvcurveto
            -57 -65 -29 -93 -122 vvcurveto
            -33 vlineto
            -136 24 -105 47 -74 vhcurveto
            47 -75 65 -48 85 -21 rrcurveto
            -157 -450 151 175 vlineto
            -119 105 -60 157 209 vvcurveto
            30 vlineto
            159 47 128 95 97 vhcurveto
            97 94 124 48 154 hhcurveto
            155 124 -49 -97 95 hvcurveto
            95 -97 47 -131 -163 vvcurveto
            -28 vlineto
            -206 -59 -155 -119 -104 vhcurveto
            181 -151 -451 hlineto
            return
          </CharString>
          <CharString index="237">
            rmoveto
            -131 -17 vlineto
            -179 -1 -97 -74 -15 -146 rrcurveto
            51 48 62 26 76 hhcurveto
            79 62 -24 -48 45 hvcurveto
            45 -49 22 -64 -79 vvcurveto
            -77 -26 -65 -53 -51 vhcurveto
            -51 -53 -71 -26 -88 hhcurveto
            -93 -74 28 55 -55 hvcurveto
            -56 55 -28 78 101 vvcurveto
            51 vlineto
            139 37 107 74 76 vhcurveto
            74 76 105 40 137 3 rrcurveto
            -126 -402 rmoveto
            -34 -30 -7 -15 -25 hvcurveto
            -26 -15 -19 -18 -11 -21 rrcurveto
            -34 vlineto
            -56 14 -42 28 -28 vhcurveto
            -29 27 35 -14 42 hhcurveto
            41 33 13 27 26 hvcurveto
            26 26 13 34 41 vvcurveto
            41 -12 34 -23 25 vhcurveto
            25 -24 -35 13 -46 hhcurveto
            endchar
          </CharString>
          <CharString index="238">
            511 1103 rmoveto
            147 118 -50 -100 90 hvcurveto
            90 -100 45 -133 -166 vvcurveto
            -36 vlineto
            -99 -21 -91 -41 -83 vhcurveto
            -41 -83 -57 -64 -72 -47 -72 -47 -77 -24 -81 1 rrcurveto
            -139 -108 42 85 -77 hvcurveto
            -78 85 -39 120 155 vvcurveto
            116 717 vlineto
            -5 112 -29 89 -53 67 rrcurveto
            67 -54 -72 33 -91 hhcurveto
            -124 -103 -36 -72 -82 hvcurveto
            -73 125 rlineto
            89 93 128 45 161 hhcurveto
            28 -971 rmoveto
            65 58 27 55 51 hvcurveto
            50 55 32 73 14 91 rrcurveto
            -525 -26 hlineto
            -83 23 -67 46 -50 vhcurveto
            -50 45 62 -25 79 hhcurveto
            return
          </CharString>
          <CharString index="239">
            rmoveto
            -43 -46 -57 -22 -67 hhcurveto
            -79 -62 23 46 -47 hvcurveto
            -47 46 -24 65 84 vvcurveto
            81 27 67 55 53 vhcurveto
            53 54 70 27 86 hhcurveto
            91 72 -27 -55 52 hvcurveto
            52 -55 27 -77 2 -99 rrcurveto
            -61 vlineto
            -275 -132 -144 -265 -13 vhcurveto
            -55 -1 rlineto
            127 vlineto
            100 72 16 33 44 hvcurveto
            44 33 26 50 7 68 rrcurveto
            -134 56 rmoveto
            63 45 24 47 28 hvcurveto
            60 vlineto
            55 -13 41 -26 27 vhcurveto
            27 -27 -33 13 -40 hhcurveto
            -39 -33 -14 -28 -25 hvcurveto
            -25 -28 -13 -36 -45 vvcurveto
            -43 12 -35 25 -26 vhcurveto
            -26 25 33 -13 43 hhcurveto
            endchar
          </CharString>
          <CharString index="240">
            669 1653 1456 rmoveto
            -1058 vlineto
            -132 -37 -103 -75 -73 vhcurveto
            -73 -75 -103 -37 -130 hhcurveto
            -73 -64 15 29 -57 hvcurveto
            -57 29 -45 44 -33 59 -35 -59 -47 -44 -59 -29 rrcurveto
            -29 -59 -68 -15 -75 hhcurveto
            -126 -99 37 73 -71 hvcurveto
            -72 73 -36 101 -1 130 rrcurveto
            1062 193 -1059 vlineto
            -82 19 -64 38 -46 vhcurveto
            -46 38 52 -23 8 callgsubr
            1059 199 -1059 vlineto
            -83 21 -65 41 -45 vhcurveto
            -45 41 56 -23 70 hhcurveto
            71 55 23 46 41 hvcurveto
            41 45 20 65 83 vvcurveto
            1058 vlineto
            return
          </CharString>
          <CharString index="241">
            206 730 rmoveto
            74 726 rlineto
            746 -171 -589 hlineto
            -44 -397 rlineto
            42 71 81 21 91 hhcurveto
            133 105 -44 -87 78 hvcurveto
            78 -88 39 -119 -149 vvcurveto
            -150 -40 -118 -81 -86 vhcurveto
            -87 -81 -114 -43 -145 hhcurveto
            -129 -105 36 71 -81 hvcurveto
            -81 71 -47 99 -11 126 rrcurveto
            175 hlineto
            11 -83 30 -63 48 -42 rrcurveto
            -43 48 63 -21 79 hhcurveto
            86 68 29 59 49 hvcurveto
            49 59 24 81 103 vvcurveto
            97 -26 79 -53 59 vhcurveto
            59 -53 -71 29 -88 hhcurveto
            -81 -63 -18 -35 -46 hvcurveto
            -49 -40 rlineto
            endchar
          </CharString>
          <CharString index="242">
            vvcurveto
            -186 hlineto
            51 -21 43 -43 37 vhcurveto
            37 -43 -55 18 -65 hhcurveto
            -67 -53 -15 -29 -38 hvcurveto
            -38 -29 -19 -39 -47 vvcurveto
            -45 18 -33 35 -23 vhcurveto
            35 -23 64 -21 93 -21 92 -21 75 -24 57 -29 57 -29 43 -34 28 -40 rrcurveto
            27 -41 14 -49 -58 vvcurveto
            -97 -39 -77 -77 -58 vhcurveto
            -59 -77 -101 -29 -123 hhcurveto
            -87 -76 15 31 -67 hvcurveto
            -67 31 -52 43 -37 55 rrcurveto
            -38 55 -19 59 64 vvcurveto
            185 hlineto
            3 -62 25 -49 47 -36 rrcurveto
            -37 46 61 -18 76 hhcurveto
            70 56 14 29 43 hvcurveto
            42 28 21 38 47 vvcurveto
            return
          </CharString>
          <CharString index="243">
            42 85 vhcurveto
            41 85 58 65 75 46 rrcurveto
            46 74 85 23 95 hhcurveto
            147 120 -51 -102 91 hvcurveto
            91 -102 45 -136 -169 vvcurveto
            -13 vlineto
            -105 -20 -95 -40 -83 vhcurveto
            -41 -84 -57 -65 -75 -47 rrcurveto
            -47 -75 -87 -23 -97 hhcurveto
            -147 -118 51 102 -91 hvcurveto
            -91 102 -46 135 168 vvcurveto
            186 -9 110 callsubr
            93 hhcurveto
            94 75 37 74 55 hvcurveto
            55 73 28 103 133 vvcurveto
            119 -28 96 -56 74 vhcurveto
            73 -57 -75 37 -93 hhcurveto
            -91 -74 -36 -73 -56 hvcurveto
            -56 -73 -28 -104 -135 vvcurveto
            return
          </CharString>
          <CharString index="244">
            372 rmoveto
            102 792 rlineto
            788 -171 -642 hlineto
            -54 -396 rlineto
            74 43 87 22 99 1 133 1 107 -43 81 -89 rrcurveto
            80 -89 40 -120 -150 vvcurveto
            -159 -48 -128 -96 -95 vhcurveto
            -95 -96 -128 -48 -161 hhcurveto
            -149 -133 38 76 -117 hvcurveto
            58 139 rlineto
            -67 87 113 -34 141 hhcurveto
            102 83 35 69 64 hvcurveto
            63 69 32 89 109 vvcurveto
            95 -27 78 -55 61 vhcurveto
            61 -55 -73 30 -90 hhcurveto
            -71 -54 -10 -19 -39 hvcurveto
            -39 -19 -31 -38 -23 -55 rrcurveto
            endchar
          </CharString>
          <CharString index="245">
            448 1453 1082 rmoveto
            -729 vlineto
            -117 -34 -92 -67 -66 vhcurveto
            -66 -67 -92 -33 -116 hhcurveto
            -132 -96 49 99 -59 hvcurveto
            -99 -63 -101 -49 -137 hhcurveto
            -111 -88 33 65 -64 hvcurveto
            -64 65 -32 91 -1 117 rrcurveto
            732 185 -733 vlineto
            1 -68 15 -53 31 -39 rrcurveto
            -39 30 43 -20 10 callgsubr
            729 186 -729 vlineto
            -69 17 -54 34 -40 vhcurveto
            -40 33 48 -20 61 hhcurveto
            59 47 20 39 34 hvcurveto
            33 39 17 53 1 68 rrcurveto
            733 vlineto
            return
          </CharString>
          <CharString index="246">
            796 1082 rmoveto
            -946 vlineto
            114 16 90 46 65 77 65 76 32 97 0 119 -3 155 -43 171 -81 189 rrcurveto
            194 hlineto
            79 -157 39 -172 -186 vvcurveto
            -173 -47 -137 -95 -101 vhcurveto
            -95 -101 -137 -58 -177 -14 rrcurveto
            -455 -185 457 vlineto
            -170 17 -128 61 -87 103 rrcurveto
            -87 103 -44 144 183 vvcurveto
            486 186 -498 vlineto
            1 -129 29 -103 55 -76 55 -76 82 -46 108 -17 rrcurveto
            945 vlineto
            endchar
          </CharString>
          <CharString index="247">
            26 1006 1082 rmoveto
            -797 vlineto
            -93 1 27 -47 52 hhcurveto
            13 11 2 3 10 hvcurveto
            23 -137 rlineto
            -23 -32 -41 -11 -49 hhcurveto
            -98 -62 55 110 -25 hvcurveto
            -110 -71 -106 -55 -139 96 callsubr
            15 vlineto
            98 callsubr
            135 104 -54 -107 71 hvcurveto
            17 141 rlineto
            -564 -582 17 callgsubr
            115 85 62 124 55 hvcurveto
            446 vlineto
            125 -57 -84 63 -112 hhcurveto
            -89 -70 -38 -75 -49 hvcurveto
            -50 -76 -25 -112 -149 vvcurveto
            return
          </CharString>
          <CharString index="248">
            135 31 125 63 115 vhcurveto
            62 115 86 91 111 67 rrcurveto
            66 110 119 33 128 hhcurveto
            128 119 -33 -66 110 hvcurveto
            110 -67 86 -91 63 -115 rrcurveto
            62 -115 31 -125 -135 vvcurveto
            -131 -30 -123 -60 -115 vhcurveto
            -60 -115 -85 -92 -110 -69 rrcurveto
            -70 -111 -121 -35 -132 hhcurveto
            -131 -121 35 69 -110 hvcurveto
            -111 69 -85 91 -61 115 rrcurveto
            -61 115 -30 123 133 vvcurveto
            return
          </CharString>
          <CharString index="249">
            73 68 -14 -28 63 hvcurveto
            73 148 124 0 -102 -205 rlineto
            130 -103 65 -158 -213 vvcurveto
            92 callsubr
            -69 -64 12 23 -57 hvcurveto
            -74 -149 -124 0 100 203 rlineto
            -137 99 -68 161 222 vvcurveto
            185 -22 rmoveto
            -129 32 -102 65 -74 vhcurveto
            343 694 rlineto
            21 -41 -45 11 -48 16 callgsubr
            614 22 rmoveto
            121 -29 98 -58 74 vhcurveto
            -340 -688 rlineto
            -17 37 40 -8 44 14 callgsubr
            return
          </CharString>
          <CharString index="250">
            18 1056 529 rmoveto
            -165 -38 -133 -76 -100 vhcurveto
            -101 -76 -102 -50 -128 hhcurveto
            -137 -105 48 97 -75 hvcurveto
            -9 -125 rlineto
            -170 -6 callgsubr
            131 104 -50 -99 75 hvcurveto
            75 -99 37 -136 -173 vvcurveto
            -185 5 rmoveto
            126 -24 97 -49 69 vhcurveto
            69 -49 -70 34 -91 hhcurveto
            -122 -88 -57 -113 -53 hvcurveto
            -468 vlineto
            -113 57 88 -57 120 hhcurveto
            89 69 34 69 49 hvcurveto
            49 69 25 103 138 vvcurveto
            return
          </CharString>
          <CharString index="251">
            1075 hmoveto
            -954 133 hlineto
            504 560 75 85 51 69 29 53 rlinecurve
            28 53 14 54 57 vvcurveto
            76 -23 62 -46 49 vhcurveto
            49 -46 -61 24 -77 hhcurveto
            -92 -71 -26 -52 -51 hvcurveto
            -51 -53 -26 -73 -93 vvcurveto
            -185 hlineto
            134 43 108 87 83 vhcurveto
            83 86 115 41 145 hhcurveto
            135 107 -35 -71 79 hvcurveto
            79 -71 39 -95 -118 vvcurveto
            -143 -91 -171 -183 -198 vhcurveto
            -390 -423 rlineto
            731 hlineto
            endchar
          </CharString>
          <CharString index="252">
            1012 rmoveto
            -652 153 882 -118 hlineto
            -384 -404 119 -16 97 -49 75 -82 rlinecurve
            75 -82 38 -101 -119 vvcurveto
            -166 -51 -132 -103 -98 vhcurveto
            -98 -103 -136 -49 -170 hhcurveto
            -135 -137 34 69 -140 hvcurveto
            52 139 rlineto
            -59 110 114 -29 118 hhcurveto
            120 96 34 67 72 hvcurveto
            71 67 36 89 110 vvcurveto
            114 -31 85 -61 55 vhcurveto
            55 -62 -95 27 -128 hhcurveto
            -60 103 hlineto
            endchar
          </CharString>
          <CharString index="253">
            hmoveto
            -889 131 hlineto
            509 457 rlineto
            83 77 45 66 7 56 3 53 rcurveline
            56 -21 46 -41 36 vhcurveto
            36 -42 -55 18 -68 hhcurveto
            -81 -66 -24 -47 -49 hvcurveto
            -50 -47 -25 -63 -78 vvcurveto
            -185 hlineto
            75 20 69 40 64 vhcurveto
            40 63 55 50 70 36 rrcurveto
            36 70 77 18 84 hhcurveto
            125 100 -31 -61 75 hvcurveto
            75 -61 37 -82 -101 vvcurveto
            -118 -66 -119 -131 -120 vhcurveto
            -378 -340 rlineto
            632 hlineto
            endchar
          </CharString>
          <CharString index="254">
            790 523 rmoveto
            104 15 81 44 58 72 rrcurveto
            58 71 29 93 113 vvcurveto
            525 193 -528 vlineto
            -106 -21 -94 -42 -81 vhcurveto
            -43 -82 -60 -65 -79 -49 -79 -49 -93 -30 -106 -10 rrcurveto
            -362 -193 362 vlineto
            -154 15 -122 58 -91 99 -91 99 -47 129 -2 158 rrcurveto
            536 192 -529 vlineto
            1 -109 28 -90 55 -71 55 -72 77 -44 99 -17 rrcurveto
            932 193 vlineto
            endchar
          </CharString>
          <CharString index="255">
            402 rlineto
            478 -132 -349 hlineto
            -22 -170 rlineto
            19 43 47 10 49 hhcurveto
            85 67 -23 -45 48 hvcurveto
            47 -46 24 -63 -81 vvcurveto
            -83 -27 -65 -53 -48 vhcurveto
            -49 -53 -72 -24 -89 hhcurveto
            -81 -68 21 42 -55 hvcurveto
            -56 42 -30 55 -4 67 rrcurveto
            155 hlineto
            -66 7 46 -33 86 hhcurveto
            43 34 13 25 24 hvcurveto
            24 25 12 35 45 vvcurveto
            41 -13 34 -26 26 vhcurveto
            25 -26 -38 13 -49 hhcurveto
            -49 -44 -14 -29 -39 hvcurveto
            return
          </CharString>
          <CharString index="256">
            774 rmoveto
            225 507 29 66 32 48 36 29 rlinecurve
            29 35 47 15 58 hhcurveto
            48 41 -9 -18 35 hvcurveto
            -36 -151 rlineto
            5 -9 -17 3 -26 hhcurveto
            -47 -35 -26 -53 -24 hvcurveto
            -297 -649 rlineto
            -570 -191 572 vlineto
            -296 647 rlineto
            53 -26 -35 26 -45 hhcurveto
            -26 -17 -3 -5 -9 hvcurveto
            -36 150 rlineto
            19 35 41 9 47 hhcurveto
            59 47 -14 -28 36 hvcurveto
            35 -28 32 -45 28 -62 rrcurveto
            return
          </CharString>
          <CharString index="257">
            rmoveto
            -108 -25 -83 -51 -58 vhcurveto
            -58 -51 -72 -29 -94 hhcurveto
            -93 -72 29 57 -52 hvcurveto
            -52 57 -26 82 -1 107 rrcurveto
            142 vlineto
            109 26 83 52 58 vhcurveto
            58 51 72 29 93 hhcurveto
            94 72 -29 -57 51 hvcurveto
            51 -57 26 -81 1 -105 rrcurveto
            -157 7 rmoveto
            128 -46 64 -92 -89 -45 -60 -120 -3 vhcurveto
            -179 vlineto
            -129 46 -65 93 88 45 60 121 3 vhcurveto
            endchar
          </CharString>
          <CharString index="258">
            vlineto
            109 21 97 41 83 vhcurveto
            41 83 59 64 77 45 rrcurveto
            45 77 89 23 101 hhcurveto
            136 109 -35 -70 83 hvcurveto
            82 -71 47 -97 13 -125 rrcurveto
            -185 hlineto
            -12 87 -29 62 -47 39 rrcurveto
            39 -47 -66 19 -84 hhcurveto
            -102 -79 -34 -67 -55 hvcurveto
            -56 -68 -28 -97 -1 -126 rrcurveto
            -106 vlineto
            -126 27 -97 53 -69 vhcurveto
            -69 53 76 -35 101 15 callgsubr
            return
          </CharString>
          <CharString index="259">
            -44 776 848 rmoveto
            56 -23 44 -46 31 vhcurveto
            31 -46 -65 15 -83 hhcurveto
            -73 -58 -15 -29 -43 hvcurveto
            -43 -29 -22 -41 -53 vvcurveto
            -186 hlineto
            95 40 77 79 61 vhcurveto
            60 79 102 30 125 hhcurveto
            141 110 -28 -56 79 hvcurveto
            79 -56 40 -78 -100 vvcurveto
            -57 -18 -52 -37 -47 vhcurveto
            -37 -47 -52 -38 -69 -27 79 -24 58 -36 38 -49 rrcurveto
            37 -49 19 -54 -61 vvcurveto
            return
          </CharString>
          <CharString index="260">
            29 312 1082 rmoveto
            11 -136 rlineto
            104 80 107 52 133 hhcurveto
            127 92 -33 -65 58 hvcurveto
            58 -66 29 -101 1 -136 rrcurveto
            -1116 -185 1105 vlineto
            91 -18 66 -36 41 vhcurveto
            41 -36 -61 21 -85 hhcurveto
            -61 -53 -14 -29 -43 hvcurveto
            -43 -29 -33 -41 -23 -52 rrcurveto
            -785 -186 1082 vlineto
            return
          </CharString>
          <CharString index="261">
            462 1416 533 rmoveto
            -459 hlineto
            14 -384 rlineto
            550 -149 -730 hlineto
            -11 301 -410 0 -163 -301 -198 0 662 1165 rlineto
            809 -150 -540 hlineto
            12 -332 rlineto
            464 hlineto
            -965 -231 rmoveto
            324 hlineto
            -19 562 rlineto
            return
          </CharString>
          <CharString index="262">
            -104 475 316 rmoveto
            23 -100 25 100 157 543 rlineto
            161 51 83 81 115 hhcurveto
            47 36 -8 -16 23 hvcurveto
            -21 -148 rlineto
            5 -9 -14 3 -19 hhcurveto
            -21 -20 -8 -16 -20 hvcurveto
            -20 -16 -15 -23 -11 -30 rrcurveto
            -297 -844 -141 0 -381 1082 rlineto
            189 hlineto
            return
          </CharString>
          <CharString index="263">
            159 579 374 rmoveto
            33 -130 35 129 264 831 34 101 39 70 45 40 rlinecurve
            40 45 56 20 69 hhcurveto
            46 -1 -1 -171 rlineto
            -43 -32 -10 -20 -21 hvcurveto
            -21 -20 -21 -38 -21 -56 rrcurveto
            -388 -1159 -170 0 -505 1456 rlineto
            208 hlineto
            return
          </CharString>
          <CharString index="264">
            131 167 vvcurveto
            -80 19 -60 39 -39 58 rrcurveto
            -40 58 -20 74 89 vvcurveto
            147 hlineto
            -98 34 -65 67 -32 vhcurveto
            13 87 29 77 44 67 44 67 55 51 67 37 rrcurveto
            37 67 70 18 75 -88 callgsubr
            116 95 49 97 74 hvcurveto
            113 -88 rlineto
            -25 callgsubr
            return
          </CharString>
          <CharString index="265">
            hlineto
            189 148 -51 -101 105 hvcurveto
            105 -102 53 -142 -181 vvcurveto
            -176 -41 -135 -81 -93 vhcurveto
            -94 -82 -117 -47 -152 hhcurveto
            -2 147 rlineto
            97 72 33 65 48 hvcurveto
            48 65 24 100 135 vvcurveto
            -1 135 -34 103 -68 71 rrcurveto
            71 -68 -103 35 -137 hhcurveto
            return
          </CharString>
          <CharString index="266">
            339 1082 rmoveto
            -633 vlineto
            1 -109 17 -80 35 -52 rrcurveto
            -52 34 56 -26 77 hhcurveto
            133 87 51 101 41 hvcurveto
            800 186 -1082 -167 vlineto
            -9 115 rlineto
            -90 -62 -88 -45 -113 hhcurveto
            -98 -76 24 49 -54 hvcurveto
            -469 -185 1498 vlineto
            endchar
          </CharString>
          <CharString index="267">
            959 0 -288 -479 rlineto
            137 -7 102 -39 66 -70 65 -71 34 -104 1 -139 rrcurveto
            -173 -186 177 vlineto
            -1 97 -20 71 -38 43 rrcurveto
            43 -39 -66 21 -93 hhcurveto
            -53 hlineto
            -11 -19 rlineto
            -433 -185 443 vlineto
            -6 9 rlineto
            return
          </CharString>
          <CharString index="268">
            rlineto
            133 41 106 82 79 vhcurveto
            79 81 108 40 133 hhcurveto
            127 100 -35 -71 74 hvcurveto
            74 -71 37 -94 -118 vvcurveto
            -191 hlineto
            71 -21 57 -42 41 vhcurveto
            41 -43 -58 21 -74 hhcurveto
            -70 -57 -26 -51 -43 hvcurveto
            -43 -51 -22 -68 -83 vvcurveto
            return
          </CharString>
          <CharString index="269">
            -4 134 32 106 68 79 rlinecurve
            79 67 94 39 121 hhcurveto
            122 95 -34 -68 67 hvcurveto
            67 -68 34 -95 -122 vvcurveto
            -185 hlineto
            75 -17 57 -35 40 vhcurveto
            39 -35 -49 20 -64 hhcurveto
            -62 -48 -24 -47 -35 hvcurveto
            -35 -48 -16 -70 3 -92 return
          </CharString>
          <CharString index="270">
            -12 -52 rlineto
            102 -18 51 -58 -97 vvcurveto
            -65 -27 -51 -53 -37 vhcurveto
            -38 -53 -75 -19 -95 hhcurveto
            -7 107 rlineto
            53 41 9 17 29 hvcurveto
            29 17 14 25 31 vvcurveto
            29 -11 22 -21 14 vhcurveto
            -21 14 -44 10 -65 6 32 134 rcurveline
            endchar
          </CharString>
          <CharString index="271">
            vvcurveto
            185 hlineto
            3 -57 24 -45 44 -32 rrcurveto
            -32 43 62 -16 81 hhcurveto
            91 69 16 32 49 hvcurveto
            49 32 24 45 59 vvcurveto
            129 -86 66 -171 3 vhcurveto
            -157 152 156 hlineto
            159 3 80 59 114 vvcurveto
            endchar
          </CharString>
          <CharString index="272">
            -159 -127 43 86 -95 hvcurveto
            -95 86 -48 118 -1 151 rrcurveto
            992 190 -986 vlineto
            -105 29 -82 58 -58 vhcurveto
            -59 58 83 -29 107 hhcurveto
            109 83 29 58 58 hvcurveto
            57 58 29 82 105 vvcurveto
            987 vlineto
            return
          </CharString>
          <CharString index="273">
            939 rmoveto
            -202 -671 hlineto
            -43 9 -33 18 -21 vhcurveto
            -22 18 31 -11 43 hhcurveto
            23 29 4 8 35 hvcurveto
            1 -150 rlineto
            -13 -49 -47 -7 -47 hhcurveto
            -83 -62 25 50 -42 hvcurveto
            -42 50 -21 71 92 vvcurveto
            671 return
          </CharString>
          <CharString index="274">
            rmoveto
            173 -35 132 -69 93 vhcurveto
            92 -69 -97 46 -125 hhcurveto
            -121 -96 -31 callgsubr
            return
          </CharString>
          <CharString index="275">
            -99 -502 -186 502 -100 hlineto
            -315 -502 -234 0 390 593 -354 572 224 0 300 -509 rlineto
            89 509 186 -509 89 hlineto
            300 509 return
          </CharString>
          <CharString index="276">
            hlineto
            -23 -422 rlineto
            -13 -185 -33 -130 -52 -76 -52 -76 -81 -39 -110 -1 rrcurveto
            -65 163 hlineto
            54 4 rlineto
            57 7 41 31 26 56 25 55 17 98 9 141 23 527 rcurveline
            return
          </CharString>
          <CharString index="277">
            902 489 rmoveto
            202 -151 -202 -338 -186 338 -663 109 hlineto
            652 1009 rlineto
            197 hlineto
            -639 -967 rmoveto
            453 714 hlineto
            -22 -40 rlineto
            endchar
          </CharString>
          <CharString index="278">
            rmoveto
            -123 25 -96 51 -69 vhcurveto
            -69 51 70 -35 89 hhcurveto
            117 86 53 105 54 hvcurveto
            497 vlineto
            102 -55 -85 51 -115 hhcurveto
            -91 -70 -35 -70 -51 hvcurveto
            -51 -70 -25 -104 -137 vvcurveto
            return
          </CharString>
          <CharString index="279">
            rmoveto
            116 322 rlineto
            196 -21 hlineto
            -223 -317 rlineto
            -89 hlineto
            -290 338 rmoveto
            168 -91 hlineto
            2 -82 28 -69 53 -57 -73 -59 rcurveline
            -119 63 -59 94 125 vvcurveto
            endchar
          </CharString>
        <CharString name=".notdef">
          -223 808 hmoveto
          -708 1456 708 hlineto
          -54 -1372 rmoveto
          1287 vlineto
          -274 -643 rlineto
          -326 631 rmoveto
          -1263 vlineto
          268 632 rlineto
          -228 -674 rmoveto
          515 hlineto
          -258 606 rlineto
          136 vmoveto
          258 606 rlineto
          -515 hlineto
          endchar
        </CharString>
        <CharString name="A">
          -100 callsubr
          endchar
        </CharString>
        <CharString name="AE">
          61 callsubr
          endchar
        </CharString>
        <CharString name="AEacute">
          61 callsubr
          86 598 -105 callsubr
        </CharString>
        <CharString name="Aacute">
          -100 callsubr
          95 627 -105 callsubr
        </CharString>
        <CharString name="Abreve">
          -100 callsubr
          304 587 -101 callsubr
        </CharString>
        <CharString name="Acircumflex">
          -100 callsubr
          307 353 -103 callsubr
        </CharString>
        <CharString name="Adieresis">
          -100 callsubr
          -318 462 -107 callsubr
          -104 callsubr
        </CharString>
        <CharString name="Agrave">
          -100 callsubr
          110 333 -102 callsubr
        </CharString>
        <CharString name="Alpha">
          -100 callsubr
          endchar
        </CharString>
        <CharString name="Alphatonos">
          -100 callsubr
          -427 380 -90 callsubr
        </CharString>
        <CharString name="Amacron">
          -100 callsubr
          345 401 -88 callsubr
        </CharString>
        <CharString name="Aogonek">
          752 1456 rmoveto
          557 -1456 -38 0 -61 callsubr
          96 56 84 113 72 vhcurveto
          -135 371 -610 0 -137 -380 -198 0 556 1456 rlineto
          -163 -918 rmoveto
          495 hlineto
          -248 681 rlineto
          endchar
        </CharString>
        <CharString name="Aring">
          -100 callsubr
          219 510 -43 callsubr
        </CharString>
        <CharString name="Aringacute">
          -100 callsubr
          111 721 10 callsubr
        </CharString>
        <CharString name="Atilde">
          -100 callsubr
          359 595 -97 callsubr
        </CharString>
        <CharString name="B">
          144 48 callsubr
        </CharString>
        <CharString name="Beta">
          144 48 callsubr
        </CharString>
        <CharString name="C">
          -55 callsubr
          endchar
        </CharString>
        <CharString name="Cacute">
          -55 callsubr
          -277 1417 -105 callsubr
        </CharString>
        <CharString name="Ccaron">
          -55 callsubr
          -369 1247 -92 callsubr
        </CharString>
        <CharString name="Ccedilla">
          -55 callsubr
          -296 -471 rmoveto
          163 callsubr
        </CharString>
        <CharString name="Ccircumflex">
          -55 callsubr
          -65 1143 -103 callsubr
        </CharString>
        <CharString name="Cdotaccent">
          -55 callsubr
          -477 1248 -107 callsubr
          -106 callsubr
        </CharString>
        <CharString name="Chi">
          153 75 callsubr
          endchar
        </CharString>
        <CharString name="D">
          19 callsubr
          endchar
        </CharString>
        <CharString name="Dcaron">
          19 callsubr
          22 390 -92 callsubr
        </CharString>
        <CharString name="Dcroat">
          242 199 hmoveto
          666 -192 151 192 639 70 callsubr
          -103 callgsubr
        </CharString>
        <CharString name="E">
          -95 callsubr
          -93 callsubr
          endchar
        </CharString>
        <CharString name="Eacute">
          -95 callsubr
          -93 callsubr
          -282 1028 -105 callsubr
        </CharString>
        <CharString name="Ebreve">
          -95 callsubr
          -93 callsubr
          -73 988 -101 callsubr
        </CharString>
        <CharString name="Ecaron">
          -95 callsubr
          -93 callsubr
          -374 858 -92 callsubr
        </CharString>
        <CharString name="Ecircumflex">
          -95 callsubr
          -93 callsubr
          -70 754 -103 callsubr
        </CharString>
        <CharString name="Edieresis">
          -95 callsubr
          -93 callsubr
          -695 863 -107 callsubr
          -104 callsubr
        </CharString>
        <CharString name="Edotaccent">
          -95 callsubr
          -93 callsubr
          -482 859 -107 callsubr
          -106 callsubr
        </CharString>
        <CharString name="Egrave">
          -95 callsubr
          -93 callsubr
          -267 734 -102 callsubr
        </CharString>
        <CharString name="Emacron">
          -95 callsubr
          -93 callsubr
          -32 802 -88 callsubr
        </CharString>
        <CharString name="Eng">
          288 1265 1456 rmoveto
          -27 callgsubr
          -41 -5 callgsubr
          91 45 69 139 hvcurveto
          71 vlineto
          -717 1130 rlineto
          -1130 -6 callsubr
          vlineto
          717 -1128 rlineto
          1128 vlineto
          endchar
        </CharString>
        <CharString name="Eogonek">
          -95 callsubr
          -73 hlineto
          -61 callsubr
          92 52 81 103 70 vhcurveto
          -675 -1 callgsubr
          endchar
        </CharString>
        <CharString name="Epsilon">
          -95 callsubr
          -93 callsubr
          endchar
        </CharString>
        <CharString name="Epsilontonos">
          -95 callsubr
          -93 callsubr
          -1153 769 -90 callsubr
        </CharString>
        <CharString name="Eta">
          -77 callsubr
          -48 callsubr
          endchar
        </CharString>
        <CharString name="Etatonos">
          -77 callsubr
          -48 callsubr
          -1435 145 -90 callsubr
        </CharString>
        <CharString name="Eth">
          242 199 hmoveto
          666 -192 151 192 639 70 callsubr
          -103 callgsubr
        </CharString>
        <CharString name="Euro">
          19 849 541 rmoveto
          -384 hlineto
          3 -130 31 -100 60 -70 rrcurveto
          -70 60 85 -35 110 hhcurveto
          77 73 11 23 68 hvcurveto
          20 -160 rlineto
          -20 -80 -80 -10 -80 hhcurveto
          -165 -130 49 98 -95 hvcurveto
          -95 97 -50 138 -4 179 rrcurveto
          -178 124 178 137 -178 125 178 hlineto
          7 175 51 135 95 96 rrcurveto
          95 95 128 48 162 hhcurveto
          71 80 -10 -21 90 hvcurveto
          -20 -162 rlineto
          23 -73 -73 12 -73 hhcurveto
          -109 -84 -34 -67 -59 hvcurveto
          -59 -68 -32 -97 -4 -125 rrcurveto
          383 -125 -384 -137 384 hlineto
          endchar
        </CharString>
        <CharString name="F">
          -66 callgsubr
          endchar
        </CharString>
        <CharString name="G">
          -32 callsubr
          endchar
        </CharString>
        <CharString name="Gamma">
          8 8 callsubr
          6 callsubr
          endchar
        </CharString>
        <CharString name="Gbreve">
          -32 callsubr
          -273 1114 -101 callsubr
        </CharString>
        <CharString name="Gcircumflex">
          -32 callsubr
          -270 880 -103 callsubr
        </CharString>
        <CharString name="Gdotaccent">
          -32 callsubr
          -682 985 -107 callsubr
          -106 callsubr
        </CharString>
        <CharString name="H">
          -77 callsubr
          -48 callsubr
          endchar
        </CharString>
        <CharString name="Hbar">
          303 1282 1166 rmoveto
          134 -142 -134 -1024 -193 673 -733 -673 -193 1024 -134 142 134 290 193 -290 733 290 193 hlineto
          -926 -626 rmoveto
          733 194 -733 hlineto
          endchar
        </CharString>
        <CharString name="Hcircumflex">
          -77 callsubr
          -48 callsubr
          -273 128 -103 callsubr
        </CharString>
        <CharString name="I">
          -86 callsubr
          endchar
        </CharString>
        <CharString name="IJ">
          556 375 hmoveto
          -6 callsubr
          hlineto
          961 hmoveto
          62 callsubr
        </CharString>
        <CharString name="Iacute">
          -86 callsubr
          -6 402 -105 callsubr
        </CharString>
        <CharString name="Ibreve">
          -86 callsubr
          204 362 -101 callsubr
        </CharString>
        <CharString name="Icircumflex">
          -86 callsubr
          207 128 -103 callsubr
        </CharString>
        <CharString name="Idieresis">
          -86 callsubr
          -418 237 -107 callsubr
          -104 callsubr
        </CharString>
        <CharString name="Idotaccent">
          -86 callsubr
          -206 233 -107 callsubr
          -106 callsubr
        </CharString>
        <CharString name="Igrave">
          -86 callsubr
          10 108 -102 callsubr
        </CharString>
        <CharString name="Imacron">
          -86 callsubr
          245 176 -88 callsubr
        </CharString>
        <CharString name="Iogonek">
          -86 callsubr
          -19 -1447 -64 callsubr
        </CharString>
        <CharString name="Iota">
          -86 callsubr
          endchar
        </CharString>
        <CharString name="Iotadieresis">
          -86 callsubr
          -418 237 -107 callsubr
          -104 callsubr
        </CharString>
        <CharString name="Iotatonos">
          -86 callsubr
          -516 144 -90 callsubr
        </CharString>
        <CharString name="Itilde">
          -86 callsubr
          259 370 -97 callsubr
        </CharString>
        <CharString name="J">
          -1 779 1456 rmoveto
          62 callsubr
        </CharString>
        <CharString name="Jcircumflex">
          -1 779 1456 rmoveto
          193 -1031 hlineto
          -139 -42 -109 -83 -79 vhcurveto
          -79 -84 -112 -39 -139 hhcurveto
          -145 -112 37 74 -81 hvcurveto
          -81 74 -40 104 133 vvcurveto
          192 hlineto
          -83 23 -65 46 -47 vhcurveto
          -47 45 66 -23 87 hhcurveto
          79 65 25 50 49 hvcurveto
          49 50 24 70 1 90 rrcurveto
          375 1149 -103 callsubr
        </CharString>
        <CharString name="K">
          -22 callsubr
          endchar
        </CharString>
        <CharString name="Kappa">
          -22 callsubr
          endchar
        </CharString>
        <CharString name="L">
          -16 callsubr
          endchar
        </CharString>
        <CharString name="Lacute">
          -16 callsubr
          -8 385 -105 callsubr
        </CharString>
        <CharString name="Lambda">
          211 666 1161 rmoveto
          -410 -1161 -206 0 530 1456 172 0 531 -1456 rlineto
          -207 hlineto
          endchar
        </CharString>
        <CharString name="Lcaron">
          -16 callsubr
          304 -399 -99 callsubr
        </CharString>
        <CharString name="Ldot">
          -16 callsubr
          223 -660 -107 callsubr
          -106 callsubr
        </CharString>
        <CharString name="Lslash">
          -28 361 843 rmoveto
          263 84 0 -125 -263 -84 rlineto
          -561 690 -157 -883 657 vlineto
          -134 -42 0 125 134 42 rlineto
          674 193 vlineto
          endchar
        </CharString>
        <CharString name="M">
          657 -26 callsubr
          endchar
        </CharString>
        <CharString name="Mu">
          657 -26 callsubr
          endchar
        </CharString>
        <CharString name="N">
          -77 callsubr
          -50 callsubr
          endchar
        </CharString>
        <CharString name="Nacute">
          -77 callsubr
          -50 callsubr
          -471 390 -105 callsubr
        </CharString>
        <CharString name="Ncaron">
          -77 callsubr
          -50 callsubr
          -563 220 -92 callsubr
        </CharString>
        <CharString name="Ntilde">
          -77 callsubr
          -50 callsubr
          -207 358 -97 callsubr
        </CharString>
        <CharString name="Nu">
          -77 callsubr
          -50 callsubr
          endchar
        </CharString>
        <CharString name="O">
          -89 callsubr
          -96 callsubr
          -94 callsubr
          endchar
        </CharString>
        <CharString name="OE">
          822 1801 hmoveto
          -848 hlineto
          -14 -119 -97 -7 -76 hhcurveto
          -108 -96 25 50 -85 hvcurveto
          -85 50 -65 70 -47 91 -47 90 -23 102 -1 114 rrcurveto
          309 vlineto
          115 23 103 47 91 vhcurveto
          46 91 65 70 85 51 rrcurveto
          50 85 96 25 108 hhcurveto
          83 98 -7 -13 113 hvcurveto
          838 -158 -723 -468 631 -157 -631 -516 733 hlineto
          -1140 -27 rmoveto
          75 72 5 9 68 hvcurveto
          1166 vlineto
          10 -73 -72 5 -72 hhcurveto
          -115 -90 -38 -76 -65 hvcurveto
          -65 -77 -33 -107 -1 -138 rrcurveto
          -313 vlineto
          -141 33 -109 65 -78 vhcurveto
          -79 65 91 -39 117 hhcurveto
          endchar
        </CharString>
        <CharString name="Oacute">
          -89 callsubr
          -96 callsubr
          -94 callsubr
          -301 1181 -105 callsubr
        </CharString>
        <CharString name="Obreve">
          -89 callsubr
          -96 callsubr
          -94 callsubr
          -92 1141 -101 callsubr
        </CharString>
        <CharString name="Ocircumflex">
          -89 callsubr
          -96 callsubr
          -94 callsubr
          -89 907 -103 callsubr
        </CharString>
        <CharString name="Odieresis">
          -89 callsubr
          -96 callsubr
          -94 callsubr
          -714 1016 -107 callsubr
          -104 callsubr
        </CharString>
        <CharString name="Ograve">
          -89 callsubr
          -96 callsubr
          -94 callsubr
          -286 887 -102 callsubr
        </CharString>
        <CharString name="Ohorn">
          -33 callsubr
          endchar
        </CharString>
        <CharString name="Ohungarumlaut">
          -89 callsubr
          -96 callsubr
          -94 callsubr
          -130 1180 -62 callsubr
        </CharString>
        <CharString name="Omacron">
          -89 callsubr
          -96 callsubr
          -94 callsubr
          -51 955 -88 callsubr
        </CharString>
        <CharString name="Omegatonos">
          251 757 121 callsubr
          -726 1599 -90 callsubr
        </CharString>
        <CharString name="Omicron">
          -89 callsubr
          -96 callsubr
          -94 callsubr
          endchar
        </CharString>
        <CharString name="Omicrontonos">
          297 1309 -17 callsubr
          -96 callsubr
          -94 callsubr
          -1090 932 -90 callsubr
        </CharString>
        <CharString name="Oslash">
          -89 callsubr
          114 callsubr
          endchar
        </CharString>
        <CharString name="Oslashacute">
          -89 callsubr
          114 callsubr
          -293 1253 -105 callsubr
        </CharString>
        <CharString name="Otilde">
          -89 callsubr
          -96 callsubr
          -94 callsubr
          -37 1149 -97 callsubr
        </CharString>
        <CharString name="P">
          161 56 callsubr
        </CharString>
        <CharString name="Phi">
          336 834 1271 rmoveto
          107 -2 97 -24 86 -46 85 -46 67 -65 48 -83 rrcurveto
          48 -83 24 -94 -104 vvcurveto
          -105 -24 -95 -47 -83 vhcurveto
          -48 -83 -66 -65 -85 -45 -85 -46 -98 -24 -109 -3 rrcurveto
          -175 -194 175 vlineto
          -167 3 -136 52 -104 101 rrcurveto
          -104 101 -52 130 160 vvcurveto
          99 21 89 42 79 vhcurveto
          41 79 60 64 77 49 93 58 107 30 122 2 rrcurveto
          185 194 vlineto
          -566 -734 rmoveto
          -123 32 -94 65 -67 vhcurveto
          65 -67 91 -34 119 -3 rrcurveto
          777 vlineto
          -120 -3 -92 -35 -64 -67 rrcurveto
          -64 -67 -32 -95 -122 vvcurveto
          937 2 rmoveto
          121 -32 94 -64 67 vhcurveto
          -65 67 -91 35 -119 3 rrcurveto
          -777 vlineto
          120 3 92 35 64 68 rrcurveto
          63 67 32 95 122 vvcurveto
          endchar
        </CharString>
        <CharString name="Pi">
          330 1281 hmoveto
          90 callsubr
        </CharString>
        <CharString name="Psi">
          286 147 callsubr
        </CharString>
        <CharString name="Q">
          277 1281 681 rmoveto
          -141 -22 -121 -45 -101 vhcurveto
          -45 -102 -62 -80 -81 -57 rrcurveto
          260 -204 -131 -121 -307 244 rlineto
          -12 -48 -51 -6 -53 hhcurveto
          -96 callsubr
          104 -28 -57 89 hvcurveto
          89 -57 68 -81 48 -106 rrcurveto
          48 -107 24 -124 -142 vvcurveto
          -192 1 rmoveto
          171 -34 133 -68 93 vhcurveto
          93 -69 -97 46 -127 hhcurveto
          -121 -95 -31 callgsubr
          -131 70 -96 vhcurveto
          -96 69 97 -48 124 hhcurveto
          124 96 45 91 68 hvcurveto
          68 90 35 129 2 169 rrcurveto
          endchar
        </CharString>
        <CharString name="R">
          130 -42 callsubr
          endchar
        </CharString>
        <CharString name="Racute">
          130 -42 callsubr
          339 548 -105 callsubr
        </CharString>
        <CharString name="Rcaron">
          130 -42 callsubr
          247 378 -92 callsubr
        </CharString>
        <CharString name="Rho">
          161 56 callsubr
        </CharString>
        <CharString name="S">
          -56 callsubr
          endchar
        </CharString>
        <CharString name="Sacute">
          -56 callsubr
          115 1199 -105 callsubr
        </CharString>
        <CharString name="Scaron">
          -56 callsubr
          23 1029 -92 callsubr
        </CharString>
        <CharString name="Scedilla">
          -56 callsubr
          102 -649 rmoveto
          163 callsubr
        </CharString>
        <CharString name="Scircumflex">
          -56 callsubr
          327 925 -103 callsubr
        </CharString>
        <CharString name="Sigma">
          38 754 718 rmoveto
          -445 -561 rlineto
          783 -157 -1023 143 hlineto
          481 586 -481 583 rlineto
          144 974 -158 -732 vlineto
          443 -556 rlineto
          endchar
        </CharString>
        <CharString name="T">
          -51 callsubr
          endchar
        </CharString>
        <CharString name="Tau">
          -51 callsubr
          endchar
        </CharString>
        <CharString name="Tbar">
          91 938 823 rmoveto
          -231 -823 -191 823 -214 151 214 324 -467 158 1126 -158 -468 -324 231 hlineto
          endchar
        </CharString>
        <CharString name="Tcaron">
          -51 callsubr
          -565 220 -92 callsubr
        </CharString>
        <CharString name="Theta">
          262 960 659 rmoveto
          -517 152 517 hlineto
          314 -130 18 callsubr
          -191 -11 167 callsubr
          -131 70 -96 vhcurveto
          -96 69 97 -48 125 hhcurveto
          124 96 45 91 68 hvcurveto
          68 90 35 129 2 169 rrcurveto
          endchar
        </CharString>
        <CharString name="Thorn">
          79 352 1456 rmoveto
          -293 279 vlineto
          98 86 -17 -35 73 hvcurveto
          73 -35 57 -50 40 -65 rrcurveto
          39 -65 20 -74 -84 vvcurveto
          -129 -44 -103 -88 -77 vhcurveto
          -77 -88 -120 -39 -151 hhcurveto
          -274 -313 -186 1456 hlineto
          186 -445 rmoveto
          -546 277 vlineto
          95 74 25 51 53 hvcurveto
          53 50 27 65 80 vvcurveto
          82 -27 66 -53 51 vhcurveto
          -53 50 -72 25 -91 1 rrcurveto
          endchar
        </CharString>
        <CharString name="U">
          -82 callsubr
          endchar
        </CharString>
        <CharString name="Uacute">
          -82 callsubr
          -243 390 -105 callsubr
        </CharString>
        <CharString name="Ubreve">
          -82 callsubr
          -34 350 -101 callsubr
        </CharString>
        <CharString name="Ucircumflex">
          -82 callsubr
          -31 116 -103 callsubr
        </CharString>
        <CharString name="Udieresis">
          -82 callsubr
          -656 225 -107 callsubr
          -104 callsubr
        </CharString>
        <CharString name="Ugrave">
          -82 callsubr
          -228 96 -102 callsubr
        </CharString>
        <CharString name="Uhorn">
          -30 callsubr
          endchar
        </CharString>
        <CharString name="Uhungarumlaut">
          -82 callsubr
          -72 389 -62 callsubr
        </CharString>
        <CharString name="Umacron">
          -82 callsubr
          7 164 -88 callsubr
        </CharString>
        <CharString name="Uogonek">
          197 1194 1456 rmoveto
          -991 vlineto
          -1 -99 -23 -87 -46 -75 -46 -75 -67 -58 -87 -39 rrcurveto
          -103 -76 -52 -70 -64 79 callsubr
          65 26 60 53 55 vhcurveto
          -22 -1 rlineto
          165 callsubr
          endchar
        </CharString>
        <CharString name="Upsilon">
          -67 callsubr
          endchar
        </CharString>
        <CharString name="Upsilon1">
          -41 548 149 callsubr
          endchar
        </CharString>
        <CharString name="Upsilondieresis">
          -67 callsubr
          60 225 -107 callsubr
          -104 callsubr
        </CharString>
        <CharString name="Upsilontonos">
          199 713 -77 callgsubr
          -517 143 -90 callsubr
        </CharString>
        <CharString name="Uring">
          -82 callsubr
          -119 273 -43 callsubr
        </CharString>
        <CharString name="Utilde">
          -82 callsubr
          21 358 -97 callsubr
        </CharString>
        <CharString name="V">
          80 callsubr
          endchar
        </CharString>
        <CharString name="W">
          -28 callsubr
          endchar
        </CharString>
        <CharString name="Wacute">
          -28 callsubr
          762 390 -105 callsubr
        </CharString>
        <CharString name="Wcircumflex">
          -28 callsubr
          974 116 -103 callsubr
        </CharString>
        <CharString name="Wdieresis">
          -28 callsubr
          349 225 -107 callsubr
          -104 callsubr
        </CharString>
        <CharString name="Wgrave">
          -28 callsubr
          777 96 -102 callsubr
        </CharString>
        <CharString name="X">
          153 75 callsubr
          endchar
        </CharString>
        <CharString name="Xi">
          38 120 157 rmoveto
          937 -157 -937 hlineto
          87 831 rmoveto
          754 -157 -754 hlineto
          -83 782 rmoveto
          916 -158 -916 hlineto
          endchar
        </CharString>
        <CharString name="Y">
          -67 callsubr
          endchar
        </CharString>
        <CharString name="Yacute">
          -67 callsubr
          473 390 -105 callsubr
        </CharString>
        <CharString name="Ycircumflex">
          -67 callsubr
          685 116 -103 callsubr
        </CharString>
        <CharString name="Ydieresis">
          -67 callsubr
          60 225 -107 callsubr
          -104 callsubr
        </CharString>
        <CharString name="Ygrave">
          -67 callsubr
          488 96 -102 callsubr
        </CharString>
        <CharString name="Z">
          -19 callsubr
          endchar
        </CharString>
        <CharString name="Zacute">
          -19 callsubr
          -407 531 -105 callsubr
        </CharString>
        <CharString name="Zcaron">
          -19 callsubr
          -499 361 -92 callsubr
        </CharString>
        <CharString name="Zdotaccent">
          -19 callsubr
          -607 362 -107 callsubr
          -106 callsubr
        </CharString>
        <CharString name="Zeta">
          -19 callsubr
          endchar
        </CharString>
        <CharString name="a">
          -98 callsubr
          endchar
        </CharString>
        <CharString name="aacute">
          -98 callsubr
          171 1395 -105 callsubr
        </CharString>
        <CharString name="abreve">
          -98 callsubr
          380 1355 -101 callsubr
        </CharString>
        <CharString name="acircumflex">
          -98 callsubr
          383 1121 -103 callsubr
        </CharString>
        <CharString name="acute">
          -489 316 1536 -105 callsubr
        </CharString>
        <CharString name="acutecomb">
          -1131 -464 1536 -105 callsubr
        </CharString>
        <CharString name="adieresis">
          -98 callsubr
          -242 1230 -107 callsubr
          -104 callsubr
        </CharString>
        <CharString name="ae">
          42 callsubr
          endchar
        </CharString>
        <CharString name="aeacute">
          42 callsubr
          -268 587 -105 callsubr
        </CharString>
        <CharString name="agrave">
          -98 callsubr
          186 1101 -102 callsubr
        </CharString>
        <CharString name="alpha">
          140 callsubr
          endchar
        </CharString>
        <CharString name="alphatonos">
          140 callsubr
          325 1094 -90 callsubr
        </CharString>
        <CharString name="amacron">
          -98 callsubr
          421 1169 -88 callsubr
        </CharString>
        <CharString name="ampersand">
          142 101 391 rmoveto
          70 20 64 39 59 vhcurveto
          39 59 74 68 110 78 -65 79 -43 63 -22 48 rrcurveto
          -22 48 -11 48 47 vvcurveto
          111 33 86 65 63 vhcurveto
          63 65 89 31 112 hhcurveto
          100 83 -29 -58 65 hvcurveto
          65 -59 33 -73 -89 vvcurveto
          -59 -15 -54 -29 -49 vhcurveto
          -30 -50 -52 -52 -74 -55 rrcurveto
          -107 -79 324 -387 rlineto
          45 87 23 96 106 vvcurveto
          167 hlineto
          -170 -41 -141 -82 -112 vhcurveto
          208 -249 -222 0 -97 115 -49 -44 -58 -33 -66 -23 rlinecurve
          -23 -67 -67 -12 -69 hhcurveto
          -142 -114 38 75 -86 hvcurveto
          -86 75 -43 100 123 vvcurveto
          471 -260 rmoveto
          98 90 37 75 81 hvcurveto
          -355 425 -33 -24 rlineto
          -111 -82 -56 -84 -87 vvcurveto
          -79 26 -63 51 -47 vhcurveto
          -47 51 69 -24 89 hhcurveto
          -167 997 rmoveto
          -64 39 -80 79 -96 vhcurveto
          118 83 45 32 31 31 17 29 rlinecurve
          17 29 8 35 41 vvcurveto
          45 -17 37 -33 30 vhcurveto
          29 -33 -42 15 -51 hhcurveto
          -55 -43 -18 -37 -32 hvcurveto
          -32 -37 -16 -47 -57 vvcurveto
          endchar
        </CharString>
        <CharString name="anoteleia">
          -596 147 729 rmoveto
          -83 callsubr
          -26 -19 -21 vhcurveto
          -21 -20 -29 -12 callgsubr
        </CharString>
        <CharString name="aogonek">
          -17 804 7 rmoveto
          -10 25 -7 36 -5 46 rrcurveto
          -89 -86 -103 -45 -119 hhcurveto
          -107 -87 30 61 -68 hvcurveto
          -69 60 -34 76 93 vvcurveto
          113 43 87 86 63 vhcurveto
          62 85 121 31 155 hhcurveto
          180 85 hlineto
          65 -19 51 -39 39 vhcurveto
          38 -39 -57 19 -75 hhcurveto
          -66 -55 -17 -33 -45 hvcurveto
          -45 -33 -22 -41 -47 vvcurveto
          -186 hlineto
          54 19 52 39 51 vhcurveto
          38 50 52 40 66 29 rrcurveto
          29 65 72 15 79 hhcurveto
          125 97 -31 -62 71 hvcurveto
          71 -63 36 -86 3 -109 rrcurveto
          -498 vlineto
          -99 13 -79 25 -59 vhcurveto
          -16 -33 vlineto
          -61 callsubr
          96 56 83 111 71 vhcurveto
          -303 134 -98 callgsubr
          endchar
        </CharString>
        <CharString name="approxequal">
          23 102 901 rmoveto
          32 34 38 27 44 19 43 19 44 10 44 0 55 1 52 -11 49 -23 152 -78 rcurveline
          -21 44 48 -10 52 hhcurveto
          89 79 43 85 68 hvcurveto
          -190 vlineto
          -73 -69 -78 -36 -89 hhcurveto
          -52 -48 10 21 -44 hvcurveto
          -161 83 rlineto
          -45 21 -49 9 -53 12 callgsubr
          -1 -229 rmoveto
          32 34 38 27 43 20 43 19 44 10 44 0 55 1 52 -11 49 -23 149 -77 rcurveline
          -22 45 50 -11 53 hhcurveto
          89 78 43 85 68 hvcurveto
          1 -189 rlineto
          -73 -69 -78 -36 -89 hhcurveto
          -52 -48 10 21 -44 hvcurveto
          -152 78 rlineto
          -49 23 -52 11 -55 12 callgsubr
          endchar
        </CharString>
        <CharString name="aring">
          -98 callsubr
          295 1278 -43 callsubr
        </CharString>
        <CharString name="aringacute">
          -98 callsubr
          187 1490 10 callsubr
        </CharString>
        <CharString name="asciicircum">
          -275 426 1211 rmoveto
          -190 -482 -172 0 299 727 127 0 298 -727 rlineto
          -171 hlineto
          endchar
        </CharString>
        <CharString name="asciitilde">
          262 1263 777 rmoveto
          -105 -31 -89 -62 -72 vhcurveto
          -73 -63 -77 -36 -91 hhcurveto
          -48 -45 9 18 -43 hvcurveto
          -43 17 -49 34 -56 49 -57 49 -40 31 -25 12 rrcurveto
          12 -25 -26 6 -28 hhcurveto
          -52 -40 -18 -35 -28 hvcurveto
          -28 -36 -14 -49 -63 vvcurveto
          -161 -2 rlineto
          107 31 87 61 69 vhcurveto
          69 61 77 34 93 hhcurveto
          51 48 -11 -21 47 hvcurveto
          47 -21 52 -38 59 -53 59 -54 50 -30 43 -7 29 -2 rcurveline
          51 41 19 39 32 hvcurveto
          31 39 16 51 63 vvcurveto
          endchar
        </CharString>
        <CharString name="asterisk">
          -249 330 983 rmoveto
          -302 90 46 151 302 -112 -9 344 153 0 -10 -349 297 110 46 -152 -307 -91 198 -271 -124 -94 -186 288 -180 -281 -125 91 rlineto
          endchar
        </CharString>
        <CharString name="at">
          708 1738 502 rmoveto
          -8 -161 -40 -128 -72 -93 rrcurveto
          -93 -72 -96 -47 -121 hhcurveto
          -125 -80 56 112 -35 hvcurveto
          -36 -57 -41 -42 -46 -27 rrcurveto
          -28 -47 -48 -14 -49 hhcurveto
          -95 -71 39 77 -49 hvcurveto
          -49 77 -18 107 13 137 10 110 25 98 41 87 40 86 52 68 64 49 rrcurveto
          49 63 67 25 70 hhcurveto
          54 48 -7 -14 43 hvcurveto
          43 -15 48 -28 53 -42 -52 -554 rcurveline
          -154 -13 43 -77 98 hhcurveto
          75 61 37 75 47 hvcurveto
          47 75 25 97 4 120 13 259 -48 198 -109 136 rrcurveto
          136 -109 -166 68 -223 hhcurveto
          -134 -119 -33 -66 -104 hvcurveto
          -104 -67 -82 -96 -60 -125 -60 -125 -34 -145 -7 -164 -8 -165 20 -144 48 -121 48 -122 73 -93 99 -64 rrcurveto
          -65 98 119 -32 139 hhcurveto
          60 60 7 15 61 hvcurveto
          60 15 50 19 40 23 rrcurveto
          37 -115 -41 -26 -55 -21 -68 -17 rlinecurve
          -17 -69 -69 -8 -70 hhcurveto
          -167 -143 38 75 -120 hvcurveto
          -120 75 -90 108 -59 141 -60 141 -26 164 8 189 8 183 41 165 74 147 74 146 100 113 127 80 rrcurveto
          79 127 143 40 159 hhcurveto
          166 142 -37 -75 119 hvcurveto
          119 -75 88 -107 58 -141 58 -141 25 -164 -8 -189 rrcurveto
          -1026 -85 rmoveto
          -9 -95 9 -72 27 -51 rrcurveto
          -51 27 42 -25 59 hhcurveto
          40 39 17 34 37 hvcurveto
          37 34 30 49 24 63 rrcurveto
          1 9 46 503 rlineto
          19 -37 -40 10 -43 hhcurveto
          -78 -64 -40 -79 -51 hvcurveto
          -51 -79 -32 -109 -13 -137 rrcurveto
          endchar
        </CharString>
        <CharString name="atilde">
          -98 callsubr
          435 1363 -97 callsubr
        </CharString>
        <CharString name="b">
          143 callsubr
          endchar
        </CharString>
        <CharString name="backslash">
          -291 40 1456 rmoveto
          176 hlineto
          608 -1581 rlineto
          -176 hlineto
          endchar
        </CharString>
        <CharString name="bar">
          -632 324 -270 rmoveto
          -149 1726 149 hlineto
          endchar
        </CharString>
        <CharString name="beta">
          82 605 1476 rmoveto
          129 103 -36 -73 79 hvcurveto
          78 -73 39 -95 -116 vvcurveto
          -61 -16 -55 -33 -51 vhcurveto
          -33 -51 -45 -40 -59 -31 82 -30 63 -47 44 -65 rrcurveto
          43 -65 22 -76 -87 vvcurveto
          -137 -41 -108 -83 -79 vhcurveto
          -80 -83 -110 -40 -137 hhcurveto
          -121 -100 32 63 -80 hvcurveto
          -459 -186 1457 vlineto
          72 20 67 41 63 vhcurveto
          41 63 55 49 69 36 rrcurveto
          35 69 73 18 77 hhcurveto
          243 -389 rmoveto
          68 -23 57 -45 45 vhcurveto
          45 -45 -59 22 -71 hhcurveto
          -72 -61 -24 -47 -50 hvcurveto
          -50 -47 -25 -60 -1 -71 rrcurveto
          -829 vlineto
          29 -35 39 -27 48 -21 rrcurveto
          -21 48 55 -11 63 hhcurveto
          89 71 27 53 51 hvcurveto
          51 53 26 70 86 vvcurveto
          79 -23 67 -47 55 vhcurveto
          -47 55 -59 28 -73 2 rrcurveto
          -150 152 85 hlineto
          80 61 20 40 42 hvcurveto
          42 39 21 57 73 vvcurveto
          endchar
        </CharString>
        <CharString name="braceleft">
          -438 632 -366 rmoveto
          -118 33 -89 55 -59 77 rrcurveto
          -60 76 -30 101 125 vvcurveto
          199 vlineto
          162 -71 81 -141 vhcurveto
          145 vlineto
          141 71 81 161 hvcurveto
          208 vlineto
          1 122 30 99 59 75 58 75 89 54 119 34 38 -115 rcurveline
          -139 -45 -70 -116 -188 vvcurveto
          -202 vlineto
          -151 -56 -106 -111 -59 vhcurveto
          111 -60 56 -106 -153 vvcurveto
          -206 vlineto
          2 -183 70 -114 137 -44 rrcurveto
          endchar
        </CharString>
        <CharString name="braceright">
          -438 19 -251 rmoveto
          135 43 70 111 5 177 rrcurveto
          220 vlineto
          154 60 105 121 56 vhcurveto
          -121 55 -60 105 155 vvcurveto
          203 vlineto
          188 -70 116 -139 45 vhcurveto
          38 115 rlineto
          118 -33 89 -54 59 -75 59 -75 30 -100 1 -123 rrcurveto
          -210 vlineto
          -159 71 -80 141 vhcurveto
          -145 vlineto
          -141 -71 -81 -162 hvcurveto
          -202 vlineto
          -125 -30 -101 -60 -75 vhcurveto
          -61 -75 -88 -55 -117 -33 rrcurveto
          endchar
        </CharString>
        <CharString name="bracketleft">
          -588 523 1512 rmoveto
          -191 -1672 191 -152 -377 1976 377 hlineto
          endchar
        </CharString>
        <CharString name="bracketright">
          -588 9 1664 rmoveto
          378 -1976 -378 152 193 1672 -193 hlineto
          endchar
        </CharString>
        <CharString name="breve">
          -257 728 1495 -101 callsubr
        </CharString>
        <CharString name="brokenbar">
          -640 147 -270 rmoveto
          791 186 -791 vlineto
          968 vmoveto
          -186 758 186 hlineto
          endchar
        </CharString>
        <CharString name="bullet">
          -441 138 772 rmoveto
          58 19 48 37 37 vhcurveto
          37 37 49 19 61 hhcurveto
          61 49 -18 -36 38 hvcurveto
          38 -37 19 -49 -62 vvcurveto
          -37 vlineto
          -58 -18 -47 -37 -37 vhcurveto
          -37 -37 -49 -18 -63 hhcurveto
          -62 -49 19 37 -37 hvcurveto
          -37 37 -19 47 59 vvcurveto
          endchar
        </CharString>
        <CharString name="c">
          -54 callsubr
          endchar
        </CharString>
        <CharString name="cacute">
          -54 callsubr
          49 1405 -105 callsubr
        </CharString>
        <CharString name="caron">
          -222 449 1365 -92 callsubr
        </CharString>
        <CharString name="ccaron">
          -54 callsubr
          -43 1235 -92 callsubr
        </CharString>
        <CharString name="ccedilla">
          -54 callsubr
          30 -140 rmoveto
          163 callsubr
        </CharString>
        <CharString name="ccircumflex">
          -54 callsubr
          261 1131 -103 callsubr
        </CharString>
        <CharString name="cdotaccent">
          -54 callsubr
          -151 1236 -107 callsubr
          -106 callsubr
        </CharString>
        <CharString name="cedilla">
          -624 285 hmoveto
          163 callsubr
        </CharString>
        <CharString name="cent">
          -11 586 131 rmoveto
          67 58 20 41 49 hvcurveto
          49 40 28 50 5 59 rrcurveto
          175 hlineto
          -4 -84 -35 -75 -66 -67 -66 -67 -81 -43 -96 -17 rrcurveto
          -233 -185 234 vlineto
          -119 23 -93 58 -67 95 rrcurveto
          -67 95 -33 120 147 vvcurveto
          35 vlineto
          141 34 119 67 95 vhcurveto
          67 95 93 58 118 22 rrcurveto
          226 185 -223 vlineto
          100 -15 82 -43 64 -71 64 -71 34 -85 4 -100 rrcurveto
          -175 112 callsubr
          -50 callgsubr
          52 -67 vhcurveto
          -67 51 73 -34 94 hhcurveto
          endchar
        </CharString>
        <CharString name="chi">
          -116 145 1097 rmoveto
          116 87 -64 -128 59 hvcurveto
          149 -339 255 516 187 0 -352 -721 218 -498 41 -85 43 -44 45 -2 rlinecurve
          26 hlineto
          72 5 -47 -158 rlineto
          -10 -16 -20 -5 -25 hhcurveto
          -61 -50 16 31 -40 hvcurveto
          -40 31 -41 61 -41 89 rrcurveto
          -162 370 -281 -577 -196 0 387 784 -168 387 rlineto
          122 -49 -60 61 -71 hhcurveto
          -68 -5 -1 148 rlineto
          10 45 35 5 24 hhcurveto
          endchar
        </CharString>
        <CharString name="circumflex">
          -167 774 1262 -103 callsubr
        </CharString>
        <CharString name="colon">
          -635 134 97 rmoveto
          -83 callsubr
          -71 callsubr
          -68 callsubr
          1 883 rmoveto
          -83 callsubr
          -71 callsubr
          -68 callsubr
          endchar
        </CharString>
        <CharString name="comma">
          -729 134 -290 -65 callsubr
        </CharString>
        <CharString name="copyright">
          478 1119 597 rmoveto
          -102 -29 -78 -57 -53 vhcurveto
          -54 -58 -82 -27 -105 hhcurveto
          -105 -83 35 71 -63 hvcurveto
          -63 70 -32 96 121 vvcurveto
          110 vlineto
          117 32 94 64 71 vhcurveto
          70 63 84 35 103 hhcurveto
          107 82 -27 -55 57 hvcurveto
          57 -55 29 -77 -99 vvcurveto
          -146 hlineto
          66 -16 47 -31 29 vhcurveto
          28 -32 -46 14 -61 hhcurveto
          -63 -49 -23 -46 -36 hvcurveto
          -36 -46 -18 -64 -82 vvcurveto
          -113 vlineto
          -80 18 -63 36 -46 vhcurveto
          -46 36 49 -23 63 hhcurveto
          61 47 14 28 31 hvcurveto
          31 28 15 48 67 vvcurveto
          -767 132 rmoveto
          -52 callgsubr
          99 28 55 91 hvcurveto
          91 55 73 77 53 98 rrcurveto
          53 97 27 106 115 vvcurveto
          113 -26 105 -53 97 vhcurveto
          -53 97 -72 76 -91 -73 callgsubr
          -115 hmoveto
          141 callsubr
          endchar
        </CharString>
        <CharString name="currency">
          329 1103 112 rmoveto
          -88 -106 -123 -44 -139 hhcurveto
          -138 -122 43 87 -106 hvcurveto
          -134 -136 -130 135 139 141 rlineto
          -69 104 -35 119 135 vvcurveto
          137 37 123 75 109 vhcurveto
          -147 151 130 136 147 -150 rlineto
          80 105 118 40 130 hhcurveto
          131 118 -40 -81 106 hvcurveto
          149 152 132 -137 -151 -154 rlineto
          73 -109 37 -122 -135 vvcurveto
          -131 -34 -118 -68 -106 vhcurveto
          143 -144 -132 -136 rlineto
          -928 635 rmoveto
          -82 19 -76 39 -71 vhcurveto
          38 -71 52 -55 65 -41 rrcurveto
          -41 65 71 -20 75 hhcurveto
          75 71 21 41 65 hvcurveto
          65 41 52 55 38 71 rrcurveto
          37 70 19 76 82 vvcurveto
          81 -19 76 -37 71 vhcurveto
          -38 70 -52 55 -65 41 rrcurveto
          40 -66 -70 20 -75 hhcurveto
          -75 -71 -20 -40 -65 hvcurveto
          -65 -40 -52 -55 -38 -71 rrcurveto
          -39 -71 -19 -76 -81 vvcurveto
          endchar
        </CharString>
        <CharString name="d">
          24 -20 callsubr
          endchar
        </CharString>
        <CharString name="dagger">
          -2 1060 929 rmoveto
          -404 -929 -186 929 -400 153 400 374 186 -374 404 hlineto
          endchar
        </CharString>
        <CharString name="daggerdbl">
          36 1076 hmoveto
          -406 -416 -186 416 -397 151 397 778 -397 153 397 374 186 -374 406 -153 -406 -778 406 hlineto
          endchar
        </CharString>
        <CharString name="dcaron">
          174 -20 callsubr
          897 609 -99 callsubr
        </CharString>
        <CharString name="dcroat">
          92 1196 1233 rmoveto
          -188 -1233 -170 hlineto
          -65 callgsubr
          14 vlineto
          -54 callgsubr
          261 -264 151 264 152 185 -152 188 vlineto
          -916 -855 171 callsubr
          endchar
        </CharString>
        <CharString name="degree">
          -366 130 1216 rmoveto
          69 25 61 50 52 vhcurveto
          52 49 60 26 71 hhcurveto
          69 60 -26 -51 49 hvcurveto
          49 -52 24 -61 -70 vvcurveto
          -71 -24 -60 -49 -50 vhcurveto
          -50 -49 -60 -25 -69 hhcurveto
          -70 -60 25 50 -50 hvcurveto
          -50 50 -25 60 71 vvcurveto
          255 -128 rmoveto
          36 30 12 24 25 hvcurveto
          25 23 12 31 38 vvcurveto
          39 -12 32 -25 25 vhcurveto
          25 -25 -30 12 -36 hhcurveto
          -37 -30 -13 -26 -25 hvcurveto
          -25 -27 -13 -31 -36 vvcurveto
          -36 13 -30 25 -25 vhcurveto
          -25 25 30 -12 37 hhcurveto
          endchar
        </CharString>
        <CharString name="delta">
          29 221 1269 rmoveto
          91 34 72 68 53 vhcurveto
          53 67 92 26 117 hhcurveto
          93 91 -18 -37 89 hvcurveto
          -2 -160 rlineto
          39 -101 -91 20 -83 hhcurveto
          -57 -46 -12 -24 -33 hvcurveto
          -34 -24 -17 -33 -41 vvcurveto
          -72 74 -61 148 -51 vhcurveto
          147 -51 109 -71 69 -89 69 -90 36 -110 3 -131 rrcurveto
          -39 vlineto
          -102 -20 -91 -39 -81 vhcurveto
          -39 -81 -56 -63 -73 -44 rrcurveto
          -45 -73 -85 -22 -97 hhcurveto
          -148 -118 49 99 -87 hvcurveto
          -88 98 -44 130 161 vvcurveto
          13 vlineto
          110 31 99 63 88 vhcurveto
          63 88 79 56 96 23 rrcurveto
          -1 5 -66 26 -51 36 -35 47 rlinecurve
          -36 47 -18 53 61 vvcurveto
          62 -760 rmoveto
          -117 27 -93 54 -67 vhcurveto
          -68 53 73 -34 91 hhcurveto
          91 72 34 67 53 hvcurveto
          53 67 27 100 132 vvcurveto
          91 -28 82 -56 73 vhcurveto
          -57 73 -70 44 -83 17 rrcurveto
          -91 -72 -34 -68 -55 hvcurveto
          -55 -69 -27 -99 -131 vvcurveto
          endchar
        </CharString>
        <CharString name="dieresis">
          -275 101 1371 -107 callsubr
          -104 callsubr
        </CharString>
        <CharString name="dieresistonos">
          -96 481 1672 rmoveto
          188 hlineto
          -101 -264 rlineto
          -135 hlineto
          -320 -37 -107 callsubr
          20 18 7 callsubr
          -49 callsubr
          567 -2 -107 callsubr
          -106 callsubr
        </CharString>
        <CharString name="divide">
          38 1069 600 rmoveto
          -998 184 998 hlineto
          -608 314 rmoveto
          -83 callsubr
          -26 -19 -21 vhcurveto
          -21 -20 -29 -10 -38 hhcurveto
          -38 -28 10 21 -19 hvcurveto
          -19 21 -10 26 31 vvcurveto
          -817 vmoveto
          -83 callsubr
          -71 callsubr
          -11 -38 hhcurveto
          -38 -28 11 21 -19 hvcurveto
          -19 21 -10 25 31 vvcurveto
          endchar
        </CharString>
        <CharString name="dollar">
          19 856 375 rmoveto
          61 -21 52 -43 42 vhcurveto
          -43 42 -73 38 -102 34 -142 43 -103 57 -65 70 rrcurveto
          -65 69 -33 89 107 vvcurveto
          109 32 90 64 70 vhcurveto
          63 70 88 42 111 13 rrcurveto
          219 149 -220 vlineto
          112 -15 87 -47 63 -79 rrcurveto
          62 -79 31 -107 -137 vvcurveto
          -184 hlineto
          94 -22 75 -45 55 vhcurveto
          55 -45 -60 28 -76 hhcurveto
          -79 -61 -20 -41 -42 hvcurveto
          -42 -41 -21 -58 -73 vvcurveto
          -68 22 -54 45 -40 vhcurveto
          44 -41 73 -36 102 -33 101 -33 80 -37 57 -39 57 -40 42 -46 27 -53 rrcurveto
          27 -53 13 -61 -71 vvcurveto
          -113 -34 -90 -67 -69 vhcurveto
          -68 -69 -95 -40 -122 -13 rrcurveto
          -191 -148 191 vlineto
          -124 11 -97 45 -70 77 rrcurveto
          -71 77 -35 104 132 vvcurveto
          185 hlineto
          -93 24 -71 49 -50 vhcurveto
          -50 49 69 -25 89 hhcurveto
          87 69 21 42 50 hvcurveto
          50 42 25 57 73 vvcurveto
          endchar
        </CharString>
        <CharString name="dong">
          54 -20 callsubr
          916 705 rmoveto
          -636 151 636 hlineto
          -117 -1692 rmoveto
          -916 151 916 hlineto
          endchar
        </CharString>
        <CharString name="dotaccent">
          -634 141 1367 -107 callsubr
          -106 callsubr
        </CharString>
        <CharString name="dotbelowcomb">
          -1131 -712 -245 -107 callsubr
          -106 callsubr
        </CharString>
        <CharString name="dotlessi">
          -72 callsubr
          endchar
        </CharString>
        <CharString name="e">
          -91 callsubr
          endchar
        </CharString>
        <CharString name="eacute">
          -91 callsubr
          90 586 -105 callsubr
        </CharString>
        <CharString name="ebreve">
          -91 callsubr
          299 546 -101 callsubr
        </CharString>
        <CharString name="ecaron">
          -91 callsubr
          -2 416 -92 callsubr
        </CharString>
        <CharString name="ecircumflex">
          -91 callsubr
          302 312 -103 callsubr
        </CharString>
        <CharString name="edieresis">
          -91 callsubr
          -323 421 -107 callsubr
          -104 callsubr
        </CharString>
        <CharString name="edotaccent">
          -91 callsubr
          -110 417 -107 callsubr
          -106 callsubr
        </CharString>
        <CharString name="egrave">
          -91 callsubr
          105 292 -102 callsubr
        </CharString>
        <CharString name="eight">
          19 1004 43 callsubr
        </CharString>
        <CharString name="ellipsis">
          239 148 97 rmoveto
          -83 callsubr
          -71 callsubr
          -68 callsubr
          437 hmoveto
          -83 callsubr
          -71 callsubr
          -68 callsubr
          415 hmoveto
          -83 callsubr
          -71 callsubr
          -68 callsubr
          endchar
        </CharString>
        <CharString name="emacron">
          -91 callsubr
          340 360 -88 callsubr
        </CharString>
        <CharString name="emdash">
          468 -17 callgsubr
        </CharString>
        <CharString name="endash">
          213 1165 651 rmoveto
          -1002 151 1002 hlineto
          endchar
        </CharString>
        <CharString name="eng">
          29 311 1082 rmoveto
          13 -154 rlineto
          116 77 107 58 135 hhcurveto
          119 91 -35 -69 61 hvcurveto
          61 -69 32 -103 1 -135 rrcurveto
          -780 vlineto
          -109 -28 -86 -55 -61 vhcurveto
          -61 -56 -80 -31 -103 hhcurveto
          -41 -38 6 12 -36 hvcurveto
          14 157 rlineto
          -9 23 34 -4 44 hhcurveto
          91 46 65 129 hvcurveto
          759 vlineto
          93 -18 67 -37 43 vhcurveto
          43 -37 -61 21 -83 hhcurveto
          -117 -85 -44 -89 -54 hvcurveto
          -812 -186 1082 vlineto
          endchar
        </CharString>
        <CharString name="eogonek">
          -46 997 189 rmoveto
          -47 -73 -62 -55 -77 -36 rrcurveto
          1 hlineto
          -61 callsubr
          72 33 66 65 60 vhcurveto
          -145 3 -117 49 -89 97 rrcurveto
          -89 96 -45 128 159 vvcurveto
          33 -96 callgsubr
          rrcurveto
          -318 673 -78 callgsubr
          endchar
        </CharString>
        <CharString name="epsilon">
          -27 123 callsubr
          endchar
        </CharString>
        <CharString name="epsilontonos">
          -27 123 callsubr
          250 1289 -90 callsubr
        </CharString>
        <CharString name="equal">
          -7 986 814 rmoveto
          -834 161 834 hlineto
          -576 vmoveto
          -834 160 834 hlineto
          endchar
        </CharString>
        <CharString name="estimated">
          172 1046 94 rmoveto
          -76 -122 -123 -38 -125 hhcurveto
          -97 -89 26 53 -81 hvcurveto
          -81 52 -63 69 -45 86 rrcurveto
          -45 85 -23 92 98 vvcurveto
          95 24 91 48 87 vhcurveto
          48 86 65 70 83 53 rrcurveto
          53 83 85 26 88 hhcurveto
          89 82 -23 -46 76 hvcurveto
          75 -47 60 -63 44 -81 44 -81 23 -89 2 -96 rrcurveto
          -62 -768 -328 vlineto
          -73 79 91 -37 103 hhcurveto
          131 122 41 81 115 hvcurveto
          -368 810 rmoveto
          -101 -91 -41 -81 -81 hvcurveto
          -277 540 286 vlineto
          75 -77 -89 38 -101 hhcurveto
          endchar
        </CharString>
        <CharString name="eta">
          153 callsubr
          endchar
        </CharString>
        <CharString name="etatonos">
          153 callsubr
          418 512 -90 callsubr
        </CharString>
        <CharString name="eth">
          69 820 1301 rmoveto
          166 -176 83 -224 -273 vvcurveto
          -93 vlineto
          -105 -19 -95 -39 -84 vhcurveto
          -39 -85 -56 -66 -72 -48 rrcurveto
          -48 -72 -81 -24 -89 hhcurveto
          -90 -82 22 43 -73 hvcurveto
          -73 43 -57 58 -40 75 rrcurveto
          -41 75 -20 82 89 vvcurveto
          98 19 88 37 78 vhcurveto
          37 77 54 61 69 43 rrcurveto
          43 69 77 22 86 hhcurveto
          109 94 -38 -76 81 hvcurveto
          -32 130 -63 112 -94 94 rrcurveto
          -218 -148 -73 99 192 131 -88 61 -105 46 -122 33 rlinecurve
          57 159 159 -36 138 -64 117 -93 rlinecurve
          189 129 73 -100 rlineto
          -104 -781 rmoveto
          -2 56 -22 41 -34 32 -46 25 rlinecurve
          24 -47 -54 12 -61 hhcurveto
          -97 -75 -32 -63 -54 hvcurveto
          -54 -64 -27 -88 -111 vvcurveto
          -93 28 -80 56 -65 vhcurveto
          -65 55 71 -33 85 hhcurveto
          83 68 38 75 51 hvcurveto
          51 75 25 99 123 vvcurveto
          endchar
        </CharString>
        <CharString name="exclam">
          -604 347 411 rmoveto
          -167 hlineto
          -13 1045 rlineto
          194 hlineto
          -201 -1363 -107 callsubr
          20 -59 callsubr
          5 callsubr
          109 callsubr
        </CharString>
        <CharString name="exclamdbl">
          -77 347 411 rmoveto
          -167 hlineto
          -13 1045 rlineto
          194 hlineto
          -201 -1363 -107 callsubr
          20 -59 callsubr
          5 callsubr
          -19 105 callsubr
          19 -9 25 30 vvcurveto
          714 318 rmoveto
          -167 hlineto
          -13 1045 rlineto
          194 hlineto
          -201 -1363 -107 callsubr
          20 -59 callsubr
          5 callsubr
          109 callsubr
        </CharString>
        <CharString name="exclamdown">
          -632 170 684 rmoveto
          168 hlineto
          13 -1044 rlineto
          -194 hlineto
          201 1356 -63 callgsubr
          30 -13 callgsubr
          -30 vvcurveto
          endchar
        </CharString>
        <CharString name="f">
          -420 231 -11 callsubr
          -1 callsubr
          231 -143 -231 -939 vlineto
          endchar
        </CharString>
        <CharString name="five">
          19 134 callsubr
        </CharString>
        <CharString name="fiveeighths">
          612 120 1042 rmoveto
          50 148 callsubr
          304 -901 -60 callsubr
          328 -669 -34 callsubr
        </CharString>
        <CharString name="florin">
          -434 608 939 rmoveto
          -203 -1026 hlineto
          -111 -28 -86 -56 -61 vhcurveto
          -61 -56 -79 -31 -103 hhcurveto
          -41 -37 6 12 -33 hvcurveto
          14 -15 callsubr
          23 35 12 48 61 vvcurveto
          1028 -171 143 171 120 vlineto
          1 111 30 87 59 63 rrcurveto
          63 58 83 31 107 hhcurveto
          39 48 -7 -14 56 hvcurveto
          -22 -147 rlineto
          7 -25 -33 3 -40 hhcurveto
          -114 -58 -65 -130 -3 hvcurveto
          -122 203 vlineto
          endchar
        </CharString>
        <CharString name="four">
          19 170 callsubr
        </CharString>
        <CharString name="fraction">
          -200 163 110 -60 callsubr
          endchar
        </CharString>
        <CharString name="franc">
          -66 callgsubr
          -318 -534 -10 callsubr
        </CharString>
        <CharString name="g">
          -31 callsubr
          endchar
        </CharString>
        <CharString name="gamma">
          -105 -87 callgsubr
        </CharString>
        <CharString name="gbreve">
          -31 callsubr
          574 967 -101 callsubr
        </CharString>
        <CharString name="gcircumflex">
          -31 callsubr
          577 733 -103 callsubr
        </CharString>
        <CharString name="gdotaccent">
          -31 callsubr
          165 838 -107 callsubr
          -106 callsubr
        </CharString>
        <CharString name="germandbls">
          87 324 hmoveto
          -185 1111 hlineto
          139 35 108 69 79 vhcurveto
          78 69 96 39 124 hhcurveto
          120 93 -30 -59 66 hvcurveto
          65 -60 33 -83 -106 vvcurveto
          -83 -21 -76 -43 -67 vhcurveto
          -43 -68 -21 -57 -46 vvcurveto
          -34 13 -33 25 -31 vhcurveto
          25 -32 43 -40 63 -48 63 -48 45 -47 29 -45 rrcurveto
          29 -45 14 -48 -51 vvcurveto
          -106 -34 -83 -67 -59 vhcurveto
          -59 -68 -95 -30 -121 hhcurveto
          -54 -57 7 15 -60 hvcurveto
          -61 15 -43 16 -25 19 rrcurveto
          43 155 33 -21 39 -18 45 -15 rlinecurve
          -15 45 40 -7 35 hhcurveto
          71 55 16 31 38 hvcurveto
          37 31 19 43 55 vvcurveto
          35 -12 33 -25 32 vhcurveto
          -25 32 -43 41 -63 49 -63 49 -46 47 -29 46 rrcurveto
          -29 46 -15 50 54 vvcurveto
          59 23 65 47 69 vhcurveto
          46 69 23 62 56 vvcurveto
          63 -17 49 -35 36 vhcurveto
          35 -35 -46 18 -59 hhcurveto
          -145 -73 -98 -195 hvcurveto
          endchar
        </CharString>
        <CharString name="glyph00369">
          -331 401 1172 172 callsubr
        </CharString>
        <CharString name="glyph00380">
          -875 endchar
        </CharString>
        <CharString name="glyph00443">
          136 231 -11 callsubr
          -1 callsubr
          231 -143 -231 -939 vlineto
          371 -11 callsubr
          -1 callsubr
          231 -143 -231 -939 vlineto
          endchar
        </CharString>
        <CharString name="glyph00448">
          131 1174 166 callsubr
          -197 143 197 287 vlineto
          -41 19 -54 11 -68 5 -24 1 rcurveline
          -122 -61 -74 -147 hvcurveto
          -1184 -185 939 -171 143 171 112 vlineto
          115 30 90 60 63 vhcurveto
          63 59 83 32 107 hhcurveto
          62 68 -9 -19 73 hvcurveto
          73 -19 66 -25 60 -29 rrcurveto
          -374 202 vlineto
          endchar
        </CharString>
        <CharString name="glyph00449">
          560 1615 939 rmoveto
          -202 -642 hlineto
          -106 40 -53 79 23 29 4 8 35 vhcurveto
          1 -150 rlineto
          -13 -51 -48 -7 -44 hhcurveto
          -79 -61 28 55 -44 hvcurveto
          -44 55 -22 78 101 vvcurveto
          642 -188 143 188 85 vlineto
          76 -17 58 -34 39 vhcurveto
          39 -34 -50 19 -65 hhcurveto
          -59 -44 -15 -29 -31 hvcurveto
          -31 -29 -15 -38 -47 vvcurveto
          -39 5 -37 11 -35 vhcurveto
          10 -35 11 -37 13 -37 12 -37 11 -40 10 -41 rrcurveto
          10 -41 5 -46 -51 135 callsubr
          72 callsubr
          64 61 -10 -20 57 hvcurveto
          -29 73 -15 64 55 vvcurveto
          83 34 69 67 55 vhcurveto
          55 67 86 27 103 hhcurveto
          123 96 -33 -66 67 hvcurveto
          67 -67 33 -98 -130 vvcurveto
          -77 202 vlineto
          endchar
        </CharString>
        <CharString name="glyph00453">
          -380 683 hmoveto
          55 callsubr
        </CharString>
        <CharString name="glyph00454">
          -380 495 hmoveto
          -33 callgsubr
          endchar
        </CharString>
        <CharString name="glyph00455">
          -380 669 325 150 callsubr
        </CharString>
        <CharString name="glyph00456">
          -92 735 492 rmoveto
          -73 -67 -91 -37 -114 hhcurveto
          -116 -92 36 72 -68 hvcurveto
          -68 71 -34 95 117 vvcurveto
          120 38 98 77 76 vhcurveto
          76 76 100 38 124 hhcurveto
          132 103 -42 -85 75 hvcurveto
          75 -85 37 -117 -151 vvcurveto
          -63 vlineto
          -213 -51 -159 -103 -107 vhcurveto
          -103 -107 -151 -55 -200 -3 rrcurveto
          -41 152 35 hlineto
          269 5 143 115 15 226 rrcurveto
          -238 37 rmoveto
          53 48 13 27 44 hvcurveto
          43 26 32 34 20 43 rrcurveto
          66 vlineto
          88 -22 70 -44 53 vhcurveto
          53 -44 -57 26 -70 hhcurveto
          -69 -56 -24 -47 -42 hvcurveto
          -43 -48 -21 -60 -72 vvcurveto
          -73 21 -59 41 -46 vhcurveto
          -47 41 56 -23 69 hhcurveto
          endchar
        </CharString>
        <CharString name="glyph00457">
          -92 912 858 rmoveto
          -57 -16 -51 -33 -45 vhcurveto
          -33 -45 -45 -36 -57 -25 65 -25 52 -37 39 -49 rrcurveto
          38 -49 19 -58 -65 vvcurveto
          -101 -39 -80 -77 -60 vhcurveto
          -61 -77 -102 -30 -127 hhcurveto
          -127 -102 30 60 -77 hvcurveto
          -78 59 -39 81 102 vvcurveto
          66 19 57 38 49 vhcurveto
          37 49 52 37 65 26 -57 25 -44 35 -32 45 rrcurveto
          -32 45 -16 51 57 vvcurveto
          99 36 78 71 59 vhcurveto
          58 71 95 29 118 hhcurveto
          118 95 -29 -58 73 hvcurveto
          73 -59 36 -78 -99 vvcurveto
          -156 -532 rmoveto
          57 -22 47 -43 37 vhcurveto
          37 -44 -58 18 -72 hhcurveto
          -71 -57 -18 -36 -43 hvcurveto
          -43 -36 -21 -47 -59 vvcurveto
          -61 21 -47 43 -33 vhcurveto
          -33 42 58 -17 73 hhcurveto
          73 57 17 35 43 hvcurveto
          43 34 21 46 59 vvcurveto
          -30 525 rmoveto
          52 -19 43 -39 33 vhcurveto
          33 -39 -50 17 -62 hhcurveto
          -63 -49 -16 -32 -37 hvcurveto
          -37 -33 -18 -43 -54 vvcurveto
          -53 19 -43 37 -33 vhcurveto
          -33 37 50 -16 63 hhcurveto
          63 51 17 33 37 hvcurveto
          37 33 19 42 53 vvcurveto
          endchar
        </CharString>
        <CharString name="glyph00458">
          -92 960 1060 rmoveto
          -536 -1060 -195 0 535 1012 rlineto
          -698 153 894 hlineto
          endchar
        </CharString>
        <CharString name="glyph00459">
          -93 768 1171 rmoveto
          -156 -30 vlineto
          -133 -2 -104 -32 -75 -61 -75 -61 -42 -90 -9 -118 35 38 42 30 50 21 rrcurveto
          21 50 51 10 52 hhcurveto
          116 92 -36 -71 67 hvcurveto
          67 -72 33 -94 -116 vvcurveto
          -117 -37 -96 -74 -74 vhcurveto
          -74 -75 -100 -37 -127 hhcurveto
          -129 -104 42 84 -78 hvcurveto
          -78 83 -39 113 141 vvcurveto
          75 vlineto
          213 53 161 107 110 vhcurveto
          110 107 158 55 211 hhcurveto
          -208 -552 rmoveto
          -53 -49 -13 -25 -43 hvcurveto
          -44 -26 -33 -34 -21 -43 rrcurveto
          -40 vlineto
          -92 23 -73 46 -55 vhcurveto
          -55 45 58 -27 70 hhcurveto
          70 56 22 45 42 hvcurveto
          42 44 21 58 72 vvcurveto
          72 -20 58 -41 45 vhcurveto
          45 -41 -57 22 -71 hhcurveto
          endchar
        </CharString>
        <CharString name="glyph00460">
          -92 164 579 rmoveto
          69 586 rlineto
          680 -162 -524 hlineto
          -37 -289 rlineto
          32 66 71 16 77 hhcurveto
          123 97 -35 -70 72 hvcurveto
          71 -70 36 -95 -120 vvcurveto
          -119 -37 -94 -74 -70 vhcurveto
          -70 -75 -102 -35 -131 hhcurveto
          -114 -96 30 59 -78 hvcurveto
          -78 59 -43 79 -9 101 rrcurveto
          178 hlineto
          9 -61 26 -44 43 -29 rrcurveto
          -29 43 54 -14 65 hhcurveto
          75 57 22 43 41 hvcurveto
          40 43 20 60 75 vvcurveto
          71 -23 56 -47 43 vhcurveto
          42 -47 -61 21 -77 hhcurveto
          -70 -57 -14 -28 -44 hvcurveto
          -41 -27 rlineto
          endchar
        </CharString>
        <CharString name="glyph00461">
          -92 821 413 rmoveto
          175 -151 -175 -262 -186 262 -584 hlineto
          -3 115 578 788 rlineto
          195 hlineto
          -575 -752 rmoveto
          389 508 hlineto
          -26 -47 rlineto
          endchar
        </CharString>
        <CharString name="glyph00462">
          -92 352 667 rmoveto
          122 hlineto
          79 61 17 33 43 hvcurveto
          43 33 21 44 56 vvcurveto
          55 -18 44 -36 32 vhcurveto
          32 -36 -55 16 -75 hhcurveto
          -65 -54 -15 -30 -42 hvcurveto
          -43 -31 -21 -41 -51 vvcurveto
          -185 hlineto
          93 38 77 77 60 vhcurveto
          60 77 98 30 119 hhcurveto
          125 99 -29 -58 73 hvcurveto
          73 -59 36 -81 -104 vvcurveto
          -53 -17 -49 -33 -45 vhcurveto
          -34 -46 -47 -35 -61 -25 rrcurveto
          142 -43 71 -91 -139 vvcurveto
          -103 -39 -82 -77 -62 vhcurveto
          -62 -78 -103 -31 -129 hhcurveto
          -126 -102 30 60 -78 hvcurveto
          -78 59 -39 80 100 vvcurveto
          185 hlineto
          -53 22 -42 44 -33 vhcurveto
          -33 43 58 -17 72 hhcurveto
          75 58 16 33 43 hvcurveto
          42 33 21 46 61 vvcurveto
          130 -92 65 -184 vhcurveto
          -113 hlineto
          endchar
        </CharString>
        <CharString name="glyph00463">
          -92 970 hmoveto
          -865 131 hlineto
          427 413 69 63 50 54 31 47 rlinecurve
          31 46 15 45 43 vvcurveto
          55 -19 45 -39 35 vhcurveto
          35 -39 -50 17 -63 hhcurveto
          -81 -62 -19 -37 -44 hvcurveto
          -45 -37 -22 -55 -71 vvcurveto
          -186 hlineto
          110 41 89 82 69 vhcurveto
          69 81 106 34 130 hhcurveto
          121 97 -31 -62 71 hvcurveto
          71 -62 36 -81 -99 vvcurveto
          -54 -16 -56 -33 -58 vhcurveto
          -33 -58 -69 -83 -103 -107 -328 -279 rcurveline
          638 hlineto
          endchar
        </CharString>
        <CharString name="glyph00464">
          -92 669 hmoveto
          -186 943 hlineto
          -331 -99 0 159 491 165 rlineto
          26 hlineto
          endchar
        </CharString>
        <CharString name="glyph00465">
          -92 939 497 rmoveto
          -165 -36 -127 -72 -88 vhcurveto
          -89 -72 -104 -44 -135 hhcurveto
          -134 -103 44 87 -73 hvcurveto
          -73 87 -37 124 -1 163 rrcurveto
          182 vlineto
          166 36 127 73 87 vhcurveto
          87 72 103 43 135 hhcurveto
          135 104 -43 -86 72 hvcurveto
          71 -86 37 -123 2 -159 rrcurveto
          -186 15 rmoveto
          219 -78 110 -157 -156 -78 -111 -222 vhcurveto
          -225 vlineto
          -111 20 -84 41 -56 vhcurveto
          -56 41 58 -28 76 hhcurveto
          155 78 113 226 hvcurveto
          endchar
        </CharString>
        <CharString name="glyph00466">
          2 callsubr
          endchar
        </CharString>
        <CharString name="glyph00467">
          -64 532 -76 callgsubr
          endchar
        </CharString>
        <CharString name="glyph00468">
          -23 30 callsubr
          108 callsubr
        </CharString>
        <CharString name="glyph00469">
          -3 callsubr
          endchar
        </CharString>
        <CharString name="glyph00470">
          -4 538 292 rmoveto
          25 -94 26 92 320 875 198 0 -457 -1165 -173 0 -457 1165 rlineto
          199 hlineto
          endchar
        </CharString>
        <CharString name="glyph00471">
          -66 callsubr
          endchar
        </CharString>
        <CharString name="glyph00472">
          -35 callsubr
          endchar
        </CharString>
        <CharString name="glyph00473">
          -52 callsubr
          -45 callsubr
          endchar
        </CharString>
        <CharString name="glyph00474">
          13 callsubr
          endchar
        </CharString>
        <CharString name="glyph00475">
          80 1109 548 rmoveto
          -111 -19 -95 -37 -81 vhcurveto
          -37 -81 -53 -64 -68 -47 rrcurveto
          216 -160 -124 -111 -263 199 rlineto
          -9 -36 -41 -4 -47 hhcurveto
          -152 -123 51 102 -94 hvcurveto
          -95 101 -47 139 176 vvcurveto
          62 vlineto
          113 21 99 43 87 vhcurveto
          42 86 60 66 77 46 rrcurveto
          46 77 89 23 100 hhcurveto
          156 124 -51 -102 93 hvcurveto
          92 -103 46 -139 -175 vvcurveto
          -183 6 rmoveto
          132 -29 101 -57 70 vhcurveto
          70 -57 -81 35 -104 hhcurveto
          -99 -78 -34 -69 -57 hvcurveto
          -57 -69 -30 -97 -3 -123 rrcurveto
          -85 vlineto
          -129 29 -101 58 -72 vhcurveto
          -72 58 80 -36 101 hhcurveto
          104 80 35 71 57 hvcurveto
          57 70 28 101 133 vvcurveto
          endchar
        </CharString>
        <CharString name="glyph00476">
          -15 57 callsubr
        </CharString>
        <CharString name="glyph00477">
          -70 callsubr
          endchar
        </CharString>
        <CharString name="glyph00478">
          -13 callsubr
          endchar
        </CharString>
        <CharString name="glyph00479">
          407 69 callsubr
        </CharString>
        <CharString name="glyph00480">
          3 callsubr
          endchar
        </CharString>
        <CharString name="glyph00481">
          21 callsubr
          endchar
        </CharString>
        <CharString name="glyph00482">
          -156 658 1165 rmoveto
          65 callsubr
        </CharString>
        <CharString name="glyph00483">
          -79 callsubr
          endchar
        </CharString>
        <CharString name="glyph00484">
          120 101 callsubr
        </CharString>
        <CharString name="glyph00485">
          -5 callsubr
          endchar
        </CharString>
        <CharString name="glyph00486">
          -160 843 499 rmoveto
          -520 -499 -185 1165 785 -153 -600 -360 520 hlineto
          endchar
        </CharString>
        <CharString name="glyph00487">
          -52 callsubr
          87 34 72 68 57 vhcurveto
          67 57 89 34 111 11 rrcurveto
          217 149 -219 vlineto
          109 -14 87 -39 66 -65 rrcurveto
          66 -65 33 -77 -91 vvcurveto
          -185 hlineto
          65 -23 51 -47 36 vhcurveto
          35 -47 -64 18 -81 hhcurveto
          -75 -60 -15 -29 -45 hvcurveto
          -45 -30 -22 -42 -53 vvcurveto
          -43 21 -37 41 -29 vhcurveto
          41 -29 72 -28 104 -27 104 -27 81 -30 59 -33 59 -34 43 -40 29 -45 rrcurveto
          29 -45 14 -53 -61 vvcurveto
          -87 -32 -71 -65 -55 vhcurveto
          -65 -55 -89 -33 -113 -11 rrcurveto
          -225 -149 225 vlineto
          -124 13 -99 38 -74 65 rrcurveto
          -75 65 -37 81 99 -71 callgsubr
          endchar
        </CharString>
        <CharString name="glyph00488">
          -56 797 500 rmoveto
          -400 hlineto
          1 -34 3 -135 -17 -105 -37 -74 rlinecurve
          660 hlineto
          -1 -152 rlineto
          -892 152 10 hlineto
          53 15 29 82 6 147 rrcurveto
          1 70 -1 34 rlineto
          -164 121 160 hlineto
          -4 123 162 callsubr
          4 -123 rcurveline
          404 hlineto
          endchar
        </CharString>
        <CharString name="glyph00489">
          -202 465 589 rmoveto
          253 576 196 0 -300 -628 rlineto
          213 -121 -271 hlineto
          -3 -7 rlineto
          -68 274 -120 -274 -221 -185 221 -274 120 274 75 -274 121 219 vlineto
          -300 628 rlineto
          199 hlineto
          endchar
        </CharString>
        <CharString name="glyph00490">
          91 callsubr
          endchar
        </CharString>
        <CharString name="glyph00491">
          -4 1107 hmoveto
          -1087 hlineto
          457 1165 rlineto
          173 hlineto
          -61 -291 rmoveto
          -26 92 -25 -94 -264 -720 rlineto
          579 hlineto
          endchar
        </CharString>
        <CharString name="glyph00492">
          80 853 505 rmoveto
          -481 153 481 hlineto
          261 -110 rmoveto
          -14 callgsubr
          -106 callgsubr
          endchar
        </CharString>
        <CharString name="glyph00493">
          -4 219 hmoveto
          -199 hlineto
          457 1165 173 0 457 -1165 -198 0 -320 874 -26 92 -25 -94 rlineto
          endchar
        </CharString>
        <CharString name="glyph00494">
          -226 843 hmoveto
          -781 152 781 hlineto
          -67 379 rmoveto
          -649 152 649 hlineto
          67 329 rmoveto
          -781 153 781 hlineto
          endchar
        </CharString>
        <CharString name="glyph00495">
          99 -45 callgsubr
        </CharString>
        <CharString name="glyph00496">
          -124 623 570 rmoveto
          -330 -417 rlineto
          675 -153 -905 144 hlineto
          337 439 -337 438 rlineto
          144 855 -153 -625 vlineto
          330 -417 rlineto
          endchar
        </CharString>
        <CharString name="glyph00497">
          252 124 callsubr
        </CharString>
        <CharString name="glyph00498">
          172 744 443 rmoveto
          185 34 92 138 242 vvcurveto
          308 185 -323 vlineto
          -2 -162 -41 -129 -81 -95 -81 -95 -112 -56 -145 -16 rrcurveto
          -289 -186 287 vlineto
          -145 13 -112 55 -80 95 -80 95 -42 128 -3 161 rrcurveto
          331 186 -309 vlineto
          -247 92 -138 184 -30 vhcurveto
          724 186 vlineto
          endchar
        </CharString>
        <CharString name="glyph00499">
          135 699 129 callsubr
          endchar
        </CharString>
        <CharString name="glyph00500">
          263 394 1012 rmoveto
          -356 153 905 -153 -364 -297 hlineto
          33 101 102 16 104 hhcurveto
          141 109 -35 -69 75 hvcurveto
          75 -69 38 -100 -131 vvcurveto
          -127 -38 -95 -76 -63 vhcurveto
          -63 -77 -113 -32 -149 hhcurveto
          151 vlineto
          94 68 18 37 43 hvcurveto
          42 36 21 58 80 vvcurveto
          87 -21 64 -41 41 vhcurveto
          40 -42 -64 20 -85 hhcurveto
          -105 -102 -17 -33 -100 hvcurveto
          -562 -185 vlineto
          endchar
        </CharString>
        <CharString name="glyph00501">
          -57 callsubr
          -125 -49 -96 -84 -69 rrcurveto
          -69 -84 -112 -34 -139 hhcurveto
          -149 -120 49 99 -90 hvcurveto
          -91 98 -45 135 173 vvcurveto
          94 vlineto
          109 21 97 41 83 vhcurveto
          41 83 59 64 77 45 rrcurveto
          45 77 89 23 101 hhcurveto
          136 109 -35 -70 83 hvcurveto
          82 -71 47 -97 13 -125 rrcurveto
          -185 hlineto
          -12 87 -29 62 -47 39 rrcurveto
          39 -47 -66 19 -84 hhcurveto
          -102 -78 -32 -65 -54 hvcurveto
          -54 -65 -29 -91 -4 -117 rrcurveto
          447 -152 -447 hlineto
          3 -119 28 -91 54 -65 rrcurveto
          -65 53 75 -32 97 15 callgsubr
          endchar
        </CharString>
        <CharString name="glyph00502">
          726 1787 366 rmoveto
          -24 callgsubr
          1012 -418 hlineto
          -15 -411 rlineto
          -7 -158 -17 -120 -25 -82 -26 -82 -38 -60 -50 -39 -51 -39 -66 -20 -82 -1 rrcurveto
          -59 hlineto
          4 165 46 1 rlineto
          64 3 46 33 27 63 27 63 16 120 7 177 20 540 rcurveline
          782 -48 callgsubr
          -709 209 rmoveto
          -423 277 vlineto
          -61 callgsubr
          endchar
        </CharString>
        <CharString name="glyph00503">
          740 323 650 rmoveto
          584 515 185 -48 callgsubr
          -24 callgsubr
          498 -584 -498 -58 callsubr
          hlineto
          769 -590 rmoveto
          -423 277 vlineto
          86 callsubr
          endchar
        </CharString>
        <CharString name="glyph00504">
          265 395 1012 rmoveto
          -355 153 905 -153 -364 -297 hlineto
          33 98 102 16 107 -36 callgsubr
          -186 356 vlineto
          90 -21 65 -41 41 vhcurveto
          40 -42 -63 20 -85 hhcurveto
          -105 -102 -17 -33 -100 hvcurveto
          -562 -186 vlineto
          endchar
        </CharString>
        <CharString name="glyph00505">
          98 1091 hmoveto
          -383 -357 -185 357 -385 1165 185 -1013 583 1013 185 hlineto
          endchar
        </CharString>
        <CharString name="glyph00506">
          -18 917 1015 rmoveto
          -594 -288 -23 callgsubr
          -46 callgsubr
          779 hlineto
          -317 -1013 rmoveto
          86 callsubr
          -289 -423 hlineto
          endchar
        </CharString>
        <CharString name="glyph00507">
          185 133 152 rmoveto
          41 49 rlineto
          47 57 36 71 24 85 23 84 14 114 5 144 14 409 rcurveline
          775 -1013 143 -492 -185 340 -838 -339 -186 hlineto
          1 491 rlineto
          302 hmoveto
          578 860 -412 hlineto
          -12 -312 -11 -239 -52 -183 -91 -126 rlinecurve
          endchar
        </CharString>
        <CharString name="glyph00508">
          416 965 502 rmoveto
          168 callsubr
          224 0 -356 -563 392 -602 rlineto
          -234 hlineto
          endchar
        </CharString>
        <CharString name="glyph00509">
          152 callsubr
          -105 -42 -83 -85 -60 vhcurveto
          -60 -85 -113 -30 -142 hhcurveto
          -61 -58 7 15 -56 hvcurveto
          -57 15 -48 22 -41 31 rrcurveto
          -81 59 -40 82 105 164 callsubr
        </CharString>
        <CharString name="glyph00510">
          82 callsubr
          endchar
        </CharString>
        <CharString name="glyph00511">
          -29 430 502 rmoveto
          -10 callgsubr
          223 0 -459 -571 491 -594 rlineto
          -239 hlineto
          endchar
        </CharString>
        <CharString name="glyph00512">
          86 1078 1165 rmoveto
          -1165 -185 1012 -418 vlineto
          -15 -382 rlineto
          -9 -228 -31 -161 -55 -94 -55 -95 -86 -49 -117 -3 rrcurveto
          -68 hlineto
          4 165 41 3 rlineto
          63 5 44 28 27 53 27 53 17 101 9 151 25 606 rcurveline
          endchar
        </CharString>
        <CharString name="glyph00513">
          63 callsubr
          endchar
        </CharString>
        <CharString name="glyph00514">
          189 1092 152 rmoveto
          173 hlineto
          -18 -492 rlineto
          -165 340 -944 1165 185 -1013 583 1013 186 hlineto
          endchar
        </CharString>
        <CharString name="glyph00515">
          -1 991 hmoveto
          -185 450 hlineto
          -32 -96 -102 -16 -109 hhcurveto
          -141 -108 34 67 -74 hvcurveto
          -74 67 -38 98 -3 129 rrcurveto
          368 185 -355 vlineto
          -90 21 -65 42 -40 vhcurveto
          -41 42 63 -20 85 hhcurveto
          105 102 17 33 100 hvcurveto
          561 185 vlineto
          endchar
        </CharString>
        <CharString name="glyph00516">
          486 1478 hmoveto
          -1340 -41 callgsubr
          185 hlineto
          endchar
        </CharString>
        <CharString name="glyph00517">
          577 1479 152 rmoveto
          174 hlineto
          -18 -492 rlineto
          -166 340 -1331 -41 callgsubr
          186 hlineto
          endchar
        </CharString>
        <CharString name="glyph00518">
          178 1238 366 rmoveto
          -109 -38 -88 -76 -67 vhcurveto
          -76 -67 -103 -34 -131 -1 rrcurveto
          -470 1012 -336 153 522 -438 278 hlineto
          88 76 -15 -29 65 hvcurveto
          65 -29 49 -42 35 -54 rrcurveto
          35 -55 17 -64 -73 vvcurveto
          -431 -214 rmoveto
          -61 callgsubr
          -277 -423 hlineto
          endchar
        </CharString>
        <CharString name="glyph00519">
          390 -89 callgsubr
          1060 -152 rmoveto
          -186 1165 186 hlineto
          endchar
        </CharString>
        <CharString name="glyph00520">
          -29 -89 callgsubr
          endchar
        </CharString>
        <CharString name="glyph00521">
          16 260 377 rmoveto
          13 -87 31 -62 47 -37 rrcurveto
          -37 47 68 -19 90 hhcurveto
          94 74 31 63 54 hvcurveto
          54 62 29 93 5 123 rrcurveto
          -447 152 446 hlineto
          -3 117 -29 91 -54 65 rrcurveto
          65 -55 -78 32 -101 hhcurveto
          -84 -65 -19 -39 -47 hvcurveto
          -47 -39 -30 -62 -12 -87 rrcurveto
          -185 hlineto
          13 125 47 97 83 71 rrcurveto
          70 82 109 35 136 hhcurveto
          152 122 -48 -96 91 hvcurveto
          91 -97 47 -129 3 -163 rrcurveto
          -117 vlineto
          -109 -20 -95 -40 -83 vhcurveto
          -40 -83 -58 -64 -75 -45 rrcurveto
          -45 -75 -88 -23 -99 hhcurveto
          -138 -111 34 69 -85 hvcurveto
          -85 69 -49 96 -13 125 rrcurveto
          endchar
        </CharString>
        <CharString name="glyph00522">
          523 1557 548 rmoveto
          -14 callgsubr
          -147 -120 47 95 -92 hvcurveto
          -93 95 -50 128 -8 161 rrcurveto
          -216 -510 -58 callsubr
          -503 216 hlineto
          9 161 51 126 92 93 rrcurveto
          93 92 119 46 145 hhcurveto
          -100 callgsubr
          endchar
        </CharString>
        <CharString name="glyph00523">
          28 80 hmoveto
          290 525 -81 25 -60 39 -37 53 rlinecurve
          -38 52 -19 61 69 vvcurveto
          107 37 84 73 59 vhcurveto
          73 59 104 31 133 1 rrcurveto
          465 -1165 -185 479 -304 hlineto
          -255 -479 rlineto
          46 816 rmoveto
          -120 77 -61 153 -3 vhcurveto
          283 380 -273 hlineto
          -160 -80 -65 -131 hvcurveto
          endchar
        </CharString>
        <CharString name="glyph00524">
          -90 647 509 rmoveto
          -226 -509 -185 509 -225 151 225 505 763 -153 -578 -352 226 hlineto
          endchar
        </CharString>
        <CharString name="glyph00525">
          476 1123 602 rmoveto
          294 -452 rlineto
          153 -490 -167 340 -122 hlineto
          -316 502 rlineto
          168 callsubr
          rlineto
          224 hlineto
          endchar
        </CharString>
        <CharString name="glyph00526">
          14 577 594 rmoveto
          367 -444 rlineto
          158 -490 -168 340 -105 hlineto
          -399 502 rlineto
          -10 callgsubr
          rlineto
          223 hlineto
          endchar
        </CharString>
        <CharString name="glyph00527">
          158 324 656 rmoveto
          80 228 148 -228 60 hlineto
          388 509 224 0 -460 -571 491 -594 -239 0 -399 502 rlineto
          -65 -206 -148 206 -80 -502 -58 callsubr
          hlineto
          endchar
        </CharString>
        <CharString name="glyph00528">
          204 663 502 rmoveto
          -105 -502 -186 1013 -337 152 523 -509 99 hlineto
          389 509 224 0 -460 -571 491 -594 rlineto
          -239 hlineto
          endchar
        </CharString>
        <CharString name="glyph00529">
          343 1371 -20 rmoveto
          -145 -127 20 39 -111 hvcurveto
          -40 -91 -100 -20 -109 hhcurveto
          -185 -145 54 109 -105 hvcurveto
          -105 108 -52 153 199 vvcurveto
          26 vlineto
          173 41 135 81 99 vhcurveto
          99 81 111 49 140 hhcurveto
          1 -158 rlineto
          -84 -66 -32 -65 -48 hvcurveto
          -48 -65 -24 -100 -133 vvcurveto
          -33 vlineto
          -155 35 -115 69 -76 vhcurveto
          -77 69 101 -38 133 hhcurveto
          36 35 3 5 33 hvcurveto
          -151 119 -76 167 -1 217 rrcurveto
          39 vlineto
          157 35 121 69 87 vhcurveto
          87 69 94 43 121 hhcurveto
          123 95 -43 -85 69 hvcurveto
          68 -86 34 -123 -161 vvcurveto
          -56 vlineto
          -196 -61 -157 -121 -119 vhcurveto
          -12 63 70 -6 79 hhcurveto
          -622 509 rmoveto
          -205 75 -143 150 -81 vhcurveto
          121 86 61 138 191 vvcurveto
          56 vlineto
          115 -16 84 -33 55 vhcurveto
          54 -33 -51 27 -71 hhcurveto
          -132 -68 -106 -211 -3 hvcurveto
          endchar
        </CharString>
        <CharString name="glyph00530">
          -12 532 -76 callgsubr
          626 -804 -10 callsubr
        </CharString>
        <CharString name="glyph00531">
          61 30 callsubr
          305 -438 rlineto
          1 168 -490 -168 340 -116 vlineto
          -62 callgsubr
        </CharString>
        <CharString name="glyph00532">
          502 1348 152 rmoveto
          174 hlineto
          -18 -492 rlineto
          -165 340 -944 1012 -357 153 905 -153 -363 -860 582 1013 186 hlineto
          endchar
        </CharString>
        <CharString name="glyph00533">
          -1 991 hmoveto
          -185 450 hlineto
          -66 -22 -68 -15 -70 -7 rrcurveto
          -198 -149 195 vlineto
          -125 7 -96 37 -67 67 -67 67 -35 95 -2 124 rrcurveto
          365 185 -355 vlineto
          -82 17 -61 35 -40 vhcurveto
          34 -40 52 -24 69 -7 rrcurveto
          240 149 -237 vlineto
          69 7 68 15 67 23 rrcurveto
          561 185 vlineto
          endchar
        </CharString>
        <CharString name="glyph00534">
          -1 138 1165 rmoveto
          185 -450 hlineto
          33 103 102 16 102 -36 callgsubr
          -185 356 vlineto
          90 -21 65 -42 41 vhcurveto
          40 -42 -63 20 -85 hhcurveto
          -101 -103 -17 -34 -103 hvcurveto
          -561 -185 vlineto
          endchar
        </CharString>
        <CharString name="glyph00535">
          119 callsubr
          endchar
        </CharString>
        <CharString name="glyph00536">
          95 583 1181 rmoveto
          165 132 -48 -96 99 hvcurveto
          99 -96 50 -128 1 -159 rrcurveto
          -136 vlineto
          -102 -22 -92 -44 -81 vhcurveto
          -44 -81 -61 -64 -79 -45 rrcurveto
          -46 -79 -88 -23 -98 hhcurveto
          -165 -128 46 93 -91 hvcurveto
          -91 92 -45 132 171 vvcurveto
          130 850 1 vlineto
          118 -32 91 -64 65 vhcurveto
          64 -65 -93 32 -122 hhcurveto
          -98 -97 -24 -48 -96 hvcurveto
          -57 146 43 27 54 22 64 16 rlinecurve
          15 64 67 8 71 hhcurveto
          31 -1043 rmoveto
          97 78 33 66 60 hvcurveto
          59 66 32 87 4 107 rrcurveto
          -665 -27 hlineto
          -107 29 -82 58 -57 vhcurveto
          -57 57 83 -29 108 hhcurveto
          endchar
        </CharString>
        <CharString name="glyph00537">
          -44 691 1012 rmoveto
          -580 153 824 hlineto
          2 -118 -343 -357 118 -11 94 -38 70 -65 rlinecurve
          69 -66 35 -79 -93 vvcurveto
          -111 -42 -88 -84 -63 vhcurveto
          -63 -84 -114 -32 -143 hhcurveto
          -59 -58 8 15 -57 hvcurveto
          -57 15 -49 22 -40 31 rrcurveto
          -81 60 -41 83 105 vvcurveto
          185 hlineto
          3 -59 25 -47 46 -33 rrcurveto
          -33 45 61 -17 77 hhcurveto
          91 69 17 35 49 hvcurveto
          49 35 24 52 71 vvcurveto
          63 -23 50 -46 35 vhcurveto
          35 -46 -68 18 -89 hhcurveto
          -128 165 hlineto
          endchar
        </CharString>
        <CharString name="glyph00538">
          80 1114 548 rmoveto
          -14 callgsubr
          88 callsubr
          -22 callgsubr
          -508 -484 rmoveto
          98 77 31 63 56 hvcurveto
          56 63 31 91 6 120 rrcurveto
          -650 hlineto
          7 -117 32 -91 58 -64 rrcurveto
          -64 57 77 -32 95 hhcurveto
          -2 887 rmoveto
          -97 -76 -32 -65 -57 hvcurveto
          -57 -65 -32 -90 -5 -115 rrcurveto
          650 hlineto
          -6 119 -31 91 -57 63 rrcurveto
          63 -57 -77 31 -98 hhcurveto
          endchar
        </CharString>
        <CharString name="glyph00539">
          -56 391 680 rmoveto
          406 -121 -402 hlineto
          3 -93 rlineto
          -16 399 -121 -404 vlineto
          -7 -71 -15 -59 -24 -47 rrcurveto
          660 hlineto
          -1 -152 rlineto
          -892 152 10 hlineto
          42 12 28 59 13 106 rrcurveto
          -159 121 165 16 hlineto
          -3 93 rlineto
          -162 121 158 hlineto
          -2 64 162 callsubr
          rrcurveto
          endchar
        </CharString>
        <CharString name="glyph00540">
          -136 815 406 rmoveto
          -408 hlineto
          -181 21 97 -90 172 hhcurveto
          65 68 9 19 69 hvcurveto
          27 -149 rlineto
          -20 -79 -76 -10 -74 hhcurveto
          -141 -111 36 73 -81 hvcurveto
          -82 73 -48 104 -13 136 rrcurveto
          -155 121 151 109 -151 121 155 hlineto
          15 136 48 105 82 73 rrcurveto
          73 81 110 37 138 hhcurveto
          64 77 -10 -21 90 hvcurveto
          -21 -149 rlineto
          19 -59 -70 9 -81 hhcurveto
          -171 -96 -91 -181 -21 hvcurveto
          408 -121 -412 -109 412 hlineto
          endchar
        </CharString>
        <CharString name="glyph00541">
          951 1902 189 rmoveto
          -557 142 557 hlineto
          -622 515 rmoveto
          99 31 81 63 62 vhcurveto
          62 63 82 31 103 hhcurveto
          103 83 -31 -61 63 hvcurveto
          63 -61 31 -83 -103 vvcurveto
          -80 vlineto
          -101 -32 -81 -63 -61 vhcurveto
          -61 -63 -82 -30 -101 hhcurveto
          -102 -83 31 61 -63 hvcurveto
          -64 61 -32 82 104 vvcurveto
          163 -5 rmoveto
          -59 16 -48 31 -35 vhcurveto
          -35 31 45 -18 58 hhcurveto
          56 44 18 35 31 hvcurveto
          31 35 16 48 61 vvcurveto
          82 vlineto
          60 -16 47 -32 35 vhcurveto
          35 -33 -44 17 -55 hhcurveto
          -55 -43 -17 -34 -32 hvcurveto
          -33 -35 -16 -48 -63 vvcurveto
          -331 -843 rmoveto
          -69 callgsubr
          endchar
        </CharString>
        <CharString name="glyph00542">
          64 676 180 rmoveto
          -258 -180 -186 180 -192 152 192 89 -192 152 192 592 463 hlineto
          131 105 -34 -68 78 hvcurveto
          78 -68 39 -90 -112 vvcurveto
          -110 -38 -89 -75 -67 vhcurveto
          -76 -68 -101 -35 -127 -3 rrcurveto
          -291 -89 258 hlineto
          -258 241 rmoveto
          277 hlineto
          76 60 20 40 44 hvcurveto
          43 40 22 53 65 vvcurveto
          67 -22 53 -44 41 vhcurveto
          41 -44 -59 20 -75 hhcurveto
          -278 hlineto
          endchar
        </CharString>
        <CharString name="glyph00543">
          -380 265 459 47 callsubr
        </CharString>
        <CharString name="glyph00544">
          -380 592 299 22 callsubr
        </CharString>
        <CharString name="glyph00545">
          -380 112 387 rmoveto
          50 148 callsubr
          endchar
        </CharString>
        <CharString name="glyph00546">
          -380 552 798 130 callsubr
        </CharString>
        <CharString name="glyph00547">
          -380 677 699 rmoveto
          -40 callgsubr
          endchar
        </CharString>
        <CharString name="glyph00548">
          -380 651 579 -34 callsubr
        </CharString>
        <CharString name="glyph00549">
          -380 502 320 132 callsubr
        </CharString>
        <CharString name="glyph00550">
          -213 779 651 -10 callsubr
        </CharString>
        <CharString name="glyph00551">
          -438 433 1650 10 callsubr
        </CharString>
        <CharString name="glyph00552">
          -80 callsubr
          -76 callsubr
          endchar
        </CharString>
</ttFont>
